<svg version="1.1" id="Layer_1" xmlns="http://www.w3.org/2000/svg" xmlns:xlink="http://www.w3.org/1999/xlink" x="0px" y="0px"
	 width="100%" viewBox="0 0 500 215" enable-background="new 100 0 500 215" xml:space="preserve" heigth="200px">
<path fill="#FFFFFF" opacity="1.000000" stroke="none" 
	d="
M341.000000,216.000000 
	C227.333359,216.000000 114.166710,216.000000 1.000046,216.000000 
	C1.000030,144.333374 1.000030,72.666733 1.000015,1.000074 
	C167.666611,1.000050 334.333221,1.000050 500.999878,1.000025 
	C500.999908,72.666588 500.999908,144.333176 500.999939,215.999878 
	C447.833344,216.000000 394.666656,216.000000 341.000000,216.000000 
M90.314415,144.207611 
	C91.972076,145.318329 93.544716,146.591248 95.301796,147.512314 
	C103.946434,152.043915 114.676826,150.136292 121.425903,142.965881 
	C128.373993,135.584030 129.700974,125.126266 124.777596,116.658653 
	C123.335457,114.178329 121.561920,112.032043 118.421791,113.672318 
	C115.464920,115.216843 115.814171,117.618439 116.878777,120.526123 
	C117.981750,123.538582 118.911308,126.976997 118.566383,130.078964 
	C117.919777,135.893921 112.733093,140.371307 107.147003,141.052383 
	C100.904610,141.813477 95.429428,138.805527 92.868027,133.207825 
	C90.384811,127.780968 91.524399,121.295525 96.311287,117.263992 
	C103.314186,111.366142 110.830185,106.070679 117.747169,100.079384 
	C126.347580,92.629974 126.745514,79.831177 119.062141,71.996155 
	C111.260925,64.040962 98.592957,64.064301 90.834869,72.048141 
	C83.368469,79.731819 84.227943,92.658096 92.705376,100.179893 
	C97.749107,104.655045 97.749100,104.655052 92.754868,108.834236 
	C80.644997,118.967781 79.564079,131.611572 90.314415,144.207611 
M163.050705,101.931168 
	C168.244446,90.036118 178.748749,88.166855 191.820831,97.149841 
	C193.281738,95.563347 194.787476,93.928185 196.247223,92.342949 
	C189.077011,83.663467 176.592941,81.529137 166.475494,86.969803 
	C157.562561,91.762741 153.947968,99.631218 154.282730,109.331055 
	C154.620453,119.116814 159.126312,126.633873 168.322739,130.558090 
	C177.652039,134.539017 186.573166,132.972321 194.835403,127.329475 
	C195.566208,126.830376 196.354019,125.780968 196.371048,124.971497 
	C196.499298,118.873695 196.441010,112.771965 196.441010,106.603745 
	C189.954575,106.603745 184.207001,106.603745 178.414490,106.603745 
	C178.414490,109.019539 178.414490,111.086685 178.414490,113.643532 
	C180.721420,113.643532 182.703064,113.793488 184.653061,113.609032 
	C187.715546,113.319351 188.663513,114.688919 188.866791,117.606850 
	C189.181458,122.123451 187.296463,124.274628 182.903732,125.020149 
	C168.954300,127.387619 159.649521,117.100563 163.050705,101.931168 
M312.032684,103.500671 
	C312.032684,97.566322 312.032684,91.631973 312.032684,85.450981 
	C309.362427,85.450981 307.296326,85.450981 304.753204,85.450981 
	C304.753204,90.477730 304.753204,95.231216 304.753204,100.129318 
	C292.142426,96.048759 285.184570,97.422821 280.390472,104.691818 
	C276.059113,111.259209 276.707306,121.331612 281.828247,127.034576 
	C287.351776,133.185822 294.105804,133.660522 304.498566,128.602646 
	C305.596252,133.476730 308.897614,131.393173 312.032440,131.156357 
	C312.032440,122.091064 312.032440,113.295776 312.032684,103.500671 
M396.475861,131.434814 
	C398.788910,130.182083 401.101929,128.929337 403.462006,127.651100 
	C408.345642,133.073227 411.420868,133.586334 417.457458,129.207870 
	C416.275879,127.839592 415.093872,125.340454 413.964905,125.364174 
	C409.660309,125.454605 410.018890,122.779922 410.020935,120.056000 
	C410.026245,112.945992 410.022736,105.835983 410.022736,97.647308 
	C406.777100,98.342133 404.286591,98.875298 401.686066,99.432022 
	C398.072815,98.834656 393.842468,97.210266 389.843597,97.657150 
	C380.017609,98.755211 374.195099,107.476463 375.688446,117.562828 
	C377.261627,128.188324 384.311432,133.172318 396.475861,131.434814 
M330.975281,131.958984 
	C337.810059,132.729965 343.691101,131.109253 347.702179,125.951134 
	C346.358887,124.022514 345.252747,122.434402 344.209686,120.936836 
	C335.176147,127.484322 327.368378,126.285988 325.367706,117.906746 
	C333.197052,117.906746 340.892975,117.906746 348.480194,117.906746 
	C350.319519,103.856102 342.153107,95.124100 330.253723,97.710274 
	C322.036774,99.496124 317.064240,105.431252 316.683990,113.906891 
	C316.294617,122.584732 320.895935,128.730347 330.975281,131.958984 
M203.548706,105.225632 
	C202.933502,106.584846 202.190857,107.901787 201.723816,109.310135 
	C198.700806,118.425827 203.352203,128.092819 212.213913,131.225922 
	C221.599136,134.544113 231.459824,130.110107 234.729752,121.101379 
	C237.738464,112.812279 234.553024,103.770157 227.105576,99.459618 
	C219.509094,95.062820 210.138901,97.150497 203.548706,105.225632 
M239.851151,118.567291 
	C242.445175,128.852753 251.148315,134.174438 261.398102,131.742523 
	C270.309509,129.628159 275.669952,120.672531 273.888336,110.875175 
	C272.288818,102.079132 263.188141,95.914749 254.119965,97.485001 
	C244.062088,99.226616 238.278000,107.357079 239.851151,118.567291 
M356.043793,98.248734 
	C355.641083,98.899887 354.892212,99.548553 354.887512,100.202576 
	C354.813690,110.472504 354.835693,120.743118 354.835693,131.325134 
	C357.401154,131.325134 359.459686,131.325134 361.395325,131.325134 
	C361.665833,130.753235 361.919891,130.464218 361.923004,130.172516 
	C361.974518,125.351097 362.001770,120.529381 362.020081,115.707664 
	C362.053986,106.777802 363.964874,104.915909 373.180359,105.267006 
	C373.654388,103.157379 374.144135,100.977859 374.960266,97.345718 
	C370.023834,98.287277 366.155975,99.025024 363.496307,99.532318 
	C360.717529,98.962852 358.779297,98.565636 356.043793,98.248734 
M131.096237,58.796635 
	C127.057449,59.967167 124.317604,62.766781 125.550720,66.777550 
	C126.307785,69.239883 129.191605,71.888786 131.708572,72.765663 
	C135.178558,73.974556 138.075897,71.692078 139.386856,68.134331 
	C141.119537,63.432117 137.945465,59.518753 131.096237,58.796635 
z"/>
<path fill="#F37E5A" opacity="1.000000" stroke="none" 
	d="
M90.042793,143.971359 
	C79.564079,131.611572 80.644997,118.967781 92.754868,108.834236 
	C97.749100,104.655052 97.749107,104.655045 92.705376,100.179893 
	C84.227943,92.658096 83.368469,79.731819 90.834869,72.048141 
	C98.592957,64.064301 111.260925,64.040962 119.062141,71.996155 
	C126.745514,79.831177 126.347580,92.629974 117.747169,100.079384 
	C110.830185,106.070679 103.314186,111.366142 96.311287,117.263992 
	C91.524399,121.295525 90.384811,127.780968 92.868027,133.207825 
	C95.429428,138.805527 100.904610,141.813477 107.147003,141.052383 
	C112.733093,140.371307 117.919777,135.893921 118.566383,130.078964 
	C118.911308,126.976997 117.981750,123.538582 116.878777,120.526123 
	C115.814171,117.618439 115.464920,115.216843 118.421791,113.672318 
	C121.561920,112.032043 123.335457,114.178329 124.777596,116.658653 
	C129.700974,125.126266 128.373993,135.584030 121.425903,142.965881 
	C114.676826,150.136292 103.946434,152.043915 95.301796,147.512314 
	C93.544716,146.591248 91.972076,145.318329 90.042793,143.971359 
M104.604668,96.095757 
	C112.277298,95.478630 117.058334,89.994911 115.656334,83.419815 
	C114.514420,78.064468 110.019211,74.622261 104.489395,74.868713 
	C99.145775,75.106865 94.829369,79.238121 94.309456,84.612030 
	C93.791451,89.966095 97.410530,94.335526 104.604668,96.095757 
z"/>
<path fill="#F37F5B" opacity="1.000000" stroke="none" 
	d="
M162.961212,102.322556 
	C159.649521,117.100563 168.954300,127.387619 182.903732,125.020149 
	C187.296463,124.274628 189.181458,122.123451 188.866791,117.606850 
	C188.663513,114.688919 187.715546,113.319351 184.653061,113.609032 
	C182.703064,113.793488 180.721420,113.643532 178.414490,113.643532 
	C178.414490,111.086685 178.414490,109.019539 178.414490,106.603745 
	C184.207001,106.603745 189.954575,106.603745 196.441010,106.603745 
	C196.441010,112.771965 196.499298,118.873695 196.371048,124.971497 
	C196.354019,125.780968 195.566208,126.830376 194.835403,127.329475 
	C186.573166,132.972321 177.652039,134.539017 168.322739,130.558090 
	C159.126312,126.633873 154.620453,119.116814 154.282730,109.331055 
	C153.947968,99.631218 157.562561,91.762741 166.475494,86.969803 
	C176.592941,81.529137 189.077011,83.663467 196.247223,92.342949 
	C194.787476,93.928185 193.281738,95.563347 191.820831,97.149841 
	C178.748749,88.166855 168.244446,90.036118 162.961212,102.322556 
z"/>
<path fill="#F37E5A" opacity="1.000000" stroke="none" 
	d="
M312.032562,104.000580 
	C312.032440,113.295776 312.032440,122.091064 312.032440,131.156357 
	C308.897614,131.393173 305.596252,133.476730 304.498566,128.602646 
	C294.105804,133.660522 287.351776,133.185822 281.828247,127.034576 
	C276.707306,121.331612 276.059113,111.259209 280.390472,104.691818 
	C285.184570,97.422821 292.142426,96.048759 304.753204,100.129318 
	C304.753204,95.231216 304.753204,90.477730 304.753204,85.450981 
	C307.296326,85.450981 309.362427,85.450981 312.032684,85.450981 
	C312.032684,91.631973 312.032684,97.566322 312.032562,104.000580 
M300.462250,105.808891 
	C295.061737,103.096123 290.938141,103.434395 287.719116,106.854279 
	C284.645020,110.120186 283.910187,116.302055 286.107391,120.413231 
	C288.209167,124.345848 292.421417,126.125771 297.198273,125.099777 
	C305.043945,123.414642 307.152161,113.166893 300.462250,105.808891 
z"/>
<path fill="#F47F5B" opacity="1.000000" stroke="none" 
	d="
M396.088867,131.573242 
	C384.311432,133.172318 377.261627,128.188324 375.688446,117.562828 
	C374.195099,107.476463 380.017609,98.755211 389.843597,97.657150 
	C393.842468,97.210266 398.072815,98.834656 401.686066,99.432022 
	C404.286591,98.875298 406.777100,98.342133 410.022736,97.647308 
	C410.022736,105.835983 410.026245,112.945992 410.020935,120.056000 
	C410.018890,122.779922 409.660309,125.454605 413.964905,125.364174 
	C415.093872,125.340454 416.275879,127.839592 417.457458,129.207870 
	C411.420868,133.586334 408.345642,133.073227 403.462006,127.651100 
	C401.101929,128.929337 398.788910,130.182083 396.088867,131.573242 
M384.832916,121.489799 
	C386.726105,122.719154 388.473175,124.585075 390.539673,125.059280 
	C396.904633,126.519867 401.885834,122.563461 402.745392,115.880692 
	C403.523163,109.834053 399.228394,104.365753 393.397247,103.978058 
	C387.105225,103.559715 382.718079,108.135468 383.006775,115.099953 
	C383.086700,117.028816 383.892822,118.927582 384.832916,121.489799 
z"/>
<path fill="#F37E5A" opacity="1.000000" stroke="none" 
	d="
M330.553223,131.913086 
	C320.895935,128.730347 316.294617,122.584732 316.683990,113.906891 
	C317.064240,105.431252 322.036774,99.496124 330.253723,97.710274 
	C342.153107,95.124100 350.319519,103.856102 348.480194,117.906746 
	C340.892975,117.906746 333.197052,117.906746 325.367706,117.906746 
	C327.368378,126.285988 335.176147,127.484322 344.209686,120.936836 
	C345.252747,122.434402 346.358887,124.022514 347.702179,125.951134 
	C343.691101,131.109253 337.810059,132.729965 330.553223,131.913086 
M330.342834,104.431389 
	C327.214661,105.865814 324.788116,107.767426 325.204773,111.606323 
	C330.794861,111.606323 336.104401,111.606323 341.505524,111.606323 
	C339.861298,105.043968 337.968781,103.758789 330.342834,104.431389 
z"/>
<path fill="#F37F5C" opacity="1.000000" stroke="none" 
	d="
M203.760376,104.919701 
	C210.138901,97.150497 219.509094,95.062820 227.105576,99.459618 
	C234.553024,103.770157 237.738464,112.812279 234.729752,121.101379 
	C231.459824,130.110107 221.599136,134.544113 212.213913,131.225922 
	C203.352203,128.092819 198.700806,118.425827 201.723816,109.310135 
	C202.190857,107.901787 202.933502,106.584846 203.760376,104.919701 
M211.985794,106.346664 
	C211.131134,107.355347 210.036194,108.244492 209.464355,109.393890 
	C207.264984,113.814629 207.646561,118.167297 210.775238,121.968750 
	C213.790848,125.632828 217.918304,125.993385 222.125916,124.553467 
	C226.383987,123.096306 228.620377,118.864716 228.276093,113.706627 
	C227.743210,105.722977 220.756973,102.236908 211.985794,106.346664 
z"/>
<path fill="#F27F5B" opacity="1.000000" stroke="none" 
	d="
M239.769791,118.169067 
	C238.278000,107.357079 244.062088,99.226616 254.119965,97.485001 
	C263.188141,95.914749 272.288818,102.079132 273.888336,110.875175 
	C275.669952,120.672531 270.309509,129.628159 261.398102,131.742523 
	C251.148315,134.174438 242.445175,128.852753 239.769791,118.169067 
M250.138596,106.598022 
	C249.279114,107.808205 248.081665,108.902992 247.621872,110.249641 
	C246.080231,114.764832 246.211380,119.195091 249.994644,122.643761 
	C253.582443,125.914268 257.805908,126.144386 262.004517,123.935738 
	C265.866119,121.904373 267.763062,116.880264 266.733673,112.300011 
	C265.087952,104.977318 258.188385,102.311310 250.138596,106.598022 
z"/>
<path fill="#F37D59" opacity="1.000000" stroke="none" 
	d="
M356.442444,98.208580 
	C358.779297,98.565636 360.717529,98.962852 363.496307,99.532318 
	C366.155975,99.025024 370.023834,98.287277 374.960266,97.345718 
	C374.144135,100.977859 373.654388,103.157379 373.180359,105.267006 
	C363.964874,104.915909 362.053986,106.777802 362.020081,115.707664 
	C362.001770,120.529381 361.974518,125.351097 361.923004,130.172516 
	C361.919891,130.464218 361.665833,130.753235 361.395325,131.325134 
	C359.459686,131.325134 357.401154,131.325134 354.835693,131.325134 
	C354.835693,120.743118 354.813690,110.472504 354.887512,100.202576 
	C354.892212,99.548553 355.641083,98.899887 356.442444,98.208580 
z"/>
<path fill="#F37E5B" opacity="1.000000" stroke="none" 
	d="
M131.446671,58.720615 
	C137.945465,59.518753 141.119537,63.432117 139.386856,68.134331 
	C138.075897,71.692078 135.178558,73.974556 131.708572,72.765663 
	C129.191605,71.888786 126.307785,69.239883 125.550720,66.777550 
	C124.317604,62.766781 127.057449,59.967167 131.446671,58.720615 
z"/>
<path fill="#FDFBF9" opacity="1.000000" stroke="none" 
	d="
M104.197174,96.076797 
	C97.410530,94.335526 93.791451,89.966095 94.309456,84.612030 
	C94.829369,79.238121 99.145775,75.106865 104.489395,74.868713 
	C110.019211,74.622261 114.514420,78.064468 115.656334,83.419815 
	C117.058334,89.994911 112.277298,95.478630 104.197174,96.076797 
z"/>
<path fill="#FDFBF9" opacity="1.000000" stroke="none" 
	d="
M300.764954,106.049942 
	C307.152161,113.166893 305.043945,123.414642 297.198273,125.099777 
	C292.421417,126.125771 288.209167,124.345848 286.107391,120.413231 
	C283.910187,116.302055 284.645020,110.120186 287.719116,106.854279 
	C290.938141,103.434395 295.061737,103.096123 300.764954,106.049942 
z"/>
<path fill="#FDFBF9" opacity="1.000000" stroke="none" 
	d="
M384.599365,121.164978 
	C383.892822,118.927582 383.086700,117.028816 383.006775,115.099953 
	C382.718079,108.135468 387.105225,103.559715 393.397247,103.978058 
	C399.228394,104.365753 403.523163,109.834053 402.745392,115.880692 
	C401.885834,122.563461 396.904633,126.519867 390.539673,125.059280 
	C388.473175,124.585075 386.726105,122.719154 384.599365,121.164978 
z"/>
<path fill="#FDF8F6" opacity="1.000000" stroke="none" 
	d="
M330.726318,104.302826 
	C337.968781,103.758789 339.861298,105.043968 341.505524,111.606323 
	C336.104401,111.606323 330.794861,111.606323 325.204773,111.606323 
	C324.788116,107.767426 327.214661,105.865814 330.726318,104.302826 
z"/>
<path fill="#FDFBF9" opacity="1.000000" stroke="none" 
	d="
M212.291931,106.115051 
	C220.756973,102.236908 227.743210,105.722977 228.276093,113.706627 
	C228.620377,118.864716 226.383987,123.096306 222.125916,124.553467 
	C217.918304,125.993385 213.790848,125.632828 210.775238,121.968750 
	C207.646561,118.167297 207.264984,113.814629 209.464355,109.393890 
	C210.036194,108.244492 211.131134,107.355347 212.291931,106.115051 
z"/>
<path fill="#FDFBF9" opacity="1.000000" stroke="none" 
	d="
M250.443115,106.360504 
	C258.188385,102.311310 265.087952,104.977318 266.733673,112.300011 
	C267.763062,116.880264 265.866119,121.904373 262.004517,123.935738 
	C257.805908,126.144386 253.582443,125.914268 249.994644,122.643761 
	C246.211380,119.195091 246.080231,114.764832 247.621872,110.249641 
	C248.081665,108.902992 249.279114,107.808205 250.443115,106.360504 
z"/>
</svg>