<svg version="1.1" id="Layer_1" xmlns="http://www.w3.org/2000/svg" xmlns:xlink="http://www.w3.org/1999/xlink" x="0px" y="0px"
	 width="100%" viewBox="0 0 1024 1024" enable-background="new 0 0 1024 1024" xml:space="preserve">
<path fill="#000000" opacity="1.000000" stroke="none" 
	d="
M333.571075,658.490051 
	C322.737488,647.765564 318.237915,634.338135 315.948090,620.241516 
	C310.369751,585.900269 320.731384,555.191650 338.227173,526.157776 
	C347.973816,509.983368 360.149414,495.565399 370.723694,479.999054 
	C372.259705,477.737885 374.413147,475.629852 377.300995,476.251373 
	C380.382904,476.914612 379.949890,480.076263 380.342987,482.467743 
	C383.711731,502.960663 383.623962,523.609558 383.153839,544.279541 
	C383.020721,550.134399 381.160248,554.236877 375.559814,557.588074 
	C357.741547,568.249939 349.591583,585.598755 345.402161,605.072327 
	C343.688477,613.038025 342.862335,621.218689 343.298584,629.419495 
	C343.939819,641.472412 354.204712,648.120422 365.534882,643.686340 
	C377.725037,638.915833 384.894379,628.887512 391.292908,618.197266 
	C392.445099,616.272278 392.019958,613.962769 391.961212,611.808044 
	C391.280396,586.829956 390.565765,561.852722 389.886230,536.874573 
	C388.939362,502.070312 387.424988,467.285614 386.447388,432.480255 
	C385.704193,406.020569 384.597504,379.555634 383.430878,353.109558 
	C382.205444,325.330261 381.464111,297.533569 380.099060,269.762115 
	C379.886536,265.439148 381.948425,263.072083 386.110687,262.794098 
	C388.912659,262.606964 392.020203,262.285461 394.529724,263.238586 
	C405.792114,267.516296 416.535980,263.804108 427.356628,261.599915 
	C438.751801,259.278687 449.987366,255.758682 461.835358,257.393707 
	C472.049927,258.803314 474.853943,264.196594 470.279419,273.510010 
	C466.796112,280.601837 462.043610,286.868286 456.678711,292.574890 
	C439.347198,311.010315 431.846191,333.858459 426.246460,357.809113 
	C418.106537,392.624573 414.079285,427.917999 411.969727,463.542786 
	C410.629425,486.176819 409.930420,508.804016 410.369263,531.455627 
	C410.656219,546.266724 411.564026,561.065735 412.190948,575.870361 
	C412.269806,577.732117 412.359711,579.580811 414.478577,580.501526 
	C416.895782,580.179993 417.417542,577.962158 418.306915,576.312988 
	C427.794250,558.720093 436.844971,540.881775 446.714783,523.507935 
	C457.662598,504.236481 470.664581,486.534271 490.117218,474.759521 
	C501.980255,467.578796 514.705200,463.132904 528.764954,462.715210 
	C540.426880,462.368683 548.670532,468.299988 555.733398,476.553528 
	C563.797424,485.977112 568.431885,497.231384 572.115417,508.877411 
	C576.687012,523.331177 579.789734,538.177063 583.461365,552.871460 
	C585.724792,561.929932 588.583496,570.795410 593.460266,578.876770 
	C596.759583,584.344116 601.577148,587.540771 607.757751,588.859741 
	C609.872559,589.311096 611.970764,589.854431 614.053772,590.437256 
	C616.630371,591.158142 620.260986,590.584473 620.548767,594.544617 
	C620.826965,598.373291 619.733643,601.742676 616.027832,603.861511 
	C606.050476,609.566284 596.204712,615.504578 586.168701,621.102661 
	C575.366394,627.127991 564.195435,632.233948 551.706238,633.827881 
	C543.567139,634.866638 540.612061,632.637451 541.095520,624.500122 
	C542.032288,608.732239 543.579346,593.018677 545.295654,577.305786 
	C547.768433,554.667847 550.293518,531.983032 546.652649,509.148193 
	C544.265869,494.178986 530.502441,487.783356 517.509827,496.261536 
	C506.811371,503.242645 501.783081,514.265137 498.557312,525.938293 
	C495.676331,536.363892 493.969818,536.117737 505.896454,538.634766 
	C522.496704,542.138123 529.971436,553.537903 533.429810,569.161072 
	C540.860168,602.728394 533.008789,633.539001 517.150391,662.917175 
	C497.690277,698.967712 470.339081,727.821594 436.395081,750.622437 
	C418.832153,762.419861 401.013184,773.921387 384.203156,786.729004 
	C369.195587,798.163391 357.126099,812.809692 345.588928,827.741089 
	C339.876160,835.134521 334.775757,842.943726 330.074432,851.016235 
	C329.489075,852.021423 328.897369,853.050781 328.139648,853.921997 
	C326.364105,855.963623 323.975616,856.787659 321.387695,856.340881 
	C318.783447,855.891113 318.248810,853.451599 317.882477,851.376953 
	C316.356445,842.735168 318.802551,834.501770 320.996857,826.326965 
	C329.532013,794.529846 347.929291,768.649475 370.126465,745.090881 
	C392.348541,721.505859 417.954956,701.644470 441.782196,679.830994 
	C462.261932,661.082031 480.785583,640.545715 491.641815,614.339783 
	C494.589386,607.224670 496.663910,599.905396 496.864410,592.104980 
	C496.964294,588.219238 495.112762,586.303589 491.617126,585.358398 
	C483.665527,583.208069 477.125214,588.087769 477.347626,596.227600 
	C477.451965,600.045837 478.216614,603.852539 478.226318,607.665588 
	C478.255402,619.090332 471.915222,625.864685 460.531158,627.349854 
	C454.558228,628.129089 448.589996,628.456787 442.596405,628.268494 
	C435.911743,628.058411 429.285278,628.663269 422.667847,629.395447 
	C416.368439,630.092346 411.044556,632.909119 406.002655,636.744690 
	C392.482056,647.030212 379.055237,657.544128 362.555420,662.913574 
	C352.292206,666.253418 342.564056,665.950745 333.571075,658.490051 
z"/>
<path fill="#000000" opacity="1.000000" stroke="none" 
	d="
M650.884521,618.879883 
	C635.421387,635.226562 619.807251,650.931091 604.902222,667.336060 
	C587.717651,686.249939 577.037842,708.593323 568.411316,732.195679 
	C562.871460,747.352844 561.762634,763.385986 559.313293,779.146423 
	C558.406677,784.980225 555.075989,788.576721 550.238098,788.309937 
	C545.556641,788.051758 542.882996,784.497253 542.902344,778.294189 
	C543.000610,746.809814 542.394043,715.334961 541.654968,683.862244 
	C541.541687,679.039673 540.927795,674.222656 540.950012,669.404968 
	C540.971436,664.760437 543.813599,662.115356 548.020264,663.424927 
	C558.896484,666.810547 568.052124,662.238647 576.908813,657.410217 
	C594.880859,647.612488 608.061157,632.572632 619.666077,616.108521 
	C638.077637,589.987976 650.751404,561.080322 659.887451,530.612854 
	C663.264709,519.350098 665.265808,507.298340 659.669434,496.392151 
	C646.226196,470.194153 624.720581,460.137146 595.627441,471.796082 
	C588.994812,474.454041 582.274475,476.879974 576.342468,481.108490 
	C573.486084,483.144592 569.883057,483.107574 566.953735,480.978241 
	C564.018066,478.844360 564.578430,475.745087 565.741089,472.793213 
	C568.652649,465.400787 572.912781,458.812164 578.688599,453.422028 
	C589.645874,443.196411 601.141296,433.618042 613.114563,424.550598 
	C626.789551,414.194366 641.739319,413.774231 657.301453,417.535370 
	C683.608643,423.893433 697.738770,442.460876 705.094177,467.096893 
	C713.665649,495.806000 708.619873,523.413452 697.442810,550.399963 
	C686.700317,576.337097 670.224121,598.366089 650.884521,618.879883 
z"/>
<path fill="#000000" opacity="1.000000" stroke="none" 
	d="
M643.061462,696.940063 
	C636.434875,690.128113 631.041504,689.233093 623.156250,693.786255 
	C614.839722,698.588379 608.462280,705.727722 601.553528,712.221130 
	C599.486145,714.164062 597.677917,717.714478 594.159424,715.600037 
	C591.003906,713.703735 590.502136,710.115173 591.100403,706.667786 
	C592.267090,699.945251 595.630310,694.186157 599.560608,688.750122 
	C611.183472,672.674500 625.563843,659.367371 641.141968,647.229797 
	C665.272217,628.429138 695.794312,642.194153 701.273682,670.670654 
	C703.711609,683.340393 701.466797,695.883179 699.865967,708.406311 
	C695.901367,739.420349 690.261475,770.281860 690.326111,801.677368 
	C690.366028,821.061401 692.855164,840.165039 699.578796,858.541382 
	C702.173584,865.633118 700.266541,871.671387 695.151672,874.240967 
	C691.668640,875.990723 689.052795,875.643005 686.581604,872.242737 
	C681.894287,865.793091 678.932007,858.567444 676.735535,851.061523 
	C669.912537,827.745667 663.035034,804.427856 659.438965,780.321716 
	C657.644104,768.290283 657.688660,756.111206 656.743103,744.009888 
	C655.649109,730.009399 654.079224,716.163086 647.304810,703.521301 
	C646.131836,701.332397 644.633789,699.317688 643.061462,696.940063 
z"/>
<path fill="#000000" opacity="1.000000" stroke="none" 
	d="
M485.665070,422.638855 
	C467.893250,448.840515 450.331787,474.748962 432.749084,500.642975 
	C431.817780,502.014526 430.878082,503.461761 429.644623,504.530151 
	C426.942963,506.870300 423.697296,505.967529 422.474426,502.595642 
	C422.029877,501.369843 421.883209,499.994171 421.823730,498.676819 
	C420.907166,478.380463 420.492188,458.080048 420.727905,437.756592 
	C420.841278,427.981293 423.951385,420.934937 432.202240,414.547607 
	C465.233612,388.976562 493.880157,358.711609 521.871887,327.840149 
	C527.688293,321.425354 533.449585,314.960480 539.285339,308.563416 
	C540.400879,307.340576 541.666260,306.217987 543.001831,305.239410 
	C546.230957,302.873566 549.594177,303.070923 552.735596,305.336243 
	C555.742310,307.504395 556.785583,310.476959 555.633972,314.131805 
	C553.653320,320.417816 549.987061,325.839630 546.432190,331.227295 
	C526.347839,361.666840 506.077789,391.983856 485.665070,422.638855 
z"/>
<path fill="#000000" opacity="1.000000" stroke="none" 
	d="
M440.498352,224.373444 
	C436.883606,230.312698 432.674591,235.164001 426.872650,238.472366 
	C422.545685,240.939682 418.240265,241.315903 413.565674,239.160080 
	C399.057587,232.469299 393.635864,220.498215 394.169861,205.037903 
	C394.667999,190.615326 399.096436,176.922089 405.318909,163.920197 
	C410.137573,153.851532 420.210846,148.524872 429.623077,150.516876 
	C433.956543,151.433990 437.148651,153.887344 439.660706,157.373489 
	C447.017090,167.582443 448.871704,179.420029 448.778778,191.488495 
	C448.691162,202.862244 446.412384,213.954086 440.498352,224.373444 
z"/>
<path fill="#000000" opacity="1.000000" stroke="none" 
	d="
M584.018066,431.734741 
	C580.644043,445.798096 573.665710,456.244324 559.375183,460.250458 
	C551.499756,462.458252 543.825989,461.477356 536.580322,457.951202 
	C529.945801,454.722504 527.108582,448.732697 526.719849,441.719147 
	C525.911011,427.127197 530.361511,413.704193 537.678711,401.432007 
	C545.144714,388.910156 564.864685,385.445282 576.522522,393.936768 
	C585.116516,400.196564 585.955261,409.497070 585.685486,418.995941 
	C585.568481,423.115875 584.658386,427.213318 584.018066,431.734741 
z"/>
<path fill="#000000" opacity="1.000000" stroke="none" 
	d="
M608.929932,249.528000 
	C603.299194,267.981476 592.080200,282.208374 579.108276,295.485291 
	C572.887878,301.851929 558.345337,298.140228 555.425293,290.451233 
	C549.313354,274.356995 552.500366,259.550446 560.023132,245.252808 
	C565.546509,234.755280 573.480530,226.278839 584.526428,221.115158 
	C598.622253,214.525711 609.030396,220.605911 610.207947,236.243973 
	C610.536011,240.600769 610.049011,244.891449 608.929932,249.528000 
z"/>
</svg>