<?xml version="1.0" encoding="UTF-8" standalone="no"?>
<svg xmlns:svg="http://www.w3.org/2000/svg"
     xmlns="http://www.w3.org/2000/svg" version="1.1"
     width="360" height="185">
    <!-- Created with the Wikimedia parliament diagram creator (http://parliamentdiagram.toolforge.org/parliamentinputform.html) -->
    <g>
        <text x="180" y="175" 
              style="font-size:36px;font-weight:bold;text-align:center;text-anchor:middle;font-family:sans-serif">250</text>
        <g style="fill:#1B67A2; stroke-width:0.44; stroke:#000000" 
           id="0_Party-1"> 
            <title>Party 1</title>            <circle cx="10.61" cy="175.56" r="4.22"/> 
            <circle cx="21.73" cy="175.56" r="4.22"/> 
            <circle cx="32.84" cy="175.56" r="4.22"/> 
            <circle cx="43.96" cy="175.56" r="4.22"/> 
            <circle cx="55.08" cy="175.56" r="4.22"/> 
            <circle cx="66.20" cy="175.56" r="4.22"/> 
            <circle cx="77.32" cy="175.56" r="4.22"/> 
            <circle cx="88.44" cy="175.56" r="4.22"/> 
            <circle cx="99.57" cy="175.56" r="4.22"/> 
            <circle cx="11.57" cy="161.45" r="4.22"/> 
            <circle cx="22.78" cy="161.23" r="4.22"/> 
            <circle cx="33.95" cy="161.43" r="4.22"/> 
            <circle cx="45.20" cy="161.18" r="4.22"/> 
            <circle cx="56.39" cy="161.41" r="4.22"/> 
            <circle cx="67.69" cy="161.11" r="4.22"/> 
            <circle cx="78.92" cy="161.39" r="4.22"/> 
            <circle cx="13.71" cy="147.47" r="4.22"/> 
            <circle cx="90.32" cy="161.01" r="4.22"/> 
            <circle cx="25.13" cy="147.06" r="4.22"/> 
            <circle cx="36.42" cy="147.48" r="4.22"/> 
            <circle cx="101.63" cy="161.36" r="4.22"/> 
            <circle cx="47.95" cy="147.01" r="4.22"/> 
            <circle cx="59.30" cy="147.50" r="4.22"/> 
            <circle cx="17.00" cy="133.71" r="4.22"/> 
            <circle cx="71.01" cy="146.96" r="4.22"/> 
            <circle cx="28.75" cy="133.16" r="4.22"/> 
            <circle cx="40.21" cy="133.82" r="4.22"/> 
            <circle cx="82.47" cy="147.58" r="4.22"/> 
            <circle cx="52.18" cy="133.21" r="4.22"/> 
            <circle cx="21.43" cy="120.28" r="4.22"/> 
            <circle cx="94.50" cy="146.94" r="4.22"/> 
            <circle cx="63.77" cy="134.02" r="4.22"/> 
            <circle cx="33.62" cy="119.65" r="4.22"/> 
            <circle cx="106.18" cy="147.76" r="4.22"/> 
            <circle cx="45.29" cy="120.60" r="4.22"/> 
            <circle cx="76.10" cy="133.36" r="4.22"/> 
            <circle cx="26.96" cy="107.26" r="4.22"/> 
            <circle cx="57.85" cy="119.94" r="4.22"/> 
            <circle cx="87.90" cy="134.39" r="4.22"/> 
            <circle cx="39.69" cy="106.63" r="4.22"/> 
            <circle cx="69.73" cy="121.12" r="4.22"/> 
            <circle cx="51.63" cy="107.92" r="4.22"/> 
            <circle cx="33.56" cy="94.75" r="4.22"/> 
            <circle cx="100.87" cy="133.72" r="4.22"/> 
            <circle cx="82.88" cy="120.51" r="4.22"/> 
            <circle cx="64.90" cy="107.35" r="4.22"/> 
            <circle cx="46.92" cy="94.22" r="4.22"/> 
            <circle cx="113.07" cy="135.18" r="4.22"/> 
            <circle cx="95.10" cy="122.08" r="4.22"/> 
            <circle cx="77.13" cy="108.99" r="4.22"/> 
            <circle cx="59.15" cy="95.91" r="4.22"/> 
            <circle cx="41.18" cy="82.84" r="4.22"/> 
            <circle cx="55.24" cy="82.51" r="4.22"/> 
            <circle cx="73.24" cy="95.57" r="4.22"/> 
            <circle cx="91.25" cy="108.63" r="4.22"/> 
            <circle cx="109.27" cy="121.69" r="4.22"/> 
            <circle cx="49.77" cy="71.60" r="4.22"/> 
            <circle cx="67.80" cy="84.68" r="4.22"/> 
            <circle cx="85.85" cy="97.78" r="4.22"/> 
            <circle cx="103.93" cy="110.88" r="4.22"/> 
            <circle cx="64.59" cy="71.60" r="4.22"/> 
            <circle cx="122.08" cy="124.02" r="4.22"/> 
            <circle cx="82.78" cy="84.74" r="4.22"/> 
            <circle cx="59.26" cy="61.12" r="4.22"/> 
            <circle cx="77.48" cy="74.34" r="4.22"/> 
            <circle cx="101.05" cy="97.91" r="4.22"/> 
            <circle cx="95.79" cy="87.62" r="4.22"/> 
            <circle cx="74.89" cy="61.59" r="4.22"/> 
            <circle cx="119.48" cy="111.15" r="4.22"/> 
            <circle cx="69.59" cy="51.46" r="4.22"/> 
            <circle cx="114.23" cy="101.02" r="4.22"/> 
            <circle cx="93.41" cy="74.98" r="4.22"/> 
            <circle cx="88.11" cy="64.97" r="4.22"/> 
            <circle cx="112.15" cy="88.53" r="4.22"/> 
            <circle cx="86.05" cy="52.55" r="4.22"/> 
            <circle cx="80.70" cy="42.70" r="4.22"/> 
            <circle cx="106.82" cy="78.66" r="4.22"/> 
            <circle cx="132.93" cy="114.63" r="4.22"/> 
            <circle cx="105.02" cy="66.41" r="4.22"/> 
            <circle cx="99.60" cy="56.67" r="4.22"/> 
            <circle cx="131.24" cy="102.38" r="4.22"/> 
            <circle cx="125.80" cy="92.68" r="4.22"/> 
            <circle cx="97.99" cy="44.56" r="4.22"/> 
            <circle cx="92.49" cy="34.90" r="4.22"/> 
            <circle cx="118.79" cy="71.01" r="4.22"/> 
            <circle cx="124.34" cy="80.64" r="4.22"/> 
            <circle cx="111.83" cy="49.51" r="4.22"/> 
            <circle cx="117.47" cy="59.10" r="4.22"/> 
            <circle cx="104.90" cy="28.11" r="4.22"/> 
            <circle cx="110.60" cy="37.69" r="4.22"/> 
            <circle cx="145.27" cy="107.32" r="4.22"/> 
            <circle cx="138.41" cy="86.01" r="4.22"/> 
            <circle cx="144.25" cy="95.59" r="4.22"/> 
            <circle cx="131.55" cy="64.77" r="4.22"/> 
            <circle cx="124.69" cy="43.56" r="4.22"/> 
            <circle cx="137.44" cy="74.36" r="4.22"/> 
            <circle cx="117.83" cy="22.37" r="4.22"/> 
            <circle cx="130.62" cy="53.16" r="4.22"/> 
            <circle cx="123.78" cy="31.98" r="4.22"/> 
            <circle cx="131.19" cy="17.74" r="4.22"/> 
            <circle cx="138.06" cy="38.88" r="4.22"/> 
            <circle cx="144.94" cy="60.02" r="4.22"/> 
            <circle cx="151.82" cy="81.16" r="4.22"/> 
            <circle cx="137.42" cy="27.50" r="4.22"/> 
            <circle cx="158.71" cy="102.31" r="4.22"/> 
            <circle cx="144.33" cy="48.65" r="4.22"/> 
            <circle cx="151.24" cy="69.80" r="4.22"/> 
            <circle cx="158.18" cy="90.97" r="4.22"/> 
            <circle cx="144.89" cy="14.23" r="4.22"/> 
            <circle cx="151.82" cy="35.50" r="4.22"/> 
            <circle cx="151.42" cy="24.27" r="4.22"/> 
            <circle cx="158.78" cy="56.81" r="4.22"/> 
            <circle cx="158.43" cy="45.61" r="4.22"/> 
            <circle cx="165.77" cy="78.21" r="4.22"/> 
            <circle cx="165.50" cy="67.04" r="4.22"/> 
            <circle cx="158.83" cy="11.88" r="4.22"/> 
            <circle cx="165.85" cy="33.46" r="4.22"/> 
            <circle cx="165.65" cy="22.32" r="4.22"/> 
            <circle cx="172.83" cy="99.76" r="4.22"/> 
            <circle cx="172.66" cy="88.63" r="4.22"/> 
            <circle cx="172.90" cy="55.20" r="4.22"/> 
            <circle cx="172.78" cy="44.08" r="4.22"/> 
            <circle cx="172.93" cy="10.70" r="4.22"/> 
            <circle cx="180.00" cy="21.67" r="4.22"/> 
            <circle cx="180.00" cy="32.78" r="4.22"/> 
            <circle cx="180.00" cy="66.11" r="4.22"/> 
            <circle cx="180.00" cy="77.22" r="4.22"/> 
            <circle cx="187.07" cy="10.70" r="4.22"/> 
            <circle cx="187.22" cy="44.08" r="4.22"/> 
            <circle cx="187.10" cy="55.20" r="4.22"/> 
            <circle cx="187.34" cy="88.63" r="4.22"/> 
            <circle cx="187.17" cy="99.76" r="4.22"/> 
            <circle cx="194.35" cy="22.32" r="4.22"/> 
            <circle cx="194.15" cy="33.46" r="4.22"/> 
        </g>
        <g style="fill:#FF8800; stroke-width:0.44; stroke:#000000" 
           id="1_Party-2"> 
            <title>Party 2</title>            <circle cx="201.17" cy="11.88" r="4.22"/> 
            <circle cx="194.50" cy="67.04" r="4.22"/> 
            <circle cx="194.23" cy="78.21" r="4.22"/> 
            <circle cx="201.57" cy="45.61" r="4.22"/> 
            <circle cx="201.22" cy="56.81" r="4.22"/> 
            <circle cx="208.58" cy="24.27" r="4.22"/> 
            <circle cx="208.18" cy="35.50" r="4.22"/> 
            <circle cx="215.11" cy="14.23" r="4.22"/> 
            <circle cx="201.82" cy="90.97" r="4.22"/> 
            <circle cx="208.76" cy="69.80" r="4.22"/> 
            <circle cx="215.67" cy="48.65" r="4.22"/> 
            <circle cx="201.29" cy="102.31" r="4.22"/> 
            <circle cx="222.58" cy="27.50" r="4.22"/> 
            <circle cx="208.18" cy="81.16" r="4.22"/> 
            <circle cx="215.06" cy="60.02" r="4.22"/> 
            <circle cx="221.94" cy="38.88" r="4.22"/> 
            <circle cx="228.81" cy="17.74" r="4.22"/> 
            <circle cx="236.22" cy="31.98" r="4.22"/> 
            <circle cx="229.38" cy="53.16" r="4.22"/> 
            <circle cx="242.17" cy="22.37" r="4.22"/> 
            <circle cx="222.56" cy="74.36" r="4.22"/> 
            <circle cx="235.31" cy="43.56" r="4.22"/> 
            <circle cx="228.45" cy="64.77" r="4.22"/> 
            <circle cx="215.75" cy="95.59" r="4.22"/> 
            <circle cx="221.59" cy="86.01" r="4.22"/> 
            <circle cx="214.73" cy="107.32" r="4.22"/> 
            <circle cx="249.40" cy="37.69" r="4.22"/> 
            <circle cx="255.10" cy="28.11" r="4.22"/> 
            <circle cx="242.53" cy="59.10" r="4.22"/> 
            <circle cx="248.17" cy="49.51" r="4.22"/> 
            <circle cx="235.66" cy="80.64" r="4.22"/> 
            <circle cx="241.21" cy="71.01" r="4.22"/> 
            <circle cx="267.51" cy="34.90" r="4.22"/> 
            <circle cx="262.01" cy="44.56" r="4.22"/> 
            <circle cx="234.20" cy="92.68" r="4.22"/> 
            <circle cx="228.76" cy="102.38" r="4.22"/> 
            <circle cx="260.40" cy="56.67" r="4.22"/> 
            <circle cx="254.98" cy="66.41" r="4.22"/> 
            <circle cx="227.07" cy="114.63" r="4.22"/> 
            <circle cx="253.18" cy="78.66" r="4.22"/> 
            <circle cx="279.30" cy="42.70" r="4.22"/> 
            <circle cx="273.95" cy="52.55" r="4.22"/> 
            <circle cx="247.85" cy="88.53" r="4.22"/> 
            <circle cx="271.89" cy="64.97" r="4.22"/> 
            <circle cx="266.59" cy="74.98" r="4.22"/> 
            <circle cx="245.77" cy="101.02" r="4.22"/> 
            <circle cx="290.41" cy="51.46" r="4.22"/> 
            <circle cx="240.52" cy="111.15" r="4.22"/> 
            <circle cx="285.11" cy="61.59" r="4.22"/> 
            <circle cx="264.21" cy="87.62" r="4.22"/> 
            <circle cx="258.95" cy="97.91" r="4.22"/> 
            <circle cx="282.52" cy="74.34" r="4.22"/> 
            <circle cx="300.74" cy="61.12" r="4.22"/> 
            <circle cx="277.22" cy="84.74" r="4.22"/> 
            <circle cx="237.92" cy="124.02" r="4.22"/> 
            <circle cx="295.41" cy="71.60" r="4.22"/> 
            <circle cx="256.07" cy="110.88" r="4.22"/> 
            <circle cx="274.15" cy="97.78" r="4.22"/> 
            <circle cx="292.20" cy="84.68" r="4.22"/> 
            <circle cx="310.23" cy="71.60" r="4.22"/> 
            <circle cx="250.73" cy="121.69" r="4.22"/> 
            <circle cx="268.75" cy="108.63" r="4.22"/> 
            <circle cx="286.76" cy="95.57" r="4.22"/> 
            <circle cx="304.76" cy="82.51" r="4.22"/> 
            <circle cx="318.82" cy="82.84" r="4.22"/> 
            <circle cx="300.85" cy="95.91" r="4.22"/> 
            <circle cx="282.87" cy="108.99" r="4.22"/> 
            <circle cx="264.90" cy="122.08" r="4.22"/> 
            <circle cx="246.93" cy="135.18" r="4.22"/> 
            <circle cx="313.08" cy="94.22" r="4.22"/> 
            <circle cx="295.10" cy="107.35" r="4.22"/> 
            <circle cx="277.12" cy="120.51" r="4.22"/> 
            <circle cx="259.13" cy="133.72" r="4.22"/> 
            <circle cx="326.44" cy="94.75" r="4.22"/> 
            <circle cx="308.37" cy="107.92" r="4.22"/> 
            <circle cx="290.27" cy="121.12" r="4.22"/> 
            <circle cx="320.31" cy="106.63" r="4.22"/> 
            <circle cx="272.10" cy="134.39" r="4.22"/> 
            <circle cx="302.15" cy="119.94" r="4.22"/> 
            <circle cx="333.04" cy="107.26" r="4.22"/> 
            <circle cx="283.90" cy="133.36" r="4.22"/> 
            <circle cx="314.71" cy="120.60" r="4.22"/> 
            <circle cx="253.82" cy="147.76" r="4.22"/> 
            <circle cx="326.38" cy="119.65" r="4.22"/> 
            <circle cx="296.23" cy="134.02" r="4.22"/> 
            <circle cx="265.50" cy="146.94" r="4.22"/> 
            <circle cx="338.57" cy="120.28" r="4.22"/> 
            <circle cx="307.82" cy="133.21" r="4.22"/> 
            <circle cx="277.53" cy="147.58" r="4.22"/> 
            <circle cx="319.79" cy="133.82" r="4.22"/> 
            <circle cx="331.25" cy="133.16" r="4.22"/> 
            <circle cx="288.99" cy="146.96" r="4.22"/> 
            <circle cx="343.00" cy="133.71" r="4.22"/> 
            <circle cx="300.70" cy="147.50" r="4.22"/> 
            <circle cx="312.05" cy="147.01" r="4.22"/> 
            <circle cx="258.37" cy="161.36" r="4.22"/> 
            <circle cx="323.58" cy="147.48" r="4.22"/> 
            <circle cx="334.87" cy="147.06" r="4.22"/> 
            <circle cx="269.68" cy="161.01" r="4.22"/> 
            <circle cx="346.29" cy="147.47" r="4.22"/> 
            <circle cx="281.08" cy="161.39" r="4.22"/> 
            <circle cx="292.31" cy="161.11" r="4.22"/> 
            <circle cx="303.61" cy="161.41" r="4.22"/> 
            <circle cx="314.80" cy="161.18" r="4.22"/> 
        </g>
        <g style="fill:#00BBFF; stroke-width:0.44; stroke:#000000" 
           id="2_Party-3"> 
            <title>Party 3</title>            <circle cx="326.05" cy="161.43" r="4.22"/> 
            <circle cx="337.22" cy="161.23" r="4.22"/> 
            <circle cx="348.43" cy="161.45" r="4.22"/> 
            <circle cx="260.43" cy="175.56" r="4.22"/> 
            <circle cx="271.56" cy="175.56" r="4.22"/> 
            <circle cx="282.68" cy="175.56" r="4.22"/> 
            <circle cx="293.80" cy="175.56" r="4.22"/> 
            <circle cx="304.92" cy="175.56" r="4.22"/> 
            <circle cx="316.04" cy="175.56" r="4.22"/> 
        </g>
        <g style="fill:#CDCDCD; stroke-width:0.44; stroke:#000000" 
           id="3_Party-4"> 
            <title>Party 4</title>            <circle cx="327.16" cy="175.56" r="4.22"/> 
            <circle cx="338.27" cy="175.56" r="4.22"/> 
            <circle cx="349.39" cy="175.56" r="4.22"/> 
        </g>
    </g>
</svg>
