<svg version="1.1" id="Layer_1" xmlns="http://www.w3.org/2000/svg" xmlns:xlink="http://www.w3.org/1999/xlink" x="0px" y="0px"
	 width="100%" viewBox="0 0 341 341" enable-background="new 0 0 341 341" xml:space="preserve">
<path fill="none" opacity="1.000000" stroke="#000000" stroke-linecap="round" stroke-linejoin="round" stroke-width="3.000000"
	d="
M71.000000,224.500000 
	C75.692818,222.061462 78.634239,215.143433 76.849426,209.044067 
	C76.163956,206.701569 76.184731,203.942062 74.044296,201.952347 
	C71.193146,199.301956 68.636879,199.336060 66.500008,202.500000 
	C63.990410,206.215790 64.834839,219.121948 67.388206,223.072266 
	C68.294907,224.475037 69.706200,224.024033 70.500000,225.000000 
"/>
<path fill="none" opacity="1.000000" stroke="#000000" stroke-linecap="round" stroke-linejoin="round" stroke-width="3.000000"
	d="
M53.500000,225.000000 
	C59.266380,220.216156 61.064575,208.913193 56.999992,203.000000 
	C54.226021,198.964401 50.585716,198.798950 48.594318,203.044250 
	C46.385376,207.753296 46.806068,212.873657 47.394230,218.012100 
	C47.828503,221.806122 50.305378,223.343399 53.000000,225.000000 
"/>
<path fill="none" opacity="1.000000" stroke="#000000" stroke-linecap="round" stroke-linejoin="round" stroke-width="4.000000"
	d="
M40.500000,208.500000 
	C40.333332,206.666672 40.617451,204.617722 39.872803,203.060837 
	C39.132999,201.514084 37.527561,199.912476 35.505043,200.066315 
	C32.891457,200.265121 31.294901,202.200455 30.544954,204.514572 
	C29.007957,209.257278 28.180590,214.069824 29.978054,219.007980 
	C31.483553,223.143997 34.277351,225.436829 37.000004,224.500015 
	C40.770630,223.202621 41.387146,220.983139 39.500000,215.500000 
"/>
<path fill="none" opacity="1.000000" stroke="#000000" stroke-linecap="round" stroke-linejoin="round" stroke-width="4.000000"
	d="
M192.500000,128.000000 
	C191.455032,126.731041 190.094574,126.468033 188.499908,126.474113 
	C176.166748,126.521072 163.833252,126.521072 151.500092,126.474113 
	C149.905426,126.468033 148.544968,126.731041 147.500000,128.000000 
"/>
<path fill="none" opacity="1.000000" stroke="#000000" stroke-linecap="round" stroke-linejoin="round" stroke-width="4.000000"
	d="
M103.500000,126.000000 
	C108.971649,127.102234 114.500893,126.359726 120.000687,126.463898 
	C127.598274,126.607796 127.396782,126.587578 130.572662,133.968735 
	C132.636917,138.766342 132.720825,143.776825 131.820129,148.465454 
	C130.316269,156.294006 123.938812,158.525528 115.500000,155.000000 
"/>
<path fill="none" opacity="1.000000" stroke="#000000" stroke-linecap="round" stroke-linejoin="round" stroke-width="6.000000"
	d="
M139.500000,175.500000 
	C139.596451,177.894730 142.568970,180.780762 138.488373,182.471939 
	C135.430008,183.739426 131.111557,183.412155 128.974747,180.518646 
	C127.308456,178.262268 127.934288,176.332291 129.513412,174.511627 
	C132.939545,170.561478 140.752182,169.209579 145.511719,171.475388 
	C150.464340,173.833084 154.703400,177.078506 158.519928,180.980515 
	C160.743820,183.254227 163.144714,185.357635 165.507233,187.491989 
	C167.267776,189.082520 169.383469,189.099564 171.493576,188.478195 
	C174.016617,187.735214 174.178879,185.672775 174.000000,183.500000 
"/>
<path fill="none" opacity="1.000000" stroke="#000000" stroke-linecap="round" stroke-linejoin="round" stroke-width="9.000000"
	d="
M146.000000,129.000000 
	C146.000000,138.166672 146.379913,147.354904 145.861023,156.492111 
	C145.536987,162.198090 147.116669,165.984787 152.500000,168.000000 
"/>
<path fill="none" opacity="1.000000" stroke="#000000" stroke-linecap="round" stroke-linejoin="round" stroke-width="4.000000"
	d="
M192.500000,212.500000 
	C192.491135,210.685989 192.802994,208.775772 190.794876,207.367676 
	C188.948853,208.213287 186.922882,208.913788 186.489532,211.498245 
	C185.895081,215.043488 185.364410,218.693222 187.076416,221.959946 
	C188.632706,224.929520 190.978851,224.368057 194.500000,220.500000 
"/>
<path fill="none" opacity="1.000000" stroke="#000000" stroke-linecap="round" stroke-linejoin="round" stroke-width="3.000000"
	d="
M184.500000,253.000000 
	C188.279160,251.867493 189.734406,249.006958 188.819611,245.547699 
	C188.425873,244.058868 187.222656,241.870682 184.498764,241.906845 
	C182.608917,241.931931 181.278625,242.643661 180.566772,244.034180 
	C179.525650,246.067947 179.472794,248.473068 180.594833,250.446060 
	C181.238037,251.577087 182.833344,252.166656 184.000000,253.000000 
"/>
<path fill="none" opacity="1.000000" stroke="#000000" stroke-linecap="round" stroke-linejoin="round" stroke-width="7.000000"
	d="
M164.000000,143.500000 
	C163.459839,142.014420 162.919678,140.528839 162.387833,139.066132 
	C164.001099,138.168533 165.415680,136.904633 167.017426,136.588226 
	C170.494598,135.901382 173.030228,136.899307 175.135147,140.419189 
	C179.016037,146.908936 183.022781,152.923874 179.605698,161.044479 
	C178.200516,164.383835 176.115265,164.955734 173.001907,165.057999 
	C167.309738,165.244965 161.834824,164.423538 156.500000,162.500000 
"/>
<path fill="none" opacity="1.000000" stroke="#000000" stroke-linecap="round" stroke-linejoin="round" stroke-width="3.000000"
	d="
M221.500000,253.000000 
	C225.199707,251.095932 227.437531,247.337585 225.943970,245.036362 
	C224.514297,242.833557 222.360413,241.115280 219.523071,242.068665 
	C217.179672,242.856079 215.916382,248.422577 217.553299,250.457123 
	C218.418762,251.532791 219.833344,252.166656 221.000000,253.000000 
"/>
<path fill="none" opacity="1.000000" stroke="#000000" stroke-linecap="round" stroke-linejoin="round" stroke-width="3.000000"
	d="
M172.000000,252.500000 
	C175.266037,250.737061 177.391296,247.047333 175.915115,245.063156 
	C174.791443,243.552765 173.645828,241.664474 170.992325,241.920380 
	C168.811600,242.130692 167.375183,243.418411 167.137787,245.020416 
	C166.782913,247.415421 166.096741,250.325806 169.009171,251.983902 
	C169.781830,252.423813 170.666672,252.666656 171.500000,252.999985 
"/>
<path fill="none" opacity="1.000000" stroke="#000000" stroke-linecap="round" stroke-linejoin="round" stroke-width="4.000000"
	d="
M80.500000,200.500000 
	C82.913040,201.170700 84.433937,202.675446 85.547966,204.976776 
	C88.642593,211.369553 93.163445,217.129608 94.000000,224.500000 
"/>
<path fill="none" opacity="1.000000" stroke="#000000" stroke-linecap="round" stroke-linejoin="round" stroke-width="8.000000"
	d="
M193.500000,128.500000 
	C193.500000,138.666672 193.443710,148.833755 193.520493,158.999847 
	C193.568817,165.398346 195.843918,167.993164 201.500000,168.500000 
"/>
<path fill="none" opacity="1.000000" stroke="#000000" stroke-linecap="round" stroke-linejoin="round" stroke-width="4.000000"
	d="
M106.500000,202.500000 
	C106.500000,207.500000 106.506126,212.500015 106.496399,217.500000 
	C106.493347,219.068283 106.319733,220.500946 105.614342,222.052002 
	C104.692642,224.078659 103.344406,224.737930 101.507881,224.449768 
	C99.098648,224.071747 100.818756,221.955383 100.333984,221.093369 
	C99.394592,219.422958 101.507286,217.851044 100.000000,216.500000 
"/>
<path fill="none" opacity="1.000000" stroke="#000000" stroke-linecap="round" stroke-linejoin="round" stroke-width="2.000000"
	d="
M135.500000,251.500000 
	C132.899902,249.460464 133.423721,246.066742 132.110291,243.444748 
	C131.667786,242.561386 131.718353,241.528061 130.500000,241.528061 
	C129.281647,241.528061 129.385452,242.777573 128.883560,243.407196 
	C127.175957,245.549484 128.012100,248.600418 126.000000,250.500000 
"/>
<path fill="none" opacity="1.000000" stroke="#000000" stroke-linecap="round" stroke-linejoin="round" stroke-width="3.000000"
	d="
M154.500000,255.500000 
	C159.958878,258.757538 162.446075,257.568512 162.449844,251.499969 
	C162.451508,248.828842 164.662781,245.814240 161.500412,243.499435 
	C159.827393,242.274811 158.088364,241.050995 156.014206,242.520065 
	C153.543488,244.270020 153.584702,247.062225 154.109375,249.476227 
	C154.684952,252.124390 157.171936,252.337601 159.494965,251.968307 
	C160.359436,251.830887 161.166656,251.333313 162.000000,250.999985 
"/>
<path fill="none" opacity="1.000000" stroke="#000000" stroke-linecap="round" stroke-linejoin="round" stroke-width="3.000000"
	d="
M135.000000,222.000000 
	C136.117981,219.713486 138.883270,218.599319 139.458725,215.990891 
	C139.852707,214.205109 140.074234,212.467514 139.684708,210.464081 
	C139.253204,208.244873 137.760742,207.453400 136.530411,207.671555 
	C135.043884,207.935120 132.891556,208.965225 134.441452,211.535309 
	C134.691818,211.950485 134.166672,212.833328 134.000000,213.500000 
"/>
<path fill="none" opacity="1.000000" stroke="#000000" stroke-linecap="round" stroke-linejoin="round" stroke-width="4.000000"
	d="
M201.750000,209.500000 
	C202.892029,211.506454 200.764618,211.684052 199.968079,212.467545 
	C196.864151,215.520615 196.425003,220.325668 199.546677,222.944366 
	C202.881363,225.741760 204.828430,223.186264 206.500000,220.500000 
"/>
<path fill="none" opacity="1.000000" stroke="#000000" stroke-linecap="round" stroke-linejoin="round" stroke-width="3.000000"
	d="
M245.000000,243.000000 
	C240.000275,241.388031 235.995270,243.818924 237.079559,247.979263 
	C237.664261,250.222672 238.639679,252.431732 242.008911,252.087036 
	C245.438705,251.736145 246.316162,249.974411 245.993500,247.000702 
	C245.866455,245.829742 245.666672,244.666672 245.500000,243.500000 
"/>
<path fill="none" opacity="1.000000" stroke="#000000" stroke-linecap="round" stroke-linejoin="round" stroke-width="5.000000"
	d="
M192.500000,138.000000 
	C189.166672,137.500000 185.779282,137.224197 182.515121,136.437302 
	C179.214264,135.641556 176.116913,135.887924 173.000000,137.000000 
"/>
<path fill="none" opacity="1.000000" stroke="#000000" stroke-linecap="round" stroke-linejoin="round" stroke-width="4.000000"
	d="
M262.000000,212.000000 
	C258.217010,211.117081 257.060760,213.745605 256.581055,216.514038 
	C256.105896,219.256470 256.352173,222.029938 259.490784,223.519455 
	C262.878387,225.127075 264.050629,222.601288 265.500000,220.500000 
"/>
<path fill="none" opacity="1.000000" stroke="#000000" stroke-linecap="round" stroke-linejoin="round" stroke-width="4.000000"
	d="
M244.500000,223.000000 
	C243.823410,218.168030 246.106003,212.927902 242.726227,208.296249 
	C240.656082,209.130722 238.846237,209.860275 237.000000,210.604492 
	C237.000000,214.500000 237.000000,218.500000 237.000000,222.500000 
"/>
<path fill="none" opacity="1.000000" stroke="#000000" stroke-linecap="round" stroke-linejoin="round" stroke-width="5.000000"
	d="
M312.500031,204.500000 
	C312.333344,209.500000 312.136871,214.499252 312.011139,219.500275 
	C311.934784,222.537735 313.065796,224.342636 316.500000,223.500000 
"/>
<path fill="none" opacity="1.000000" stroke="#000000" stroke-linecap="round" stroke-linejoin="round" stroke-width="3.000000"
	d="
M206.000000,241.500000 
	C206.000000,245.666672 205.948318,249.834259 206.023697,253.999573 
	C206.057022,255.841476 205.949585,257.346863 203.500000,257.000000 
"/>
<path fill="none" opacity="1.000000" stroke="#000000" stroke-linecap="round" stroke-linejoin="round" stroke-width="4.000000"
	d="
M144.500000,128.000000 
	C139.076782,125.299744 133.546082,126.145882 128.000000,127.500000 
"/>
<path fill="none" opacity="1.000000" stroke="#000000" stroke-linecap="round" stroke-linejoin="round" stroke-width="2.000000"
	d="
M84.000000,206.500000 
	C82.889412,211.971390 83.794319,217.503876 83.500000,223.000000 
"/>
<path fill="none" opacity="1.000000" stroke="#000000" stroke-linecap="round" stroke-linejoin="round" stroke-width="4.000000"
	d="
M232.500000,224.000000 
	C230.464981,224.035019 229.045563,223.756134 229.423218,220.989517 
	C229.780548,218.371628 229.457321,215.665802 229.512054,213.000244 
	C229.566406,210.353760 229.505112,207.543335 226.001099,207.587204 
	C222.726746,207.628189 223.657944,210.497192 223.503571,212.500275 
	C223.478027,212.831635 223.500000,213.166672 223.500000,213.500000 
"/>
<path fill="none" opacity="1.000000" stroke="#000000" stroke-linecap="round" stroke-linejoin="round" stroke-width="3.000000"
	d="
M201.000000,252.500000 
	C201.000000,250.333328 200.936295,248.164307 201.016739,246.000626 
	C201.109711,243.499573 200.188324,241.825073 197.504181,242.049973 
	C195.185440,242.244247 192.937500,242.884277 192.992630,246.000137 
	C193.030945,248.166122 193.000000,250.333328 193.000000,252.500000 
"/>
<path fill="none" opacity="1.000000" stroke="#000000" stroke-linecap="round" stroke-linejoin="round" stroke-width="3.000000"
	d="
M152.000015,97.500000 
	C152.166672,97.000000 152.501953,96.490181 152.473495,96.001541 
	C152.233322,91.878731 152.593262,90.946945 154.467392,91.594391 
	C156.516815,92.302414 157.715652,93.837517 157.591736,96.504265 
	C157.379120,101.080467 154.829071,105.011833 154.500000,109.500000 
"/>
<path fill="none" opacity="1.000000" stroke="#000000" stroke-linecap="round" stroke-linejoin="round" stroke-width="3.000000"
	d="
M284.000000,202.500000 
	C283.260040,201.266632 284.077759,198.952576 281.499878,198.990936 
	C279.026581,199.027756 279.012268,200.678146 278.972198,202.499390 
	C278.931824,204.335495 278.666687,206.166672 278.500000,208.000000 
"/>
<path fill="none" opacity="1.000000" stroke="#000000" stroke-linecap="round" stroke-linejoin="round" stroke-width="2.000000"
	d="
M94.500000,202.000000 
	C94.204163,206.828873 95.096985,211.698746 94.000000,216.500000 
"/>
<path fill="none" opacity="1.000000" stroke="#000000" stroke-linecap="round" stroke-linejoin="round" stroke-width="3.000000"
	d="
M228.500000,215.000000 
	C225.717148,214.674561 224.486771,216.834427 223.018936,218.516525 
	C221.635483,220.101898 222.667084,221.661667 223.541824,222.972076 
	C224.526779,224.447617 225.833328,224.354233 227.000000,223.000000 
"/>
<path fill="none" opacity="1.000000" stroke="#000000" stroke-linecap="round" stroke-linejoin="round" stroke-width="4.000000"
	d="
M275.000000,202.500000 
	C275.642090,200.928955 276.075714,199.852722 273.527405,199.358643 
	C271.603271,198.985565 271.577606,200.064789 270.998260,200.998932 
	C269.640381,203.188477 271.363281,205.813797 270.000000,208.000000 
"/>
<path fill="none" opacity="1.000000" stroke="#000000" stroke-linecap="round" stroke-linejoin="round" stroke-width="9.000000"
	d="
M108.000000,142.500000 
	C108.035172,144.493668 109.896217,145.345245 111.056847,145.875610 
	C115.319664,147.823593 113.981369,151.943573 114.828514,155.046814 
	C115.391075,157.107544 112.667885,157.856857 111.000000,158.750000 
"/>
<path fill="none" opacity="1.000000" stroke="#000000" stroke-linecap="round" stroke-linejoin="round" stroke-width="4.000000"
	d="
M279.000000,209.000000 
	C277.927643,213.634323 278.765900,218.336884 278.500000,223.000000 
"/>
<path fill="none" opacity="1.000000" stroke="#000000" stroke-linecap="round" stroke-linejoin="round" stroke-width="4.000000"
	d="
M270.000000,209.000000 
	C271.072357,213.634323 270.234100,218.336884 270.500000,223.000000 
"/>
<path fill="none" opacity="1.000000" stroke="#000000" stroke-linecap="round" stroke-linejoin="round" stroke-width="4.000000"
	d="
M180.000000,207.500000 
	C178.940933,212.637878 179.756454,217.836227 179.500000,223.000000 
"/>
<path fill="none" opacity="1.000000" stroke="#000000" stroke-linecap="round" stroke-linejoin="round" stroke-width="2.000000"
	d="
M245.500000,251.500000 
	C246.927750,254.361099 245.397247,255.960770 242.988297,256.972137 
	C240.387527,258.064026 238.551163,257.054108 237.500000,254.500000 
"/>
<path fill="none" opacity="1.000000" stroke="#000000" stroke-linecap="round" stroke-linejoin="round" stroke-width="5.000000"
	d="
M301.500000,208.500000 
	C301.333344,213.166672 301.166687,217.833328 301.000000,222.500000 
"/>
<path fill="none" opacity="1.000000" stroke="#000000" stroke-linecap="round" stroke-linejoin="round" stroke-width="4.000000"
	d="
M206.500000,126.000000 
	C204.224625,126.978096 201.833984,126.354858 199.499069,126.482887 
	C197.691116,126.582024 195.773438,126.189255 194.500000,128.000000 
"/>
<path fill="none" opacity="1.000000" stroke="#000000" stroke-linecap="round" stroke-linejoin="round" stroke-width="3.000000"
	d="
M112.500000,241.500000 
	C111.333336,245.166672 110.166672,248.833328 109.000000,252.500000 
"/>
<path fill="none" opacity="1.000000" stroke="#000000" stroke-linecap="round" stroke-linejoin="round" stroke-width="3.000000"
	d="
M139.000000,241.500000 
	C138.754028,244.915329 140.391449,247.786011 142.120193,250.421143 
	C142.866318,251.558411 141.659897,251.833328 142.000000,252.500000 
"/>
<path fill="none" opacity="1.000000" stroke="#000000" stroke-linecap="round" stroke-linejoin="round" stroke-width="4.000000"
	d="
M149.500000,208.500000 
	C151.339355,208.326111 152.250916,208.646378 152.626602,210.979614 
	C153.362335,215.548996 154.833328,220.000000 156.000000,224.500000 
"/>
<path fill="none" opacity="1.000000" stroke="#000000" stroke-linecap="round" stroke-linejoin="round" stroke-width="3.000000"
	d="
M122.000000,241.500000 
	C123.347878,245.162003 119.524208,246.996811 118.989365,249.998108 
	C118.897873,250.511505 118.666672,251.000000 118.500008,251.500000 
"/>
<path fill="none" opacity="1.000000" stroke="#000000" stroke-linecap="round" stroke-linejoin="round" stroke-width="6.000000"
	d="
M147.000000,88.750000 
	C141.805115,92.537994 139.260208,97.889908 138.000000,104.000000 
"/>
<path fill="none" opacity="1.000000" stroke="#000000" stroke-linecap="round" stroke-linejoin="round" stroke-width="2.000000"
	d="
M98.000000,242.000000 
	C100.208130,244.406937 99.369751,247.889114 101.000000,250.500000 
"/>
<path fill="none" opacity="1.000000" stroke="#000000" stroke-linecap="round" stroke-linejoin="round" stroke-width="3.000000"
	d="
M230.000000,241.500000 
	C231.415436,245.166672 229.197937,248.833328 230.000000,252.500000 
"/>
<path fill="none" opacity="1.000000" stroke="#000000" stroke-linecap="round" stroke-linejoin="round" stroke-width="3.000000"
	d="
M115.000000,242.000000 
	C116.539032,244.464523 115.876984,247.754471 118.000000,250.000000 
"/>
<path fill="none" opacity="1.000000" stroke="#000000" stroke-linecap="round" stroke-linejoin="round" stroke-width="2.000000"
	d="
M146.000000,242.000000 
	C145.000000,244.500000 144.000000,247.000000 143.000000,249.500000 
"/>
<path fill="none" opacity="1.000000" stroke="#000000" stroke-linecap="round" stroke-linejoin="round" stroke-width="2.000000"
	d="
M282.500000,207.500000 
	C279.533173,209.731705 276.146759,207.665222 272.978699,208.409271 
	C270.925293,208.891525 268.666656,208.500000 266.500000,208.500000 
"/>
<path fill="none" opacity="1.000000" stroke="#000000" stroke-linecap="round" stroke-linejoin="round" stroke-width="2.000000"
	d="
M105.000000,244.500000 
	C102.767151,246.300247 104.342903,250.004791 101.500000,251.500000 
"/>
<path fill="none" opacity="1.000000" stroke="#000000" stroke-linecap="round" stroke-linejoin="round" stroke-width="3.000000"
	d="
M139.000000,221.500000 
	C140.075790,223.136307 141.636917,224.044632 143.500000,224.500000 
"/>
<path fill="none" opacity="1.000000" stroke="#000000" stroke-linecap="round" stroke-linejoin="round" stroke-width="2.000000"
	d="
M106.000000,244.500000 
	C107.724495,245.743530 106.603325,248.125336 108.000000,249.500000 
"/>
<path fill="none" opacity="1.000000" stroke="#000000" stroke-linecap="round" stroke-linejoin="round" stroke-width="2.000000"
	d="
M123.000000,245.500000 
	C124.724495,246.743530 123.603325,249.125336 125.000000,250.500000 
"/>
<path fill="none" opacity="1.000000" stroke="#000000" stroke-linecap="round" stroke-linejoin="round" stroke-width="2.000000"
	d="
M316.500000,208.500000 
	C311.618683,208.536011 306.691528,208.129135 302.000000,210.000000 
"/>
<path fill="none" opacity="1.000000" stroke="#000000" stroke-linecap="round" stroke-linejoin="round" stroke-width="2.000000"
	d="
M138.000000,244.500000 
	C136.603317,245.874664 137.724503,248.256470 136.000000,249.500000 
"/>
<path fill="none" opacity="1.000000" stroke="#000000" stroke-linecap="round" stroke-linejoin="round" stroke-width="2.000000"
	d="
M212.000000,224.500000 
	C213.664978,226.062286 210.628876,227.036942 211.500000,228.500000 
"/>
<path fill="none" opacity="1.000000" stroke="#000000" stroke-linecap="round" stroke-linejoin="round" stroke-width="3.000000"
	d="
M102.500000,200.500000 
	C105.166664,202.348907 107.833336,201.464447 110.500000,200.500000 
"/>
<path fill="none" opacity="1.000000" stroke="#000000" stroke-linecap="round" stroke-linejoin="round" stroke-width="3.000000"
	d="
M247.500000,224.500000 
	C245.500000,223.244156 243.500000,223.244156 241.500000,224.500000 
"/>
<path fill="none" opacity="1.000000" stroke="#000000" stroke-linecap="round" stroke-linejoin="round" stroke-width="3.000000"
	d="
M182.500000,224.000000 
	C180.425842,223.276718 178.410721,223.261978 176.500000,224.500000 
"/>
<path fill="none" opacity="1.000000" stroke="#000000" stroke-linecap="round" stroke-linejoin="round" stroke-width="3.000000"
	d="
M86.500000,224.500000 
	C84.500000,223.244156 82.500000,223.244156 80.500000,224.500000 
"/>
<path fill="none" opacity="1.000000" stroke="#000000" stroke-linecap="round" stroke-linejoin="round" stroke-width="3.000000"
	d="
M298.500000,224.000000 
	C300.649536,222.372131 302.566254,223.538422 304.500000,224.500000 
"/>
<path fill="none" opacity="1.000000" stroke="#000000" stroke-linecap="round" stroke-linejoin="round" stroke-width="3.000000"
	d="
M281.500000,224.000000 
	C279.425842,223.276718 277.410736,223.261978 275.500000,224.500000 
"/>
<path fill="none" opacity="1.000000" stroke="#000000" stroke-linecap="round" stroke-linejoin="round" stroke-width="3.000000"
	d="
M91.500000,200.500000 
	C93.500000,201.755844 95.500000,201.755844 97.500000,200.500000 
"/>
<path fill="none" opacity="1.000000" stroke="#000000" stroke-linecap="round" stroke-linejoin="round" stroke-width="3.000000"
	d="
M273.500000,224.500000 
	C271.570038,223.492722 269.614899,222.787796 267.500000,224.000000 
"/>
<path fill="none" opacity="1.000000" stroke="#000000" stroke-linecap="round" stroke-linejoin="round" stroke-width="4.000000"
	d="
M168.500000,207.500000 
	C164.618652,210.359406 162.938858,218.758377 165.500000,222.500000 
	C167.462692,225.367355 170.170792,225.159042 172.000000,222.000000 
	C174.323990,217.986465 172.829666,210.763885 169.000000,207.500000 
"/>
<path fill="none" opacity="1.000000" stroke="#000000" stroke-linecap="round" stroke-linejoin="round" stroke-width="4.000000"
	d="
M290.500000,207.500000 
	C288.265411,208.445648 286.793396,209.635864 286.358673,212.478394 
	C285.800323,216.129456 285.891724,219.670288 287.125397,222.952866 
	C288.050507,225.414368 291.922974,224.964142 293.500000,222.499985 
	C295.712738,219.042511 294.324890,210.715424 291.000000,207.500000 
"/>
</svg>