<svg version="1.1" id="Layer_1" xmlns="http://www.w3.org/2000/svg" xmlns:xlink="http://www.w3.org/1999/xlink" x="0px" y="0px"
	 width="100%" viewBox="0 0 1024 1024" enable-background="new 0 0 1024 1024" xml:space="preserve">
<path fill="#000000" opacity="1.000000" stroke="none" 
	d="
M225.754822,577.455566 
	C230.255051,592.463440 235.408096,606.819702 240.927841,621.043030 
	C244.464066,630.155212 247.898163,639.321533 252.775558,647.850342 
	C253.522827,649.156982 254.015671,650.595703 256.147034,651.390137 
	C260.623840,646.501648 263.386841,640.246094 267.020203,634.601624 
	C269.451202,630.825134 271.532196,626.823364 273.962250,623.046143 
	C275.757599,620.255554 277.921844,619.493286 280.168671,622.753479 
	C301.362305,653.506104 331.342926,673.640869 363.242218,691.442444 
	C382.128876,701.982300 402.106323,710.063354 422.437592,717.278442 
	C438.769135,723.073914 455.485779,727.531494 472.388824,731.396423 
	C487.101746,734.760620 501.698853,738.364014 516.966309,738.105408 
	C528.357117,737.912476 539.253784,734.984680 550.264343,732.709167 
	C558.193665,731.070496 565.990479,728.800537 573.874146,726.929077 
	C586.919312,723.832275 599.672485,719.759094 612.213074,715.087952 
	C630.548706,708.258362 648.603210,700.768188 665.851624,691.417542 
	C695.333069,675.435242 722.540588,656.546570 744.458435,630.794067 
	C746.500671,628.394531 748.228455,625.714294 749.977844,623.081787 
	C752.303223,619.582520 754.302307,620.078796 756.298035,623.360840 
	C760.619141,630.466736 764.972961,637.552734 769.313660,644.646667 
	C770.502502,646.589783 771.381470,648.785583 773.924438,650.227234 
	C778.707214,643.454712 780.814270,635.560852 783.928162,628.176697 
	C789.923218,613.960327 794.278625,599.149353 799.114197,584.521362 
	C801.651917,576.844543 803.644348,568.973816 805.563538,561.112671 
	C806.380432,557.766724 807.177368,554.802551 811.288818,554.891785 
	C815.323669,554.979492 818.852844,558.464783 819.016968,562.641479 
	C819.297729,569.787170 819.559082,576.948425 819.393860,584.093018 
	C819.186096,593.076294 820.345154,602.041626 819.552673,611.029114 
	C819.426758,612.457092 819.749207,614.029236 821.169800,615.584900 
	C825.976379,614.006287 829.722290,610.379639 833.975098,607.669434 
	C836.973877,605.758362 839.720642,604.640808 843.197998,606.749756 
	C846.915771,609.004517 848.115051,612.102051 847.041443,616.060425 
	C840.873779,638.800964 833.353333,661.012085 822.559326,682.078186 
	C812.004028,702.678223 798.738281,721.289124 783.221069,738.366577 
	C778.063782,744.042297 777.177002,744.060547 770.670044,740.022339 
	C765.725769,736.953857 760.702148,734.013367 755.717102,731.010437 
	C753.220154,729.506287 751.064819,729.325500 748.470337,731.359314 
	C721.627930,752.400391 692.274109,769.207581 661.113403,782.975220 
	C644.994690,790.096985 628.423828,796.034973 611.523315,800.832886 
	C597.397217,804.843201 583.091431,808.226624 568.518982,810.692505 
	C547.784302,814.201355 527.078613,817.052856 506.039032,816.166382 
	C491.423645,815.550598 476.980804,813.366089 462.554474,810.804138 
	C450.628326,808.686279 438.829803,806.091675 427.143097,803.067200 
	C406.910156,797.830994 387.341003,790.623718 368.136719,782.337585 
	C336.341583,768.618652 306.889648,751.017578 279.646576,729.709595 
	C276.213745,727.024597 273.586884,727.364685 270.299774,729.625122 
	C265.510742,732.918396 260.507111,735.900818 255.579056,738.990356 
	C251.157669,741.762268 246.147003,741.249451 242.572998,737.423401 
	C223.308899,716.800903 208.242203,693.429321 196.706238,667.693115 
	C191.608215,656.319763 187.759552,644.500427 183.677200,632.773438 
	C181.681488,627.040527 180.776184,620.926086 178.877365,615.102356 
	C178.099792,612.717468 178.998642,610.618774 181.436615,609.234497 
	C185.213196,607.090210 188.949219,606.750122 192.757889,608.931152 
	C196.733490,611.207703 200.117950,614.498596 204.611923,616.328369 
	C206.424316,612.923035 206.678635,609.672974 206.695602,606.352173 
	C206.767090,592.361511 206.757263,578.369141 207.011246,564.381592 
	C207.106552,559.132751 211.252319,555.981934 216.375336,556.770203 
	C221.262924,557.522217 220.653824,562.185486 221.987183,565.261536 
	C223.615479,569.017944 224.435104,573.125000 225.754822,577.455566 
M496.934418,788.227234 
	C496.726349,789.203674 496.422546,790.171082 496.328644,791.158386 
	C496.071991,793.856873 494.652802,795.083740 491.981659,794.624878 
	C489.290344,794.162598 488.522766,792.269836 488.821930,789.823120 
	C489.003357,788.339355 489.507507,786.889160 489.623535,785.404846 
	C489.773956,783.480835 490.608276,781.041931 488.395508,779.971985 
	C486.224121,778.922058 483.662292,778.457336 481.251495,780.986084 
	C482.314575,783.029236 483.354523,785.077576 484.440765,787.101074 
	C485.411682,788.909729 485.587677,790.618103 483.783051,791.995239 
	C481.928436,793.410583 479.832733,793.482788 478.417633,791.647156 
	C473.938263,785.836426 470.293488,779.509949 467.830414,772.570068 
	C467.184570,770.750305 467.915924,769.359497 469.784454,768.569153 
	C471.513367,767.837830 472.964142,767.818359 474.194397,769.489868 
	C474.746429,770.239868 475.002228,771.371216 476.470398,771.494446 
	C477.493927,768.128845 476.841064,766.089905 472.795074,766.134521 
	C470.801117,766.156555 468.765778,766.140320 466.949036,765.115234 
	C465.459686,764.274780 463.966431,763.248779 464.337860,761.283936 
	C464.738281,759.165527 466.456451,758.181335 468.426544,758.375061 
	C476.519867,759.171082 484.612671,760.014893 492.674133,761.079956 
	C499.510590,761.983154 506.304657,763.179382 513.800537,762.255066 
	C512.473877,758.741516 512.909180,755.813293 513.023315,753.006042 
	C469.191071,746.155396 426.747742,735.458557 386.273834,717.710632 
	C345.569855,699.861816 308.599182,676.484192 277.772491,642.900330 
	C269.347015,657.008606 261.470551,670.100159 253.716980,683.264160 
	C252.192673,685.852112 253.635712,687.934631 255.506775,689.906250 
	C279.919281,715.631226 308.428925,736.024231 339.197296,753.258118 
	C360.654602,765.276672 383.191620,774.971619 406.650085,782.664795 
	C422.872681,787.985046 439.281036,792.261169 455.935638,795.831970 
	C465.854218,797.958496 475.872437,799.318237 485.902069,800.703491 
	C497.425598,802.295227 509.061188,804.039917 520.601746,803.108704 
	C534.633850,801.976379 548.670959,800.518555 562.622070,798.094055 
	C577.531738,795.502930 592.285278,792.241638 606.796143,788.237671 
	C625.143188,783.175049 642.952576,776.295532 660.392517,768.570435 
	C670.385010,764.144287 680.164734,759.320984 690.498596,753.275513 
	C684.152161,751.615845 680.480835,748.354004 678.913940,742.630737 
	C678.207581,740.050537 676.767212,737.419800 674.411560,735.664551 
	C671.876404,736.116333 671.140625,737.811035 671.077576,740.005798 
	C671.032532,741.575012 670.797241,743.087463 669.053772,743.640564 
	C665.988281,744.613037 663.198975,743.907532 660.474915,742.277039 
	C658.054688,740.828369 657.498657,738.949036 658.269653,736.354736 
	C658.838135,734.441589 658.262085,732.795959 656.245239,731.354126 
	C654.624084,734.184021 651.646790,735.421509 649.242310,737.478638 
	C657.442322,742.132019 659.227844,746.293274 657.208069,755.166260 
	C656.240051,759.418579 652.988159,759.125366 649.584961,758.938477 
	C649.909241,761.462341 651.760620,764.105774 648.456543,765.700989 
	C644.802795,767.464966 643.122192,764.685364 641.419922,762.463135 
	C635.906372,764.339172 630.348267,765.705872 626.431580,760.682007 
	C622.991211,756.269226 624.315125,751.354187 628.456055,746.326904 
	C624.397095,748.238708 620.953918,748.854980 618.272156,751.452271 
	C618.543518,752.325317 618.759705,753.101807 619.024780,753.861145 
	C620.994080,759.503723 622.862732,765.185181 624.997681,770.764587 
	C625.999817,773.383545 625.172363,774.920715 622.917969,776.040833 
	C620.283936,777.349487 618.890503,776.062500 617.965698,773.669617 
	C617.682739,772.937561 617.099609,772.321472 616.613586,771.591614 
	C614.694763,771.701477 613.388428,772.759460 611.949280,773.535767 
	C605.328369,777.106995 599.474670,774.933960 597.516785,767.792419 
	C596.551392,764.271118 594.002258,762.713745 590.979980,759.925903 
	C593.019348,767.489868 594.735046,774.034363 596.563904,780.547058 
	C597.283203,783.108582 596.532349,784.947083 594.058594,785.658142 
	C591.467712,786.402954 590.181396,785.053528 589.523987,782.446106 
	C588.146484,776.982849 586.421631,771.608215 584.914490,766.176331 
	C584.334534,764.086243 583.997803,761.900574 581.088257,762.086426 
	C579.721619,764.208679 580.374084,766.129089 580.995300,768.020813 
	C582.659546,773.088318 582.184753,778.556091 584.079102,783.620178 
	C584.915649,785.856323 583.970642,787.939026 581.192505,788.448547 
	C578.192261,788.998901 576.880554,787.440735 576.542908,784.673767 
	C576.421875,783.682068 576.229797,782.698975 576.069580,781.712036 
	C574.926086,774.666809 572.039673,773.558044 565.574158,777.911804 
	C566.402832,779.969971 568.168274,781.212097 569.758362,782.634033 
	C571.482300,784.175781 574.712646,785.335754 572.254028,788.475220 
	C569.763489,791.655457 566.983582,790.598450 564.534180,788.261353 
	C560.199097,784.125000 555.922302,779.926331 551.684509,775.690308 
	C550.635315,774.641541 549.515991,773.343628 550.563354,771.729187 
	C551.587891,770.150085 552.982971,768.971313 555.087646,769.168457 
	C556.183777,769.271118 557.047485,770.582581 558.745972,769.541504 
	C558.560608,765.455627 556.118896,766.303345 553.441406,767.122131 
	C550.320190,768.076660 546.179016,769.894897 545.320984,764.990051 
	C544.553162,760.601135 549.079834,760.902161 551.981079,760.138855 
	C552.299988,760.054932 552.645203,760.076843 552.972534,760.018127 
	C561.622192,758.466248 570.433777,757.512329 578.886169,755.229126 
	C596.308411,750.522949 613.353760,744.540161 630.001099,737.556335 
	C635.766174,735.137756 642.134583,733.489136 646.819092,729.167847 
	C654.281311,722.284180 663.583130,718.565002 672.149841,713.609009 
	C675.273621,711.801880 678.330444,714.243103 677.238281,717.543335 
	C676.109375,720.954407 677.382019,723.249146 678.914368,725.861328 
	C681.350952,730.014954 684.200500,734.053711 685.821533,738.523315 
	C687.521667,743.211182 691.040833,745.016479 694.905334,747.106018 
	C697.411011,748.460754 699.162598,748.607361 701.695618,747.087891 
	C728.661987,730.911499 753.530762,712.100098 775.346252,689.353882 
	C777.717041,686.881958 777.985352,684.872864 776.128479,681.918213 
	C771.081543,673.887451 766.525513,665.545593 761.400940,657.567261 
	C758.411682,652.913330 756.211853,647.629578 751.987305,643.559265 
	C750.826111,644.487732 749.955688,644.999695 749.320129,645.719177 
	C737.784058,658.779419 724.198608,669.477661 710.207092,679.706665 
	C692.952209,692.321350 674.468628,702.917175 655.174866,711.989746 
	C641.839233,718.260620 628.178589,723.824402 614.182861,728.630127 
	C601.335022,733.041809 588.473572,737.352234 575.328064,740.706116 
	C563.928162,743.614624 552.447327,746.220886 540.907104,748.596863 
	C535.801636,749.647949 527.941711,747.279785 526.095093,755.924316 
	C525.864563,757.003479 524.109680,756.859924 522.985718,757.143677 
	C519.766663,757.956299 520.513550,759.669189 522.153442,761.439880 
	C523.275818,762.651611 524.841919,762.620483 526.338379,762.723083 
	C528.022827,762.838501 529.149780,763.699829 529.633118,765.311157 
	C530.191284,767.172058 529.541565,768.837769 527.878235,769.516235 
	C525.081726,770.656860 525.013306,772.801880 525.020447,775.227356 
	C525.037170,780.891052 525.055176,786.558228 524.869751,792.217285 
	C524.800354,794.332947 523.817566,796.077637 521.255554,796.212036 
	C518.981384,796.331360 517.185486,795.661194 516.890259,793.176697 
	C516.561462,790.409729 514.709473,790.420105 512.599609,790.182190 
	C505.672119,789.400696 501.816589,783.907166 503.049683,777.080322 
	C503.469849,774.754272 504.978912,772.936829 505.931366,770.547485 
	C503.344269,770.150146 501.126038,769.744812 498.649536,770.424316 
	C497.850220,776.148621 498.674652,781.895264 496.934418,788.227234 
M223.736176,689.812805 
	C227.698364,696.457458 231.345291,703.332397 237.429092,708.608948 
	C235.113419,704.277405 236.013977,699.448914 234.570190,695.005981 
	C232.776947,689.487854 233.022934,683.910339 237.205078,679.070007 
	C239.365295,676.569824 240.855606,673.480652 243.069061,671.038757 
	C247.321320,666.347656 247.014725,662.723145 242.764999,657.690796 
	C233.511993,646.733887 229.541306,632.988770 224.839584,619.707336 
	C223.267853,615.267517 222.636444,610.429260 219.325897,605.197632 
	C219.325897,612.398315 219.200500,618.206482 219.371460,624.005859 
	C219.479523,627.671814 218.543533,630.712769 215.100845,632.277527 
	C211.632050,633.854309 208.058365,634.080444 204.716736,631.638489 
	C202.644821,630.124451 200.633591,628.452393 197.925644,627.793640 
	C198.041626,636.850586 210.197433,666.070068 223.736176,689.812805 
M826.194214,636.865662 
	C826.978699,634.261292 829.005981,631.942505 828.219910,628.943481 
	C827.701355,628.880981 827.295471,628.696411 827.080261,628.826782 
	C824.529602,630.370728 822.000366,631.950500 819.479431,633.542908 
	C814.742676,636.535034 810.574585,635.280884 808.066467,630.218750 
	C806.987244,628.040466 806.807678,625.787659 806.828552,623.434998 
	C806.872009,618.525269 806.841675,613.614990 806.841675,608.704895 
	C804.089478,613.232910 802.733093,617.818970 801.048462,622.281128 
	C796.077942,635.446716 792.021118,649.060913 783.543396,660.597961 
	C781.122986,663.891785 782.614929,666.468567 784.197388,669.188843 
	C787.114136,674.202332 790.046753,679.209045 793.107605,684.134827 
	C794.188965,685.875061 794.331787,687.368591 793.480042,689.250854 
	C790.697449,695.400146 790.281555,702.105896 789.152344,708.697937 
	C805.512451,687.079468 817.568237,663.291992 826.194214,636.865662 
M646.098877,750.420898 
	C646.449829,752.040039 645.817078,754.186829 648.314331,754.720581 
	C650.408569,750.392700 650.416443,750.095154 648.554138,746.644653 
	C646.491638,746.644104 646.314514,748.175964 646.098877,750.420898 
M511.364227,781.411743 
	C512.728943,783.051941 514.213989,782.903992 515.670898,781.603943 
	C516.649292,780.730896 516.855225,779.569946 516.165588,778.447510 
	C515.403442,777.207031 514.033813,776.568115 512.742798,776.880371 
	C510.693420,777.375977 510.484772,779.033752 511.364227,781.411743 
M570.909241,764.291199 
	C568.875427,764.006409 566.712036,764.386108 567.409668,766.854614 
	C568.301086,770.008301 570.887695,768.615479 573.185913,768.174377 
	C573.203735,766.515320 572.732117,765.399231 570.909241,764.291199 
M665.562439,725.883606 
	C663.740967,727.658264 665.341125,728.865417 666.407837,729.930237 
	C667.442871,730.963379 668.524902,730.014954 669.458618,729.418518 
	C670.694397,728.629150 670.474182,727.605774 669.914246,726.454956 
	C668.974915,724.524109 667.723999,724.233704 665.562439,725.883606 
M485.424683,769.802734 
	C485.174713,771.916504 486.003357,773.098938 488.226624,772.687744 
	C489.829956,772.391296 490.578644,770.853271 490.085449,769.654663 
	C489.116760,767.300354 487.321045,767.932190 485.424683,769.802734 
M609.937927,757.698914 
	C613.027527,755.686279 610.633728,754.832703 609.347473,753.601074 
	C607.585999,754.499939 606.555237,755.570374 606.375122,757.567017 
	C607.424622,757.629517 608.370483,757.685791 609.937927,757.698914 
M633.864380,752.841614 
	C632.304260,754.517151 632.722534,755.894836 634.794678,756.381104 
	C636.203064,756.711731 637.380432,755.540955 637.427551,754.161011 
	C637.500916,752.011047 635.976440,752.027527 633.864380,752.841614 
z"/>
<path fill="#000000" opacity="1.000000" stroke="none" 
	d="
M610.123108,618.181030 
	C590.181885,627.456665 570.386963,636.213135 552.464478,648.519897 
	C539.388184,657.499023 526.647217,666.863342 517.220154,679.929626 
	C515.118713,682.842285 512.930481,683.658752 510.526398,680.419983 
	C494.484802,658.809570 472.133789,645.376953 448.989655,633.018616 
	C433.159637,624.565857 416.237152,618.301941 400.738373,609.175354 
	C381.811920,598.030457 364.157745,585.367981 351.924927,566.586182 
	C346.667389,558.513916 343.743103,549.799438 343.761078,539.849304 
	C343.933624,444.198334 343.872131,348.546906 343.888428,252.895615 
	C343.889862,244.385712 344.211548,244.025848 352.458252,244.012299 
	C379.786804,243.967392 407.115509,243.946625 434.444061,243.975021 
	C441.339722,243.982178 443.833221,247.799072 441.590729,254.398758 
	C440.492676,257.630310 437.894623,257.269653 435.425385,257.270630 
	C412.095856,257.279846 388.766296,257.260498 365.436768,257.267426 
	C357.094360,257.269897 357.091705,257.292358 357.093903,265.878815 
	C357.117004,357.197388 357.117493,448.515991 357.194946,539.834534 
	C357.204529,551.132507 362.700256,560.299805 369.891205,568.367676 
	C383.147217,583.240295 399.640381,593.836060 417.272247,602.731018 
	C435.663788,612.009094 454.713104,619.993469 472.345001,630.762878 
	C485.578705,638.845886 498.384308,647.529968 509.364349,658.580872 
	C512.497437,661.734253 514.507324,661.836914 517.914978,658.588196 
	C535.407593,641.911255 555.731384,629.385559 577.335999,618.733215 
	C595.794128,609.632385 614.989563,601.921997 632.016052,590.065491 
	C642.970947,582.437012 653.562805,574.490479 661.671753,563.620117 
	C667.660095,555.592407 670.806335,546.942566 670.795105,536.797974 
	C670.694763,446.312775 670.767700,355.827423 670.797363,265.342102 
	C670.799988,257.348724 670.762024,257.276123 662.740967,257.277832 
	C639.578003,257.282715 616.415100,257.308075 593.252136,257.297028 
	C586.511108,257.293793 583.736023,253.389389 585.849792,246.961899 
	C586.772766,244.155167 589.200073,243.999237 591.555786,243.968338 
	C597.220581,243.894058 602.886780,243.905136 608.552368,243.911713 
	C630.715393,243.937424 652.878479,243.959412 675.041443,244.015320 
	C683.877136,244.037613 684.132385,244.298416 684.133484,252.882599 
	C684.145325,349.367126 684.183960,445.851685 684.107788,542.336121 
	C684.098206,554.415405 678.318237,564.427490 671.050537,573.502563 
	C656.181396,592.069336 636.653015,604.610535 615.785950,615.320496 
	C614.015015,616.229370 612.244080,617.138428 610.123108,618.181030 
z"/>
<path fill="#000000" opacity="1.000000" stroke="none" 
	d="
M493.827545,639.195984 
	C476.137421,624.124756 455.961792,613.949280 435.383759,604.412354 
	C413.550873,594.293823 392.568298,582.885498 376.119110,564.678650 
	C366.314087,553.825928 360.631500,541.947021 360.741089,526.582336 
	C361.277191,451.424042 361.047577,376.260345 361.145844,301.098633 
	C361.159546,290.605316 361.602875,280.112549 361.612885,269.619263 
	C361.616486,265.849548 363.225647,264.708282 366.742432,264.717377 
	C389.907379,264.777344 413.073059,264.800781 436.237396,264.658020 
	C441.414368,264.626160 441.094299,267.892609 441.189606,271.343475 
	C441.290558,274.998413 440.528076,277.421936 436.035095,277.388123 
	C417.703857,277.250000 399.371094,277.304321 381.038910,277.298401 
	C374.402374,277.296265 374.320679,277.359619 374.323059,283.971954 
	C374.345428,345.801331 374.122314,407.632599 374.568481,469.458984 
	C374.700745,487.788971 375.035522,506.138245 374.156036,524.415161 
	C373.404510,540.034058 380.534882,551.112854 391.165100,560.910461 
	C407.150757,575.644043 426.138062,585.522949 445.739380,594.415894 
	C469.023895,604.979858 491.098663,617.493103 509.771179,635.282349 
	C512.414795,637.800903 514.342163,637.534851 516.895996,635.080261 
	C534.512268,618.148804 555.478149,606.435974 577.396606,596.093994 
	C596.324707,587.162903 615.397766,578.385620 631.503906,564.547729 
	C637.737549,559.191895 643.241699,553.248230 647.726562,546.333679 
	C650.423218,542.176147 651.922058,537.878235 651.918457,532.795410 
	C651.859558,449.300934 651.891174,365.806305 652.014771,282.311859 
	C652.020813,278.237946 650.474670,277.190155 646.705933,277.218719 
	C628.374756,277.357697 610.041931,277.325531 591.709900,277.282501 
	C589.486816,277.277283 586.617310,278.038269 585.555481,275.249512 
	C584.480835,272.427185 584.637390,269.315613 585.648682,266.438293 
	C586.236023,264.767090 587.995056,264.766083 589.505676,264.765198 
	C613.337402,264.751434 637.169189,264.769073 661.000916,264.735687 
	C664.768311,264.730408 665.914368,266.925903 665.940552,270.181030 
	C665.980774,275.180237 665.985840,280.179779 665.988037,285.179199 
	C666.022766,364.507599 665.679932,443.839233 666.355713,523.162170 
	C666.520691,542.529785 659.040283,557.168152 645.846436,569.903076 
	C630.185059,585.019714 611.389587,595.327515 591.812317,604.302490 
	C570.439697,614.100464 549.548462,624.671448 531.543091,640.099121 
	C526.094482,644.767761 521.203918,650.025574 516.716736,655.611938 
	C514.128906,658.833740 512.015137,658.778381 509.573761,655.607605 
	C504.997467,649.663940 500.260895,643.860046 493.827545,639.195984 
z"/>
<path fill="#000000" opacity="1.000000" stroke="none" 
	d="
M508.356812,356.662720 
	C503.889740,359.059357 501.970978,358.084137 501.820587,353.400848 
	C501.617493,347.073486 501.748230,340.735931 501.695526,334.403107 
	C501.639984,327.730560 500.999268,327.306183 494.964722,330.422455 
	C488.909058,333.549652 482.943573,336.851959 476.951324,340.101074 
	C475.136322,341.085205 473.139282,342.071777 471.348846,340.668884 
	C469.644745,339.333649 470.653168,337.249939 470.946136,335.493561 
	C473.072235,322.747162 475.865417,310.119141 477.482819,297.278870 
	C478.237579,291.287170 472.863647,290.365265 469.776794,286.476593 
	C469.207367,289.801117 469.059296,292.744690 464.307220,292.439178 
	C468.105042,294.931549 472.040466,289.279022 473.852509,294.528229 
	C475.054199,298.009430 471.913391,298.866974 469.291321,300.306610 
	C472.187866,300.711426 473.970428,301.846649 473.806854,304.481934 
	C473.657166,306.892975 471.693146,307.503632 469.683868,308.169098 
	C463.701660,310.150452 457.782898,312.322937 451.831909,314.399384 
	C450.894623,314.726471 449.929443,314.993103 448.958466,315.199860 
	C446.858398,315.647095 444.623810,316.479034 443.351471,313.739075 
	C442.081818,311.004883 443.906036,309.663696 446.860229,307.923767 
	C442.553314,308.857300 439.612457,310.560150 436.224060,310.611389 
	C434.506622,310.637329 433.249329,310.392487 432.739410,308.617889 
	C432.201813,306.747070 432.721893,305.346466 434.641663,304.614197 
	C436.813019,303.785980 438.976776,302.937836 441.638275,301.906799 
	C439.682343,300.488495 437.391754,299.310791 437.931763,296.654297 
	C438.474823,293.982544 441.039368,294.080475 442.972290,293.241180 
	C450.739532,289.868622 458.924988,287.741577 468.229980,284.956696 
	C462.404297,279.170013 457.196411,273.964081 451.944214,268.803223 
	C450.639343,267.521027 449.165405,266.412720 447.816650,265.172852 
	C446.604523,264.058594 445.128174,263.020569 445.664703,261.012360 
	C446.197937,259.016418 447.890137,258.732269 449.576141,258.507874 
	C456.484619,257.588409 463.390350,256.645905 470.306946,255.791641 
	C472.268799,255.549362 474.318634,255.744095 476.098450,253.664246 
	C472.390717,249.006042 467.318726,245.795593 463.060394,241.743317 
	C462.218628,240.942291 461.212250,240.316956 460.340424,239.544388 
	C455.746094,235.473038 455.807465,234.242722 460.769501,230.473679 
	C460.595886,228.710709 458.870819,228.322952 457.887634,227.281540 
	C456.342377,225.644760 454.694489,223.811523 456.539459,221.654648 
	C458.453461,219.417099 460.697449,220.276291 462.705963,221.932297 
	C463.968658,222.973358 465.280609,223.954712 466.626343,225.006546 
	C468.941803,219.011581 470.409576,218.541626 475.326996,222.533951 
	C480.496063,226.730591 485.459106,231.180176 490.541626,235.484451 
	C495.371887,239.575073 495.353577,241.008408 490.224274,244.965820 
	C491.069214,247.137878 491.938232,249.339325 489.326324,251.104126 
	C485.983185,253.362946 484.891602,249.319168 481.033997,248.349594 
	C483.942780,250.144867 482.629120,253.487213 485.719910,253.462448 
	C489.026672,253.435928 491.824432,252.361847 493.441284,249.006546 
	C498.854645,237.772598 504.404572,226.604507 509.881989,215.401321 
	C510.896027,213.327271 511.652039,211.054916 515.120056,210.339478 
	C520.701599,221.378677 526.345825,232.541931 531.893555,243.514282 
	C534.900085,243.538177 536.289734,241.865372 537.753540,239.914154 
	C535.372437,241.638229 533.016357,242.511398 531.093811,239.694809 
	C529.113586,236.793732 531.742432,235.436829 533.356934,233.999542 
	C538.576965,229.352615 543.942993,224.870148 549.216736,220.282883 
	C554.084656,216.048645 555.392517,216.307312 558.328247,222.512939 
	C560.090881,221.233444 561.766724,219.931396 563.530640,218.762115 
	C565.085449,217.731506 566.781982,217.677872 568.071960,219.124329 
	C569.499695,220.725220 569.371643,222.468826 567.800842,224.002319 
	C566.258545,225.507965 564.691711,226.988541 563.080811,228.532867 
	C568.486511,231.069229 568.829163,233.338776 564.587036,237.071335 
	C558.729553,242.225311 552.886230,247.395538 546.298523,253.210556 
	C549.900818,254.164032 552.722900,255.618240 555.479675,255.503494 
	C562.744019,255.201096 569.514587,258.228424 576.720459,258.104980 
	C578.596802,258.072845 580.930908,258.290771 581.838501,260.528259 
	C582.824158,262.958038 580.703552,264.161743 579.372681,265.507660 
	C572.709717,272.246033 565.971680,278.910126 558.820557,286.038422 
	C567.161011,287.898895 574.672913,290.669342 582.239929,293.271912 
	C583.183472,293.596375 584.159119,293.864594 585.048096,294.304169 
	C589.990295,296.747894 590.166504,299.143951 585.630066,302.369232 
	C587.260803,303.980774 589.477783,304.175476 591.452148,304.966522 
	C593.504028,305.788605 595.510193,307.229675 594.290344,309.869568 
	C593.237854,312.147552 591.242798,312.787872 588.842041,311.584167 
	C587.521729,310.922119 586.225525,310.029602 584.607544,310.598938 
	C583.498901,317.243195 582.977234,317.573120 576.303101,315.383453 
	C570.005310,313.317230 563.696838,311.270782 557.478333,308.983734 
	C555.665771,308.317139 552.816162,308.467438 552.849304,305.324432 
	C552.886292,301.815125 556.073669,302.375641 558.170532,301.533752 
	C556.412537,299.124176 551.428711,299.937134 552.282410,295.630096 
	C552.948303,292.270233 556.157593,293.339661 558.824280,293.157715 
	C557.907593,291.640411 557.112366,290.324127 556.430725,289.195984 
	C546.822937,293.057831 550.570618,300.665070 551.769470,306.699036 
	C553.807251,316.955078 555.191162,327.318939 557.324463,337.549164 
	C557.593933,338.841248 557.957886,340.397186 556.500916,341.142090 
	C554.933838,341.943329 553.203735,341.516388 551.704285,340.720001 
	C547.299927,338.380676 542.964966,335.910522 538.556702,333.578796 
	C534.019592,331.178986 529.428223,328.881866 524.302917,326.253845 
	C525.227722,334.367584 524.876587,341.938202 524.955017,349.504120 
	C524.973938,351.329041 524.853699,353.171844 524.600281,354.978760 
	C524.321899,356.963531 523.332520,358.523743 521.049194,358.399292 
	C518.795105,358.276428 517.824524,356.637085 517.812683,354.651825 
	C517.763000,346.320404 517.864868,337.988190 517.869629,329.656250 
	C517.870911,327.510284 519.905273,326.763214 520.959229,324.934265 
	C518.560486,323.001434 516.395325,320.781067 511.722992,321.592834 
	C516.502502,323.438904 516.198059,326.818817 516.188293,330.157501 
	C516.157166,340.823669 516.234558,351.490295 516.174805,362.156219 
	C516.162354,364.377808 516.625977,367.415497 513.213623,367.452576 
	C509.627380,367.491516 509.791992,364.443481 509.786926,361.942596 
	C509.765015,351.109772 509.828796,340.276764 509.795746,329.444000 
	C509.790283,327.661438 510.209656,325.786499 509.194763,324.073975 
	C507.752869,323.556763 506.254791,324.441956 506.942993,325.460724 
	C511.003693,331.472137 508.697083,338.106110 509.099487,344.427399 
	C509.349823,348.360107 509.800690,352.411530 508.356812,356.662720 
M540.333496,323.524261 
	C541.712097,324.635132 542.997192,325.960632 544.945251,325.702087 
	C545.856201,324.498657 545.434509,323.343262 545.235291,322.217010 
	C543.963196,315.022919 542.836365,307.798157 541.347107,300.649048 
	C540.067688,294.507324 540.653503,289.274750 545.967163,285.018738 
	C549.564819,282.137146 552.667297,278.637207 555.991211,275.413818 
	C555.580078,275.007294 555.168884,274.600739 554.757751,274.194214 
	C550.191345,278.991302 545.727234,283.892212 541.010803,288.536957 
	C538.968201,290.548553 538.610168,292.464447 539.146790,295.201416 
	C540.645325,302.844727 541.743835,310.565552 543.113708,318.235535 
	C543.600952,320.963776 543.318909,322.922272 539.498657,322.545227 
	C532.519043,318.687256 525.540710,314.826843 518.559143,310.972473 
	C515.418579,309.238617 512.461548,309.185699 509.189117,311.080292 
	C503.019989,314.651947 496.720306,318.023163 490.319489,321.160675 
	C486.177063,323.191162 483.940216,321.817719 484.564667,318.025635 
	C485.881775,310.027618 487.185211,302.021912 488.799896,294.081512 
	C489.314270,291.551849 488.566284,290.006897 486.895813,288.387329 
	C481.521454,283.176880 476.226532,277.884583 470.888489,272.636536 
	C468.997772,270.777649 466.917694,269.022583 468.400970,265.890564 
	C466.414917,265.610687 465.048187,265.759918 463.449402,268.055511 
	C469.425934,273.827759 475.222870,279.987640 481.623932,285.438049 
	C487.126495,290.123322 487.597992,295.130524 486.194672,301.872040 
	C484.603424,309.516266 482.355743,317.273773 483.150482,325.902466 
	C485.125397,325.180756 486.712402,324.779572 488.131958,324.051880 
	C495.371124,320.340790 502.662079,316.713013 509.734955,312.703369 
	C512.908936,310.904022 515.309998,311.194489 518.502563,312.778656 
	C525.605164,316.303131 532.161438,321.032166 540.333496,323.524261 
M523.201538,250.279266 
	C524.655945,253.253647 526.088379,256.239075 527.572388,259.198639 
	C528.594299,261.236664 530.000854,262.666534 532.551331,262.674957 
	C539.359070,262.697418 545.841553,265.374390 552.752625,265.052765 
	C555.442505,264.927582 558.316895,265.675934 560.413635,268.029358 
	C562.242371,270.081940 563.118469,268.550201 563.878540,267.011749 
	C563.215515,265.787445 562.141052,265.664886 561.216614,265.510254 
	C553.855713,264.279114 546.515564,262.498749 539.104919,262.110229 
	C531.651794,261.719482 527.737183,258.314941 525.376587,251.572449 
	C523.814758,247.111374 521.162476,243.032120 518.998413,238.781921 
	C518.757690,238.915497 518.517029,239.049088 518.276367,239.182663 
	C519.822815,242.650101 521.369202,246.117523 523.201538,250.279266 
M476.996796,264.770813 
	C484.416016,264.820709 491.440979,262.824829 498.646820,261.767456 
	C498.561066,261.307770 498.475342,260.848114 498.389587,260.388428 
	C489.720703,261.756653 481.051788,263.124878 471.772003,264.589508 
	C473.719208,265.677185 474.948395,264.694977 476.996796,264.770813 
M541.659790,251.760193 
	C539.504456,247.618240 539.309143,247.600876 536.710144,251.319778 
	C539.268250,252.882858 539.268250,252.882858 541.659790,251.760193 
M514.285339,230.815613 
	C511.871490,230.999420 511.756470,232.739456 511.255463,236.370071 
	C513.546814,232.715286 515.067200,234.530472 516.643188,235.457703 
	C516.862305,233.254730 515.777344,232.222717 514.285339,230.815613 
z"/>
<path fill="#000000" opacity="1.000000" stroke="none" 
	d="
M552.000793,503.195801 
	C546.671082,503.187469 541.839355,503.091888 537.011963,503.197845 
	C533.166443,503.282257 531.746399,501.574463 531.753723,497.755188 
	C531.827148,459.449524 531.826843,421.143555 531.740540,382.837921 
	C531.731750,378.916809 532.980774,376.923492 537.126465,376.932526 
	C568.770386,377.001251 600.414490,377.019958 632.058533,377.010773 
	C635.975525,377.009613 637.661621,378.510651 637.659058,382.691071 
	C637.639587,414.993958 637.829407,447.296875 637.880493,479.599915 
	C637.890503,485.921875 637.459778,492.244568 637.469849,498.566528 
	C637.474548,501.515564 636.296997,502.927917 633.441101,503.042175 
	C631.777649,503.108734 630.111755,503.139435 628.446960,503.140930 
	C603.131531,503.163544 577.816040,503.178650 552.000793,503.195801 
M537.320312,391.510681 
	C537.493591,425.159363 537.009277,458.810089 537.882324,492.459106 
	C538.017456,497.665771 539.639160,498.914978 544.526306,498.862213 
	C564.688354,498.644501 584.854248,498.783264 605.018738,498.794586 
	C612.684509,498.798889 620.350342,498.822449 628.016113,498.816528 
	C630.474487,498.814636 632.545898,498.750854 632.501404,495.150360 
	C632.229675,473.178986 631.957153,451.204224 632.072144,429.232635 
	C632.145386,415.242432 631.236755,401.220978 632.543579,387.269318 
	C633.001343,382.382690 631.429871,381.225311 626.882507,381.249146 
	C598.886292,381.396118 570.888550,381.405975 542.892517,381.248047 
	C538.455261,381.223053 536.745117,382.774200 537.228516,387.059753 
	C537.358765,388.214081 537.296631,389.390137 537.320312,391.510681 
z"/>
<path fill="#000000" opacity="1.000000" stroke="none" 
	d="
M390.595520,381.566040 
	C390.507996,378.456726 391.927704,377.184387 394.514435,377.044678 
	C395.678284,376.981781 396.845184,376.947845 398.010712,376.947845 
	C428.172852,376.948181 458.335022,376.944763 488.497162,376.967590 
	C495.512604,376.972900 496.160370,377.626404 496.164978,384.716522 
	C496.189178,421.877502 496.197357,459.038513 496.190643,496.199493 
	C496.189484,502.532959 495.637787,503.152802 489.402344,503.157288 
	C458.407013,503.179596 427.411652,503.111420 396.416473,503.172394 
	C392.647247,503.179810 390.523071,502.365723 390.534576,497.941254 
	C390.635010,459.285065 390.585693,420.628510 390.595520,381.566040 
M395.024719,486.480743 
	C395.027283,487.813934 395.026276,489.147186 395.032959,490.480347 
	C395.074768,498.803589 395.075348,498.805206 403.558472,498.803772 
	C430.053864,498.799286 456.549286,498.795715 483.044678,498.786530 
	C489.803589,498.784210 489.858429,498.775360 489.864960,492.277069 
	C489.900208,457.283813 489.845520,422.290283 489.997253,387.297638 
	C490.016510,382.855469 488.845886,381.197632 484.098633,381.232483 
	C456.604919,381.434174 429.108948,381.316620 401.613739,381.324768 
	C395.046356,381.326721 395.022797,381.357666 395.021454,388.004272 
	C395.014862,420.498260 395.021912,452.992249 395.024719,486.480743 
z"/>
<path fill="#000000" opacity="1.000000" stroke="none" 
	d="
M374.470459,744.193359 
	C372.523682,749.302979 368.129456,750.770630 364.011169,752.490417 
	C360.928772,753.777649 359.672150,750.948608 357.719635,749.078552 
	C355.697449,750.914001 353.824585,753.687622 350.604980,751.618225 
	C347.548370,749.653442 349.260925,746.933472 349.836853,744.346741 
	C345.105530,741.400635 340.706757,738.028137 342.110565,731.700439 
	C343.279907,726.429626 347.598633,724.643555 352.701782,724.381042 
	C352.026276,721.672607 349.511810,721.872559 348.088776,720.657959 
	C346.542419,719.338074 344.841309,718.075745 346.202271,715.668884 
	C347.452209,713.458435 349.402405,713.249268 351.340698,714.353333 
	C362.150238,720.510193 373.741730,725.256836 383.961792,732.482788 
	C385.710632,733.719238 387.635651,734.766174 389.599609,735.625793 
	C393.262756,737.229126 396.736206,739.291199 398.231201,732.659668 
	C399.093231,728.835815 407.023590,727.426941 410.441284,729.741150 
	C412.326874,731.017944 413.012634,732.770996 412.069122,734.936157 
	C410.595001,738.319214 408.204742,736.143799 405.885895,735.708618 
	C404.326752,739.002625 403.954956,741.027466 408.382202,742.810425 
	C419.780060,747.400757 432.003601,748.970032 443.500916,753.097595 
	C445.885376,753.953552 448.593079,754.338867 449.084015,757.310547 
	C449.546600,760.110718 447.031281,760.546997 445.197174,761.699158 
	C441.831268,763.813721 442.646210,767.994324 441.649231,771.153381 
	C440.620758,774.412292 439.519440,777.766113 438.805664,781.169067 
	C438.283173,783.659790 437.287689,785.834534 434.269592,785.349060 
	C431.094696,784.838318 430.518738,782.502686 431.021332,779.681274 
	C431.128876,779.077515 431.037018,778.438293 431.037018,777.513672 
	C426.836639,777.524048 423.403351,776.066284 420.507812,773.382751 
	C418.892456,771.885620 417.068420,772.589661 415.287781,772.843811 
	C410.786957,773.485962 406.948975,772.198486 404.319031,768.461609 
	C400.046631,762.391174 401.431335,757.379578 408.148163,753.672119 
	C408.846100,753.286926 409.523346,752.864258 410.286072,752.414185 
	C405.765350,748.566101 402.898193,749.159973 400.991882,753.904968 
	C398.888275,759.140930 396.538269,764.277527 394.341309,769.476624 
	C393.198334,772.181458 391.205078,772.924561 388.712677,771.690247 
	C386.346771,770.518494 386.150970,768.466431 387.182312,766.151306 
	C388.461823,763.279114 389.738312,760.399414 390.851105,757.460510 
	C392.736267,752.481628 392.070862,751.345154 386.797760,750.165894 
	C385.857025,749.955444 384.891479,749.437744 383.624939,750.279907 
	C382.646759,755.038269 382.356964,759.848572 386.093658,763.874878 
	C381.830322,769.122314 379.848907,768.963440 377.077728,763.410950 
	C372.590271,754.419617 374.247711,746.838440 382.474243,740.752808 
	C378.591125,739.670654 377.284027,735.341003 372.393005,734.516846 
	C374.202454,737.776611 375.373047,740.648682 374.470459,744.193359 
M435.947174,758.825500 
	C434.848785,757.969360 432.814697,757.169739 432.748383,758.724365 
	C432.552979,763.306030 428.785919,765.210876 426.354370,768.016968 
	C429.539978,771.191772 432.919525,771.404968 434.100647,768.283264 
	C435.158234,765.488037 437.064209,762.698914 435.947174,758.825500 
M413.498779,765.863281 
	C415.275909,765.666870 416.893127,765.056458 416.531921,762.932434 
	C416.244446,761.242065 414.859161,760.119263 413.159332,759.817444 
	C411.869537,759.588440 410.988739,760.554688 410.594727,761.662109 
	C409.854218,763.743530 410.750336,765.104675 413.498779,765.863281 
M359.546600,744.166504 
	C362.621765,746.222473 364.491669,744.047180 366.261566,742.093079 
	C366.962097,741.319580 366.714111,740.040894 365.591187,739.647766 
	C363.043274,738.755798 361.632996,740.432922 360.390778,742.281921 
	C360.116974,742.689514 359.896301,743.132751 359.546600,744.166504 
M353.756805,736.176575 
	C355.175171,735.243408 356.114380,734.152710 354.179840,732.898315 
	C353.028809,732.151978 351.466736,731.980591 350.803070,733.417847 
	C349.798920,735.592407 351.282135,736.255127 353.756805,736.176575 
M423.926392,755.676208 
	C423.010681,755.242737 421.776886,754.758362 421.309357,755.809021 
	C420.693756,757.192322 421.004822,758.687561 422.653595,759.489441 
	C424.584930,759.039978 424.929047,757.831299 423.926392,755.676208 
z"/>
<path fill="#000000" opacity="1.000000" stroke="none" 
	d="
M584.818115,431.570801 
	C584.860107,426.117523 584.811584,421.116608 584.922974,416.119263 
	C584.994507,412.908417 586.206604,410.619751 589.998047,410.807098 
	C593.455627,410.977875 595.225586,412.785248 595.231995,416.177948 
	C595.263794,433.009552 595.257446,449.841309 595.233154,466.672913 
	C595.228210,470.075775 593.192505,471.278442 590.043396,471.325317 
	C586.782776,471.373871 584.966919,469.941193 584.926331,466.627014 
	C584.861084,461.295074 584.780090,455.959869 584.899536,450.630402 
	C584.972595,447.368774 583.583313,446.040649 580.402344,446.314667 
	C579.244446,446.414398 578.057983,446.441376 576.906433,446.310120 
	C572.549805,445.813507 570.890015,447.658020 571.143433,452.039764 
	C571.421936,456.855499 571.210083,461.701569 571.157349,466.533844 
	C571.119446,470.014191 569.365234,471.699951 565.817383,471.581024 
	C562.327515,471.463989 560.733765,469.825623 560.744629,466.271759 
	C560.795532,449.606781 560.743469,432.941498 560.752441,416.276337 
	C560.754150,413.101501 561.636963,410.677155 565.542725,410.765259 
	C569.263123,410.849182 571.056580,412.749146 571.125854,416.347412 
	C571.205933,420.512421 571.486572,424.705414 571.130066,428.838806 
	C570.700256,433.822357 572.825928,435.620209 577.455322,434.854797 
	C580.060730,434.424042 583.798035,436.684204 584.818115,431.570801 
z"/>
<path fill="#000000" opacity="1.000000" stroke="none" 
	d="
M598.704163,452.997467 
	C598.691895,441.000366 598.645386,429.502655 598.681641,418.005249 
	C598.700989,411.873566 599.835144,410.796082 606.068970,410.759247 
	C610.734314,410.731659 615.400146,410.807404 620.065796,410.807220 
	C624.410767,410.807068 625.268738,413.644501 625.249023,417.159760 
	C625.229126,420.724182 623.316772,422.266815 619.838745,422.094299 
	C618.674927,422.036560 617.506348,422.069427 616.339905,422.071777 
	C609.063721,422.086273 609.447754,422.108307 609.057556,429.238770 
	C608.725952,435.298615 612.289551,434.950073 616.322571,434.950989 
	C623.299622,434.952606 624.699097,436.351685 624.267517,441.957001 
	C624.048462,444.801758 622.769470,446.251617 619.898743,446.237915 
	C619.065674,446.233948 618.232605,446.235016 617.399536,446.239380 
	C608.978882,446.283691 609.169678,446.285706 609.091797,454.955078 
	C609.054443,459.113525 610.705872,460.755585 614.653137,460.646637 
	C616.650452,460.591492 618.652954,460.726868 620.650696,460.678192 
	C624.299561,460.589264 626.288635,462.061646 626.238281,465.968170 
	C626.186951,469.950378 624.440308,471.688446 620.370911,471.508392 
	C615.214355,471.280334 610.040405,471.286377 604.878296,471.395630 
	C600.713135,471.483765 598.662231,469.781738 598.762512,465.493469 
	C598.855896,461.497284 598.732361,457.496033 598.704163,452.997467 
z"/>
<path fill="#000000" opacity="1.000000" stroke="none" 
	d="
M556.025940,467.403015 
	C555.305420,471.647186 552.661438,471.922455 549.565491,471.431549 
	C546.365540,470.924194 545.762085,468.679016 545.760132,465.938202 
	C545.748291,449.450775 545.735962,432.963226 545.670166,416.475952 
	C545.655823,412.872711 546.999207,410.786896 550.888977,410.752472 
	C554.876648,410.717163 556.107971,413.046509 556.107727,416.507599 
	C556.106567,433.328033 556.085083,450.148499 556.025940,467.403015 
z"/>
<path fill="#000000" opacity="1.000000" stroke="none" 
	d="
M488.908081,447.995392 
	C488.945221,450.823181 488.973480,453.152374 489.022034,455.481201 
	C489.205017,464.263123 486.261078,466.964691 477.263641,467.397614 
	C468.067963,467.840118 459.558807,465.262238 451.063324,462.418640 
	C446.632538,460.935577 442.596558,461.277130 438.033081,462.705322 
	C428.569824,465.667023 418.887787,468.338074 408.739990,467.197815 
	C403.625244,466.623047 401.608795,463.693237 401.560089,458.505859 
	C401.442993,446.038513 401.032745,433.573883 400.735260,421.108307 
	C400.570831,414.217926 401.367706,413.714874 408.090698,412.648071 
	C417.470551,411.159668 426.927460,410.948242 436.149261,407.123291 
	C441.065887,405.084045 448.386536,404.528778 454.173737,407.668274 
	C461.789703,411.799896 470.325195,410.875610 478.350128,412.674194 
	C478.829102,412.781555 479.349396,412.688385 479.843292,412.747894 
	C487.958649,413.725494 488.962952,414.906250 488.919617,423.037842 
	C488.876160,431.190552 488.909088,439.343689 488.908081,447.995392 
z"/>
</svg>