<?xml version="1.0" encoding="UTF-8" standalone="no"?>
<!DOCTYPE svg PUBLIC "-//W3C//DTD SVG 1.1//EN" "http://www.w3.org/Graphics/SVG/1.1/DTD/svg11.dtd">
<svg width="100%" height="100%" viewBox="0 0 1850 1500" version="1.1" xmlns="http://www.w3.org/2000/svg" xmlns:xlink="http://www.w3.org/1999/xlink" xml:space="preserve" xmlns:serif="http://www.serif.com/" style="fill-rule:evenodd;clip-rule:evenodd;stroke-linejoin:round;stroke-miterlimit:2;">
    <g transform="matrix(4.16667,0,0,4.16667,0,0)">
        <path d="M434.962,133.81C434.962,121.827 433.54,110.183 430.939,98.983C406.671,41.015 349.458,0.29 282.734,0.29C264.553,0.29 247.066,3.344 230.785,8.912C240.718,6.716 251.049,5.514 261.648,5.514C317.344,5.514 365.531,37.537 388.968,84.154C404.616,105.775 413.88,132.348 413.88,161.088C413.88,200.513 396.509,235.844 369.012,259.905C408.855,232.187 434.962,186.061 434.962,133.81Z" style="fill:rgb(157,191,229);fill-rule:nonzero;"/>
        <path d="M93.543,141.706C88.101,146.498 84.607,153.506 84.607,161.356C84.607,175.734 96.26,187.425 110.658,187.425C118.476,187.425 125.504,183.957 130.296,178.467C112.413,173.636 98.371,159.603 93.543,141.706Z" style="fill:rgb(28,120,190);fill-rule:nonzero;"/>
        <path d="M143.845,75.974C115.062,75.974 91.704,99.341 91.704,128.167C91.704,132.853 92.405,137.395 93.543,141.706C98.143,137.696 104.098,135.268 110.666,135.268C125.055,135.268 136.728,146.944 136.728,161.356C136.728,167.908 134.304,173.9 130.296,178.467C134.597,179.665 139.149,180.308 143.845,180.308C172.628,180.308 195.967,156.96 195.967,128.167C195.967,99.341 172.628,75.974 143.845,75.974Z" style="fill:rgb(226,48,50);fill-rule:nonzero;"/>
        <path d="M0,323.457L1.186,323.457C20.585,323.457 28.839,314.877 28.839,294.979L28.839,197.365L68.242,197.365L68.242,300.625C68.242,338.527 42.423,360 13.215,360L0,360L0,323.457Z" style="fill:rgb(28,120,190);fill-rule:nonzero;"/>
        <rect x="91.411" y="197.365" width="39.402" height="127.864" style="fill:rgb(28,120,190);fill-rule:nonzero;"/>
        <path d="M74.585,161.356C74.585,146.944 62.896,135.268 48.522,135.268C34.117,135.268 22.456,146.944 22.456,161.356C22.456,175.726 34.117,187.425 48.522,187.425C62.896,187.425 74.585,175.726 74.585,161.356Z" style="fill:rgb(28,120,190);fill-rule:nonzero;"/>
        <path d="M294.119,278.927L306.645,236.413L319.195,278.927L294.119,278.927ZM332.863,325.224L373.011,325.224L326.729,197.365L286.569,197.365L240.287,325.224L280.406,325.224L286.164,305.736L327.122,305.736" style="fill:rgb(28,120,190);fill-rule:nonzero;"/>
        <path d="M216.456,290.696C199.429,290.696 185.62,277.532 185.62,261.288C185.62,245.062 199.429,231.91 216.456,231.91C224.381,231.91 231.603,234.784 237.06,239.454L237.06,201.37C229.51,198.347 219.08,196.589 210.452,196.589C174.712,196.589 145.749,225.563 145.749,261.288C145.749,297.059 174.712,326 210.452,326C219.08,326 229.51,324.29 237.06,321.18L237.06,283.146C231.603,287.807 224.381,290.696 216.456,290.696Z" style="fill:rgb(28,120,190);fill-rule:nonzero;"/>
        <clipPath id="_clip1">
            <path d="M114.629,49.476L260.15,-111.155L428.759,41.595L283.239,202.226L114.629,49.476Z"/>
        </clipPath>
        <g clip-path="url(#_clip1)">
            <path d="M230.745,8.898C200.085,19.411 173.57,39.005 154.456,64.437L175.498,85.557C199.276,51.849 238.386,29.847 282.734,29.847C326.449,29.847 365.145,51.257 388.932,84.163C365.57,37.545 317.356,5.514 261.648,5.514C251.033,5.514 240.703,6.74 230.745,8.898Z" style="fill:url(#_Linear2);"/>
        </g>
        <clipPath id="_clip3">
            <path d="M262.962,192.337L401.634,56.403L538.608,196.134L399.939,332.069L262.962,192.337Z"/>
        </clipPath>
        <g clip-path="url(#_clip3)">
            <path d="M434.978,133.797C434.978,186.072 408.872,232.157 369.004,259.929C365.57,262.904 361.948,265.763 358.206,268.382L379.319,289.498C418.192,260.163 443.365,213.61 443.365,161.108C443.365,139.061 438.937,118.104 430.958,98.975C433.524,110.185 434.978,121.848 434.978,133.797Z" style="fill:url(#_Linear4);"/>
        </g>
    </g>
    <defs>
        <linearGradient id="_Linear2" x1="0" y1="0" x2="1" y2="0" gradientUnits="userSpaceOnUse" gradientTransform="matrix(157.446,173.795,173.795,-157.446,219.031,103.774)"><stop offset="0" style="stop-color:white;stop-opacity:1"/><stop offset="0.2" style="stop-color:rgb(138,164,213);stop-opacity:1"/><stop offset="0.4" style="stop-color:rgb(82,129,194);stop-opacity:1"/><stop offset="1" style="stop-color:rgb(24,111,184);stop-opacity:1"/></linearGradient>
        <linearGradient id="_Linear4" x1="0" y1="0" x2="1" y2="0" gradientUnits="userSpaceOnUse" gradientTransform="matrix(106.843,104.734,104.734,-106.843,343.531,250.399)"><stop offset="0" style="stop-color:white;stop-opacity:1"/><stop offset="0.5" style="stop-color:rgb(105,142,201);stop-opacity:1"/><stop offset="0.9" style="stop-color:rgb(32,113,185);stop-opacity:1"/><stop offset="1" style="stop-color:rgb(24,111,184);stop-opacity:1"/></linearGradient>
    </defs>
</svg>
