<svg version="1.1" id="Layer_1" xmlns="http://www.w3.org/2000/svg" xmlns:xlink="http://www.w3.org/1999/xlink" x="0px" y="0px"
	 width="100%" viewBox="0 0 133 62" enable-background="new 0 0 133 62" xml:space="preserve">
<path fill="#FCFDFE" opacity="1.000000" stroke="none" 
	d="
M89.000000,63.000000 
	C60.500004,63.000000 32.499714,62.941628 4.500452,63.085209 
	C1.515811,63.100513 0.884963,62.486488 0.912927,59.499199 
	C1.086089,41.000824 1.056234,22.499651 0.933620,4.000466 
	C0.917037,1.498533 1.500198,0.930746 4.000108,0.936022 
	C46.333248,1.025369 88.666679,1.025361 130.999817,0.936036 
	C133.499542,0.930762 134.082748,1.498305 134.066376,4.000383 
	C133.944229,22.666248 133.944229,41.333641 134.066330,59.999504 
	C134.082703,62.501312 133.503143,63.092934 130.999374,63.067425 
	C117.167458,62.926517 103.333351,63.000000 89.000000,63.000000 
z"/>
<path fill="#2F4C8F" opacity="1.000000" stroke="none" 
	d="
M39.807243,23.675919 
	C39.822021,23.340385 39.751148,23.184109 39.802418,23.115313 
	C41.506863,18.739103 45.192844,19.925343 48.270168,20.210077 
	C51.618500,20.519890 50.941940,23.469566 50.966427,25.667139 
	C51.043865,32.617329 50.823925,39.574795 51.060818,46.517441 
	C51.194588,50.437786 49.793045,52.081429 45.462509,51.724911 
	C42.779610,48.445087 44.433693,44.634682 44.111149,40.999916 
	C43.805241,37.552628 44.045353,34.056881 43.670773,30.465757 
	C40.577854,35.460434 39.435608,41.229908 37.176098,46.532253 
	C36.249146,48.707516 36.906467,52.035145 32.817318,52.118755 
	C28.579828,52.205395 28.204638,49.052788 27.202332,46.350674 
	C24.901527,40.147953 22.684755,33.914059 20.211258,27.849689 
	C19.261984,28.728868 19.519394,29.619198 19.769205,30.732563 
	C20.060017,37.351826 20.149031,43.712299 20.139595,50.531895 
	C14.566394,51.848366 14.543860,51.848476 14.519705,46.883808 
	C14.477695,38.249786 14.562855,29.615477 14.344130,20.523054 
	C17.010143,18.549541 20.017555,19.631636 22.918724,19.380301 
	C24.688137,19.227009 25.000378,20.625563 25.440632,21.901812 
	C27.766285,28.643637 30.117905,35.376503 32.617416,42.563625 
	C34.466232,37.426853 36.217808,32.560265 38.124744,27.345594 
	C38.959797,26.091082 39.365005,25.045633 39.807243,23.675919 
z"/>
<path fill="#345091" opacity="1.000000" stroke="none" 
	d="
M91.397041,51.709267 
	C89.159637,51.007069 90.099754,49.315979 90.086784,48.048996 
	C89.997589,39.333229 90.054909,30.615965 90.154121,21.436531 
	C90.565361,20.528913 90.948380,20.152546 91.698830,19.805241 
	C96.001228,18.968416 100.063156,19.427181 104.544662,19.751083 
	C105.370834,20.431604 105.912651,20.525652 106.751251,20.242466 
	C114.707230,21.279182 118.478172,25.133255 119.260071,32.612904 
	C120.175743,41.372299 116.610107,48.180237 109.553452,50.789310 
	C107.718559,51.467728 105.692299,51.628578 103.354034,51.955521 
	C99.245064,51.049839 95.491386,51.649490 91.397041,51.709267 
z"/>
<path fill="#2F4C8F" opacity="1.000000" stroke="none" 
	d="
M76.189293,51.878410 
	C74.897835,52.202660 73.839676,52.288460 72.406601,52.226723 
	C71.373535,51.271206 70.475067,51.523636 69.338196,51.675491 
	C60.254204,49.167175 56.376286,42.362442 58.030312,32.487553 
	C59.328564,24.736734 66.045395,19.350189 74.128105,19.493313 
	C75.516098,19.517891 76.909798,19.219881 78.682907,19.187140 
	C82.233955,20.224632 83.797447,22.053423 82.264343,25.771011 
	C80.357262,25.786522 78.747467,25.379763 77.114662,25.237976 
	C70.455475,24.659716 65.542908,29.108633 65.412201,35.750683 
	C65.283112,42.311367 69.581863,46.324875 76.457039,46.057770 
	C77.116814,46.032139 77.775307,45.950455 78.434799,45.945038 
	C80.131775,45.931099 82.495628,43.716503 83.225853,47.047764 
	C83.807808,49.702644 82.421349,51.405422 79.360428,51.949615 
	C78.174522,51.305584 77.298309,51.475101 76.189293,51.878410 
z"/>
<path fill="#2A4B90" opacity="1.000000" stroke="none" 
	d="
M45.443066,51.988594 
	C49.626461,51.339157 50.356907,48.489712 50.091282,44.350246 
	C49.718933,38.547668 50.077065,32.701618 49.951103,26.877871 
	C49.910645,25.007305 51.043884,22.176323 48.827827,21.479740 
	C46.187206,20.649696 42.932018,19.795536 40.183262,22.828176 
	C40.675678,16.530113 45.709660,19.935978 48.856541,19.482025 
	C52.603985,18.941444 51.206116,22.303513 51.239906,24.077599 
	C51.385254,31.707605 50.941792,39.365276 51.433643,46.966228 
	C51.741367,51.721756 49.906963,52.742001 45.443066,51.988594 
z"/>
<path fill="#123987" opacity="1.000000" stroke="none" 
	d="
M14.058310,20.507027 
	C15.934340,27.080612 14.580070,34.211342 14.988819,41.277328 
	C15.094181,43.098709 15.150173,44.945511 14.973374,46.755688 
	C14.659810,49.966156 15.824819,51.504292 19.606100,50.984108 
	C14.744474,53.193878 13.880184,52.767853 13.873292,47.823685 
	C13.860805,38.865623 13.892736,29.907499 14.058310,20.507027 
z"/>
<path fill="#24478D" opacity="1.000000" stroke="none" 
	d="
M82.203018,26.253225 
	C82.247231,23.553230 82.084259,21.209684 79.266449,19.580137 
	C84.158676,20.277630 84.456474,20.909050 82.203018,26.253225 
z"/>
<path fill="#103987" opacity="1.000000" stroke="none" 
	d="
M91.487846,51.950943 
	C94.736458,50.167007 98.567215,51.078640 102.659882,51.606445 
	C99.283257,51.928909 95.612396,51.973915 91.487846,51.950943 
z"/>
<path fill="#2A4B90" opacity="1.000000" stroke="none" 
	d="
M39.554379,23.557302 
	C39.850029,24.561481 40.423634,25.913595 38.637482,26.891186 
	C38.615646,25.923082 38.951191,24.848652 39.554379,23.557302 
z"/>
<path fill="#1F4089" opacity="1.000000" stroke="none" 
	d="
M91.680962,19.590611 
	C91.800476,20.373732 91.490074,20.881916 90.480927,20.949455 
	C90.083626,20.046591 90.368698,19.466328 91.680962,19.590611 
z"/>
<path fill="#123987" opacity="1.000000" stroke="none" 
	d="
M20.022943,30.618942 
	C18.914452,30.280752 18.819471,29.393427 19.738543,28.186127 
	C20.017391,28.753214 20.046137,29.499872 20.022943,30.618942 
z"/>
<path fill="#193D88" opacity="1.000000" stroke="none" 
	d="
M69.406769,51.930603 
	C69.850601,50.881462 70.738235,50.808231 71.868263,51.820480 
	C71.277237,52.067928 70.522781,52.056671 69.406769,51.930603 
z"/>
<path fill="#193D88" opacity="1.000000" stroke="none" 
	d="
M76.332924,52.184052 
	C76.592285,50.994198 77.475456,50.800568 78.772827,51.662975 
	C78.217094,52.020473 77.463470,52.135857 76.332924,52.184052 
z"/>
<path fill="#1F4089" opacity="1.000000" stroke="none" 
	d="
M106.655525,19.960442 
	C106.516998,20.798145 105.958084,21.037670 105.099983,20.154400 
	C105.420761,19.894535 105.874458,19.875164 106.655525,19.960442 
z"/>
<path fill="#F9FAFC" opacity="1.000000" stroke="none" 
	d="
M97.595825,35.052452 
	C97.595909,33.576382 97.595467,32.580727 97.595688,31.585075 
	C97.597183,24.878851 99.411270,23.663895 105.804825,26.086908 
	C110.730713,27.953711 112.958260,33.620083 111.058266,39.450436 
	C109.470901,44.321457 103.933159,47.293388 99.163155,46.063187 
	C97.522346,45.640018 97.612175,44.642426 97.604889,43.498055 
	C97.588013,40.843082 97.597061,38.187946 97.595825,35.052452 
z"/>
</svg>