<svg version="1.1" id="Layer_1" xmlns="http://www.w3.org/2000/svg" xmlns:xlink="http://www.w3.org/1999/xlink" x="0px" y="0px"
	 width="50rem" viewBox="0 0 672 384" enable-background="new 0 0 672 384" xml:space="preserve">
<path fill="#000000" opacity="1.000000" stroke="none" 
	d="
M384.252838,230.836060 
	C386.689819,237.565643 388.996429,243.927948 391.183685,249.960922 
	C389.623169,251.861252 388.087128,251.790085 386.608307,251.769943 
	C378.787964,251.663544 370.964325,251.331741 363.149536,251.481247 
	C359.315643,251.554581 357.653168,250.140930 356.444153,246.526962 
	C352.381317,234.382538 347.910736,222.374268 343.573364,210.322128 
	C342.776215,208.107224 342.157654,206.081635 343.302521,203.632172 
	C348.302979,192.933807 353.086823,182.134338 357.997192,171.393478 
	C358.459106,170.383118 358.907104,169.200272 361.236420,168.711487 
	C368.831909,189.207687 376.477203,209.838242 384.252838,230.836060 
z"/>
<path fill="#000000" opacity="1.000000" stroke="none" 
	d="
M331.400635,192.678406 
	C333.150208,196.672180 334.786957,200.304947 336.439117,203.930695 
	C337.305542,205.832047 337.428589,207.743362 336.761444,209.745285 
	C332.722473,221.865097 328.608582,233.961548 324.744934,246.137253 
	C323.523499,249.986389 321.808960,251.778458 317.359192,251.544006 
	C308.943878,251.100647 300.488586,251.415863 290.667816,251.415863 
	C300.476654,223.466141 309.916626,196.567490 319.865845,168.217804 
	C325.147675,176.771423 327.773346,184.765686 331.400635,192.678406 
z"/>
<path fill="#000000" opacity="1.000000" stroke="none" 
	d="
M336.000000,274.165558 
	C322.191742,274.166290 308.883423,274.193207 295.575256,274.155304 
	C289.211761,274.137177 288.664062,273.589325 288.636749,267.398254 
	C288.584290,255.507736 287.597900,256.699432 299.341675,256.671600 
	C328.951660,256.601379 358.561859,256.632141 388.171997,256.632019 
	C394.941833,256.631989 395.086151,256.764618 395.769836,263.439575 
	C395.905060,264.759644 395.953369,266.097534 395.921112,267.424286 
	C395.771332,273.583984 395.155609,274.174591 388.901611,274.175781 
	C371.434418,274.179077 353.967194,274.169556 336.000000,274.165558 
z"/>
<path fill="#000000" opacity="1.000000" stroke="none" 
	d="
M330.178345,240.263641 
	C333.188782,230.920135 336.065399,221.949036 338.897797,213.115799 
	C341.247498,213.222382 341.470215,214.770599 341.906219,215.912155 
	C345.701752,225.848984 349.494873,235.788025 353.133423,245.782928 
	C354.865631,250.541214 354.243439,251.338516 349.184387,251.389786 
	C342.076263,251.461807 334.966827,251.407974 327.797455,251.407974 
	C327.059814,246.939850 329.340454,243.959366 330.178345,240.263641 
z"/>
<path fill="#000000" opacity="1.000000" stroke="none" 
	d="
M349.332397,169.759277 
	C348.112183,161.921341 344.921112,155.720108 339.852722,150.009506 
	C332.527161,141.755722 332.364807,128.538681 338.863129,120.480713 
	C340.248871,124.500603 338.363922,128.269577 338.925568,132.169083 
	C339.880951,138.802643 342.674255,143.957199 346.672333,149.011307 
	C352.800659,156.758392 355.834167,165.502319 353.353760,175.503647 
	C352.937042,177.183975 352.786682,179.156403 350.112213,179.989258 
	C349.886383,176.586761 349.673431,173.377991 349.332397,169.759277 
z"/>
<path fill="#000000" opacity="1.000000" stroke="none" 
	d="
M338.807770,159.233658 
	C345.078827,167.284058 348.807068,175.711029 346.264618,185.816635 
	C345.798279,187.670120 345.614380,189.760147 343.303833,191.362991 
	C342.803589,187.591507 342.083344,184.137604 341.938812,180.659775 
	C341.639191,173.448425 338.480255,167.737778 333.798340,162.442871 
	C325.790710,153.386810 325.057495,139.653610 332.292084,130.817291 
	C330.197937,141.217773 331.305511,150.837631 338.807770,159.233658 
z"/>
<path fill="#000000" opacity="1.000000" stroke="none" 
	d="
M324.816772,138.486938 
	C322.941162,149.789673 324.763031,159.473389 332.555573,168.383911 
	C339.184998,175.964432 341.356171,185.433960 338.148590,195.518814 
	C337.900543,196.298706 337.478729,197.034119 337.056427,197.741699 
	C336.917206,197.974930 336.521454,198.055069 336.204895,198.225784 
	C334.353790,197.117706 335.011902,195.292603 335.025146,193.736862 
	C335.103241,184.569351 332.591583,176.630417 326.193481,169.582626 
	C318.261536,160.845245 317.622101,149.295395 323.380219,138.885376 
	C323.568787,138.544434 324.188934,138.442154 324.816772,138.486938 
z"/>
</svg>