<?xml version="1.0" encoding="utf-8"?>
<!-- Generator: Adobe Illustrator 19.0.0, SVG Export Plug-In . SVG Version: 6.00 Build 0)  -->
<svg version="1.1" id="layer" xmlns="http://www.w3.org/2000/svg" xmlns:xlink="http://www.w3.org/1999/xlink" x="0px" y="0px"
	 viewBox="-153 -46 652 652" style="enable-background:new -153 -46 652 652;" xml:space="preserve">
<style type="text/css">
	.st0{fill-rule:evenodd;clip-rule:evenodd;fill:#264796;}
	.st1{fill:none;stroke:#264796;stroke-width:0.5;stroke-miterlimit:2.6131;}
	.st2{fill-rule:evenodd;clip-rule:evenodd;fill:#2B2A29;}
	.st3{fill:none;stroke:#2B2A29;stroke-width:0.2001;stroke-miterlimit:2.6131;}
	.st4{fill-rule:evenodd;clip-rule:evenodd;fill:#FECC00;}
	.st5{fill-rule:evenodd;clip-rule:evenodd;fill:#D9DADA;}
	.st6{fill-rule:evenodd;clip-rule:evenodd;fill:#27488D;}
	.st7{fill-rule:evenodd;clip-rule:evenodd;fill:#FEFEFE;}
</style>
<path class="st0" d="M-108.6,395.8c-9.3,0-12.2-8.5-12.2-16.8c0-8.2,2.9-16.8,12.2-16.8c9.3,0,12.2,8.6,12.2,16.8
	S-99.3,395.8-108.6,395.8L-108.6,395.8z M-108.6,397.6c10.3,0,18.1-7.8,18.1-18.6c0-10.9-7.7-18.6-18.1-18.6
	c-10.4,0-18.1,7.7-18.1,18.6C-126.7,389.8-118.9,397.6-108.6,397.6L-108.6,397.6z"/>
<path class="st1" d="M-108.6,395.8c-9.3,0-12.2-8.5-12.2-16.8c0-8.2,2.9-16.8,12.2-16.8c9.3,0,12.2,8.6,12.2,16.8
	S-99.3,395.8-108.6,395.8L-108.6,395.8z M-108.6,397.6c10.3,0,18.1-7.8,18.1-18.6c0-10.9-7.7-18.6-18.1-18.6
	c-10.4,0-18.1,7.7-18.1,18.6C-126.7,389.8-118.9,397.6-108.6,397.6L-108.6,397.6z"/>
<path class="st0" d="M-82.1,397.4c1.5,0,2.8-1.3,2.8-3c0-1.6-1.3-3-2.8-3c-1.6,0-2.9,1.3-2.9,3C-84.9,396.1-83.7,397.4-82.1,397.4z"
	/>
<path class="st1" d="M-82.1,397.4c1.5,0,2.8-1.3,2.8-3c0-1.6-1.3-3-2.8-3c-1.6,0-2.9,1.3-2.9,3C-84.9,396.1-83.7,397.4-82.1,397.4z"
	/>
<path class="st0" d="M-61.8,378.2v-15.4c1.1-0.1,2.1-0.1,3.2-0.1c5.2,0,7.8,2,7.8,7.7c0,4.7-2.4,7.8-7,7.8L-61.8,378.2z
	 M-61.8,379.9h4.9c2.4,0,5.1-0.1,7.2-1.3c2.8-1.6,4.3-4.6,4.3-7.9c0-9.2-8-9.4-14.7-9.4l-12,0v1.6c3.3,0.2,5.1,0.3,5.1,4.3l0,23.6
	c0,4-1.7,4.1-5.1,4.3v1.6h15.3v-1.6c-3.3-0.2-5.1-0.2-5.1-4.3V379.9z"/>
<path class="st1" d="M-61.8,378.2v-15.4c1.1-0.1,2.1-0.1,3.2-0.1c5.2,0,7.8,2,7.8,7.7c0,4.7-2.4,7.8-7,7.8L-61.8,378.2z
	 M-61.8,379.9h4.9c2.4,0,5.1-0.1,7.2-1.3c2.8-1.6,4.3-4.6,4.3-7.9c0-9.2-8-9.4-14.7-9.4l-12,0v1.6c3.3,0.2,5.1,0.3,5.1,4.3l0,23.6
	c0,4-1.7,4.1-5.1,4.3v1.6h15.3v-1.6c-3.3-0.2-5.1-0.2-5.1-4.3V379.9z"/>
<path class="st0" d="M-39.2,397.4c1.5,0,2.8-1.3,2.8-3c0-1.6-1.3-3-2.8-3c-1.6,0-2.9,1.3-2.9,3C-42.1,396.1-40.8,397.4-39.2,397.4z"
	/>
<path class="st1" d="M-39.2,397.4c1.5,0,2.8-1.3,2.8-3c0-1.6-1.3-3-2.8-3c-1.6,0-2.9,1.3-2.9,3C-42.1,396.1-40.8,397.4-39.2,397.4z"
	/>
<path class="st0" d="M-18.8,362.9c3.2,0.2,5.1,0.3,5.1,4.3V400c0,5-1.6,9.3-7.2,9.3c-1.3,0-3.1-0.1-3.1-1.8c0.2-0.5,0.3-1,0.3-1.5
	c0-1.3-1-2.6-2.3-2.6c-1.4,0-2.7,1.3-2.7,2.8c0,3.9,5.3,4.8,8.1,4.8c3.8,0,7.7-1.9,9.9-5.1c2-2.8,2.1-6.2,2.1-9.5v-29.2
	c0-1.2,0-2.8,1.2-3.5c1.2-0.6,2.7-0.7,3.9-0.7v-1.6h-15.3V362.9z"/>
<path class="st1" d="M-18.8,362.9c3.2,0.2,5.1,0.3,5.1,4.3V400c0,5-1.6,9.3-7.2,9.3c-1.3,0-3.1-0.1-3.1-1.8c0.2-0.5,0.3-1,0.3-1.5
	c0-1.3-1-2.6-2.3-2.6c-1.4,0-2.7,1.3-2.7,2.8c0,3.9,5.3,4.8,8.1,4.8c3.8,0,7.7-1.9,9.9-5.1c2-2.8,2.1-6.2,2.1-9.5v-29.2
	c0-1.2,0-2.8,1.2-3.5c1.2-0.6,2.7-0.7,3.9-0.7v-1.6h-15.3V362.9z"/>
<path class="st0" d="M3.5,370.6c1.4,0,2.6-1.2,2.6-2.7c0-1.4-1.2-2.7-2.6-2.7c-1.4,0-2.7,1.1-2.7,2.7C0.8,369.5,2.1,370.6,3.5,370.6
	z M5.5,374.3c-2.6,0.6-5.1,1.1-7.7,1.5v1.6c2.6,0.1,3.4,1.7,3.4,4.3v9.1c0,2.7-0.7,4.2-3.4,4.3v1.6H8.9v-1.6
	c-2.8-0.1-3.4-1.6-3.4-4.3V374.3z"/>
<path class="st1" d="M3.5,370.6c1.4,0,2.6-1.2,2.6-2.7c0-1.4-1.2-2.7-2.6-2.7c-1.4,0-2.7,1.1-2.7,2.7C0.8,369.5,2.1,370.6,3.5,370.6
	z M5.5,374.3c-2.6,0.6-5.1,1.1-7.7,1.5v1.6c2.6,0.1,3.4,1.7,3.4,4.3v9.1c0,2.7-0.7,4.2-3.4,4.3v1.6H8.9v-1.6
	c-2.8-0.1-3.4-1.6-3.4-4.3V374.3z"/>
<path class="st0" d="M17.3,374.3c-2.3,0.7-4.6,1.1-7,1.5v1.6c2.6,0.1,3.4,1.7,3.4,4.3v9.1c0,2.7-0.7,4.2-3.4,4.3v1.6h11.1v-1.6
	c-2.8-0.1-3.4-1.6-3.4-4.3v-11.5c1.6-1.4,3.3-2.6,5.4-2.6c3.3,0,4.4,2,4.4,5.2v8.9c0,2.7-0.7,4.2-3.4,4.3v1.6h11v-1.6
	c-2.7-0.1-3.4-1.6-3.4-4.3v-9.6c0-4.3-1.7-7.2-6.2-7.2c-3.1,0-5.6,1.4-7.9,3.5C17.9,376.4,17.8,375.4,17.3,374.3z"/>
<path class="st1" d="M17.3,374.3c-2.3,0.7-4.6,1.1-7,1.5v1.6c2.6,0.1,3.4,1.7,3.4,4.3v9.1c0,2.7-0.7,4.2-3.4,4.3v1.6h11.1v-1.6
	c-2.8-0.1-3.4-1.6-3.4-4.3v-11.5c1.6-1.4,3.3-2.6,5.4-2.6c3.3,0,4.4,2,4.4,5.2v8.9c0,2.7-0.7,4.2-3.4,4.3v1.6h11v-1.6
	c-2.7-0.1-3.4-1.6-3.4-4.3v-9.6c0-4.3-1.7-7.2-6.2-7.2c-3.1,0-5.6,1.4-7.9,3.5C17.9,376.4,17.8,375.4,17.3,374.3z"/>
<path class="st0" d="M55.3,391.1c-1.3,2.4-3.5,4-6.2,4c-4.7,0-6.4-5-6.4-9.1c0-4.2,1.1-9.6,6.1-9.6c2.7,0,5.4,1.1,6.5,3.8V391.1z
	 M55.3,377.2c-1.7-2.2-4.4-3.2-7-3.2c-6.5,0-10.2,5.2-10.2,11.6c0,6.5,4.2,11.7,10.7,11.7c2.7,0,5.1-1,7.3-2.5
	c0.1,0.8,0.4,1.5,0.7,2.2c2-0.2,4.1-0.3,6.2-0.3v-1.6c-2.6-0.1-3.5-1.7-3.5-4.3v-31c-2.5,0.6-5.1,1.1-7.7,1.5v1.6
	c2.6,0.1,3.4,1.7,3.4,4.3V377.2z"/>
<path class="st1" d="M55.3,391.1c-1.3,2.4-3.5,4-6.2,4c-4.7,0-6.4-5-6.4-9.1c0-4.2,1.1-9.6,6.1-9.6c2.7,0,5.4,1.1,6.5,3.8V391.1z
	 M55.3,377.2c-1.7-2.2-4.4-3.2-7-3.2c-6.5,0-10.2,5.2-10.2,11.6c0,6.5,4.2,11.7,10.7,11.7c2.7,0,5.1-1,7.3-2.5
	c0.1,0.8,0.4,1.5,0.7,2.2c2-0.2,4.1-0.3,6.2-0.3v-1.6c-2.6-0.1-3.5-1.7-3.5-4.3v-31c-2.5,0.6-5.1,1.1-7.7,1.5v1.6
	c2.6,0.1,3.4,1.7,3.4,4.3V377.2z"/>
<path class="st0" d="M78.2,384.6v7.4c-1.3,1.2-2.9,2.2-4.6,2.2c-2.2,0-3.6-1.7-3.6-3.9C70.2,386.2,75.4,385.9,78.2,384.6L78.2,384.6
	z M85.9,392c0,0.2-0.1,0.3-0.1,0.4c-0.3,1.2-0.8,2.4-2.1,2.4c-1.2-0.1-1.3-1.4-1.3-2.3v-11.7c0-5.3-3.6-6.7-8.1-6.7
	c-2.8,0-8.2,1.4-8.2,5.2c0,1.2,1.3,1.8,2.2,1.8c3.5,0,1.3-5.3,5.9-5.3c3.6,0,4,2.4,4,5.6v1.8c-4.8,2.1-12.4,1.3-12.4,8.8
	c0,3.1,1.9,5.4,5,5.4c2.8,0,5.7-1.6,7.4-3.7c0.3,2.4,1.8,3.8,4.2,3.8c3,0,4.4-2.6,5.1-5.3L85.9,392z"/>
<path class="st1" d="M78.2,384.6v7.4c-1.3,1.2-2.9,2.2-4.6,2.2c-2.2,0-3.6-1.7-3.6-3.9C70.2,386.2,75.4,385.9,78.2,384.6L78.2,384.6
	z M85.9,392c0,0.2-0.1,0.3-0.1,0.4c-0.3,1.2-0.8,2.4-2.1,2.4c-1.2-0.1-1.3-1.4-1.3-2.3v-11.7c0-5.3-3.6-6.7-8.1-6.7
	c-2.8,0-8.2,1.4-8.2,5.2c0,1.2,1.3,1.8,2.2,1.8c3.5,0,1.3-5.3,5.9-5.3c3.6,0,4,2.4,4,5.6v1.8c-4.8,2.1-12.4,1.3-12.4,8.8
	c0,3.1,1.9,5.4,5,5.4c2.8,0,5.7-1.6,7.4-3.7c0.3,2.4,1.8,3.8,4.2,3.8c3,0,4.4-2.6,5.1-5.3L85.9,392z"/>
<path class="st0" d="M78.2,384.6v7.4c-1.3,1.2-2.9,2.2-4.6,2.2c-2.2,0-3.6-1.7-3.6-3.9C70.2,386.2,75.4,385.9,78.2,384.6L78.2,384.6
	z M85.9,392c0,0-0.1,0.3-0.1,0.4c-0.3,1.2-0.8,2.4-2.1,2.4c-1.2-0.1-1.3-1.4-1.3-2.3v-11.7c0-5.3-3.6-6.7-8.1-6.7
	c-2.8,0-8.2,1.4-8.2,5.2c0,1.2,1.3,1.8,2.2,1.8c3.5,0,1.3-5.3,5.9-5.3c3.6,0,4,2.4,4,5.6v1.8c-4.8,2.1-12.4,1.3-12.4,8.8
	c0,3.1,1.9,5.4,5,5.4c2.8,0,5.7-1.6,7.4-3.7c0.3,2.4,1.8,3.8,4.2,3.8c3,0,4.4-2.6,5.1-5.3L85.9,392z"/>
<path class="st1" d="M78.2,384.6v7.4c-1.3,1.2-2.9,2.2-4.6,2.2c-2.2,0-3.6-1.7-3.6-3.9C70.2,386.2,75.4,385.9,78.2,384.6L78.2,384.6
	z M85.9,392c0,0-0.1,0.3-0.1,0.4c-0.3,1.2-0.8,2.4-2.1,2.4c-1.2-0.1-1.3-1.4-1.3-2.3v-11.7c0-5.3-3.6-6.7-8.1-6.7
	c-2.8,0-8.2,1.4-8.2,5.2c0,1.2,1.3,1.8,2.2,1.8c3.5,0,1.3-5.3,5.9-5.3c3.6,0,4,2.4,4,5.6v1.8c-4.8,2.1-12.4,1.3-12.4,8.8
	c0,3.1,1.9,5.4,5,5.4c2.8,0,5.7-1.6,7.4-3.7c0.3,2.4,1.8,3.8,4.2,3.8c3,0,4.4-2.6,5.1-5.3L85.9,392z"/>
<path class="st0" d="M98.5,396.7v-1.6c-2.8-0.1-3.4-1.6-3.4-4.3v-31c-2.5,0.6-5.1,1.1-7.7,1.4v1.6c2.6,0.1,3.4,1.7,3.4,4.3v23.6
	c0,2.7-0.7,4.2-3.4,4.3v1.6H98.5z"/>
<path class="st1" d="M98.5,396.7v-1.6c-2.8-0.1-3.4-1.6-3.4-4.3v-31c-2.5,0.6-5.1,1.1-7.7,1.4v1.6c2.6,0.1,3.4,1.7,3.4,4.3v23.6
	c0,2.7-0.7,4.2-3.4,4.3v1.6H98.5z"/>
<path class="st0" d="M136.1,381.3v1.6h1.2c2.5,0,4,0.6,4,3.3v4.8c0,2.7-5.8,4.4-8.4,4.4c-8.1,0-11.3-8.8-11.3-15.9
	c0-8,2.3-17.5,11.7-17.5c6.3,0,10.4,5.2,11.3,11.3l1.7,0l-0.3-12.1h-1.4c-0.3,0.9-0.6,1.8-1.1,2.6c-2.9-2.3-6.7-3.5-10.3-3.5
	c-10.6,0-17.5,9.1-17.5,19.7c0,9.9,7.1,17.5,16.7,17.5c5.1,0,9.1-2.8,14-3.5v-7.9c0-2.5,1.5-3.3,3.7-3.3h0.8v-1.6H136.1z"/>
<path class="st1" d="M136.1,381.3v1.6h1.2c2.5,0,4,0.6,4,3.3v4.8c0,2.7-5.8,4.4-8.4,4.4c-8.1,0-11.3-8.8-11.3-15.9
	c0-8,2.3-17.5,11.7-17.5c6.3,0,10.4,5.2,11.3,11.3l1.7,0l-0.3-12.1h-1.4c-0.3,0.9-0.6,1.8-1.1,2.6c-2.9-2.3-6.7-3.5-10.3-3.5
	c-10.6,0-17.5,9.1-17.5,19.7c0,9.9,7.1,17.5,16.7,17.5c5.1,0,9.1-2.8,14-3.5v-7.9c0-2.5,1.5-3.3,3.7-3.3h0.8v-1.6H136.1z"/>
<path class="st0" d="M163.3,396.7v-1.6c-2.8-0.1-3.4-1.6-3.4-4.3v-31c-2.6,0.6-5.1,1.1-7.7,1.4v1.6c2.6,0.1,3.4,1.7,3.4,4.3v23.6
	c0,2.7-0.7,4.2-3.4,4.3v1.6H163.3z"/>
<path class="st1" d="M163.3,396.7v-1.6c-2.8-0.1-3.4-1.6-3.4-4.3v-31c-2.6,0.6-5.1,1.1-7.7,1.4v1.6c2.6,0.1,3.4,1.7,3.4,4.3v23.6
	c0,2.7-0.7,4.2-3.4,4.3v1.6H163.3z"/>
<path class="st0" d="M183.4,385.9c0,4.4-1.3,9.9-6.4,9.9c-5.1,0-6.4-5.2-6.4-9.6c0-4.6,0.9-10.6,6.4-10.6
	C182.7,375.6,183.4,381.3,183.4,385.9L183.4,385.9z M188,385.8c0-7.1-3.9-11.7-10.9-11.7s-11.1,4.9-11.1,12c0,7.1,4.3,11.3,11,11.3
	C183.6,397.3,188,392.6,188,385.8z"/>
<path class="st1" d="M183.4,385.9c0,4.4-1.3,9.9-6.4,9.9c-5.1,0-6.4-5.2-6.4-9.6c0-4.6,0.9-10.6,6.4-10.6
	C182.7,375.6,183.4,381.3,183.4,385.9L183.4,385.9z M188,385.8c0-7.1-3.9-11.7-10.9-11.7s-11.1,4.9-11.1,12c0,7.1,4.3,11.3,11,11.3
	C183.6,397.3,188,392.6,188,385.8z"/>
<path class="st0" d="M198.4,391.1v-10.9c1.1-2.7,3.8-3.8,6.5-3.8c5.1,0,6.1,5.4,6.1,9.6c0,4.1-1.6,9.1-6.4,9.1
	C201.9,395.2,199.8,393.5,198.4,391.1z M198.4,377.2v-17.4c-2.6,0.6-5.1,1.1-7.7,1.5v1.6c2.6,0.1,3.4,1.7,3.4,4.3v29.5l1.8,0.3
	c0.4-0.9,0.9-1.6,1.6-2.2c2.2,1.5,4.6,2.5,7.3,2.5c6.5,0,10.7-5.2,10.7-11.7c0-6.4-3.6-11.6-10.2-11.6
	C202.8,374,200.1,375,198.4,377.2L198.4,377.2z"/>
<path class="st1" d="M198.4,391.1v-10.9c1.1-2.7,3.8-3.8,6.5-3.8c5.1,0,6.1,5.4,6.1,9.6c0,4.1-1.6,9.1-6.4,9.1
	C201.9,395.2,199.8,393.5,198.4,391.1z M198.4,377.2v-17.4c-2.6,0.6-5.1,1.1-7.7,1.5v1.6c2.6,0.1,3.4,1.7,3.4,4.3v29.5l1.8,0.3
	c0.4-0.9,0.9-1.6,1.6-2.2c2.2,1.5,4.6,2.5,7.3,2.5c6.5,0,10.7-5.2,10.7-11.7c0-6.4-3.6-11.6-10.2-11.6
	C202.8,374,200.1,375,198.4,377.2L198.4,377.2z"/>
<path class="st0" d="M232.1,384.6v7.4c-1.3,1.2-2.9,2.2-4.6,2.2c-2.2,0-3.6-1.7-3.6-3.9C224.2,386.2,229.3,385.9,232.1,384.6
	L232.1,384.6z M239.9,392c0,0.2-0.1,0.3-0.1,0.4c-0.3,1.2-0.8,2.4-2.1,2.4c-1.2-0.1-1.3-1.4-1.3-2.3v-11.7c0-5.3-3.6-6.7-8.1-6.7
	c-2.8,0-8.2,1.4-8.2,5.2c0,1.2,1.3,1.8,2.2,1.8c3.5,0,1.3-5.3,5.9-5.3c3.6,0,4,2.4,4,5.6v1.8c-4.8,2.1-12.4,1.3-12.4,8.8
	c0,3.1,1.9,5.4,5,5.4c2.8,0,5.7-1.6,7.4-3.7c0.3,2.4,1.8,3.8,4.2,3.8c3,0,4.4-2.6,5.1-5.3L239.9,392z"/>
<path class="st1" d="M232.1,384.6v7.4c-1.3,1.2-2.9,2.2-4.6,2.2c-2.2,0-3.6-1.7-3.6-3.9C224.2,386.2,229.3,385.9,232.1,384.6
	L232.1,384.6z M239.9,392c0,0.2-0.1,0.3-0.1,0.4c-0.3,1.2-0.8,2.4-2.1,2.4c-1.2-0.1-1.3-1.4-1.3-2.3v-11.7c0-5.3-3.6-6.7-8.1-6.7
	c-2.8,0-8.2,1.4-8.2,5.2c0,1.2,1.3,1.8,2.2,1.8c3.5,0,1.3-5.3,5.9-5.3c3.6,0,4,2.4,4,5.6v1.8c-4.8,2.1-12.4,1.3-12.4,8.8
	c0,3.1,1.9,5.4,5,5.4c2.8,0,5.7-1.6,7.4-3.7c0.3,2.4,1.8,3.8,4.2,3.8c3,0,4.4-2.6,5.1-5.3L239.9,392z"/>
<path class="st0" d="M232.1,384.6v7.4c-1.3,1.2-2.9,2.2-4.6,2.2c-2.2,0-3.6-1.7-3.6-3.9C224.2,386.2,229.3,385.9,232.1,384.6
	L232.1,384.6z M239.9,392c0,0-0.1,0.3-0.1,0.4c-0.3,1.2-0.8,2.4-2.1,2.4c-1.2-0.1-1.3-1.4-1.3-2.3v-11.7c0-5.3-3.6-6.7-8.1-6.7
	c-2.8,0-8.2,1.4-8.2,5.2c0,1.2,1.3,1.8,2.2,1.8c3.5,0,1.3-5.3,5.9-5.3c3.6,0,4,2.4,4,5.6v1.8c-4.8,2.1-12.4,1.3-12.4,8.8
	c0,3.1,1.9,5.4,5,5.4c2.8,0,5.7-1.6,7.4-3.7c0.3,2.4,1.8,3.8,4.2,3.8c3,0,4.4-2.6,5.1-5.3L239.9,392z"/>
<path class="st1" d="M232.1,384.6v7.4c-1.3,1.2-2.9,2.2-4.6,2.2c-2.2,0-3.6-1.7-3.6-3.9C224.2,386.2,229.3,385.9,232.1,384.6
	L232.1,384.6z M239.9,392c0,0-0.1,0.3-0.1,0.4c-0.3,1.2-0.8,2.4-2.1,2.4c-1.2-0.1-1.3-1.4-1.3-2.3v-11.7c0-5.3-3.6-6.7-8.1-6.7
	c-2.8,0-8.2,1.4-8.2,5.2c0,1.2,1.3,1.8,2.2,1.8c3.5,0,1.3-5.3,5.9-5.3c3.6,0,4,2.4,4,5.6v1.8c-4.8,2.1-12.4,1.3-12.4,8.8
	c0,3.1,1.9,5.4,5,5.4c2.8,0,5.7-1.6,7.4-3.7c0.3,2.4,1.8,3.8,4.2,3.8c3,0,4.4-2.6,5.1-5.3L239.9,392z"/>
<path class="st0" d="M252.4,396.7v-1.6c-2.8-0.1-3.4-1.6-3.4-4.3v-31c-2.6,0.6-5.1,1.1-7.7,1.4v1.6c2.6,0.1,3.4,1.7,3.4,4.3v23.6
	c0,2.7-0.7,4.2-3.4,4.3v1.6H252.4z"/>
<path class="st1" d="M252.4,396.7v-1.6c-2.8-0.1-3.4-1.6-3.4-4.3v-31c-2.6,0.6-5.1,1.1-7.7,1.4v1.6c2.6,0.1,3.4,1.7,3.4,4.3v23.6
	c0,2.7-0.7,4.2-3.4,4.3v1.6H252.4z"/>
<path class="st0" d="M289.9,361.3v1.6c3.4,0.3,5.1,0.7,5.1,4.6v16.7v0.5c0,6.2-1.4,11.1-8.4,11.1c-7.6,0-8.5-4.8-8.5-11.5v-17
	c0-4.7,2.8-4.2,5.1-4.3v-1.6H268v1.6c3.4,0.2,5.1,0.3,5.1,4.3v17.6c0,10.8,4.1,12.8,13.6,12.8c8.3,0,10.5-5.4,10.5-13v-17.1
	c0-1.3,0-3,1.2-3.8c1.1-0.7,2.7-0.7,3.9-0.8v-1.6H289.9z"/>
<path class="st1" d="M289.9,361.3v1.6c3.4,0.3,5.1,0.7,5.1,4.6v16.7v0.5c0,6.2-1.4,11.1-8.4,11.1c-7.6,0-8.5-4.8-8.5-11.5v-17
	c0-4.7,2.8-4.2,5.1-4.3v-1.6H268v1.6c3.4,0.2,5.1,0.3,5.1,4.3v17.6c0,10.8,4.1,12.8,13.6,12.8c8.3,0,10.5-5.4,10.5-13v-17.1
	c0-1.3,0-3,1.2-3.8c1.1-0.7,2.7-0.7,3.9-0.8v-1.6H289.9z"/>
<path class="st0" d="M310.6,374.3c-2.3,0.7-4.6,1.1-7,1.5v1.6c2.6,0.1,3.4,1.7,3.4,4.3v9.1c0,2.7-0.7,4.2-3.4,4.3v1.6h11.1v-1.6
	c-2.8-0.1-3.4-1.6-3.4-4.3l0-11.5c1.6-1.4,3.3-2.6,5.4-2.6c3.3,0,4.4,2,4.4,5.2v8.9c0,2.7-0.7,4.2-3.4,4.3l0,1.6h11v-1.6
	c-2.7-0.1-3.4-1.6-3.4-4.3v-9.6c0-4.3-1.7-7.2-6.2-7.2c-3.1,0-5.6,1.4-7.9,3.5C311.2,376.4,311.1,375.4,310.6,374.3z"/>
<path class="st1" d="M310.6,374.3c-2.3,0.7-4.6,1.1-7,1.5v1.6c2.6,0.1,3.4,1.7,3.4,4.3v9.1c0,2.7-0.7,4.2-3.4,4.3v1.6h11.1v-1.6
	c-2.8-0.1-3.4-1.6-3.4-4.3l0-11.5c1.6-1.4,3.3-2.6,5.4-2.6c3.3,0,4.4,2,4.4,5.2v8.9c0,2.7-0.7,4.2-3.4,4.3l0,1.6h11v-1.6
	c-2.7-0.1-3.4-1.6-3.4-4.3v-9.6c0-4.3-1.7-7.2-6.2-7.2c-3.1,0-5.6,1.4-7.9,3.5C311.2,376.4,311.1,375.4,310.6,374.3z"/>
<path class="st0" d="M310.6,374.3c-2.3,0.7-4.6,1.1-7,1.5v1.6c2.6,0.1,3.4,1.7,3.4,4.3v9.1c0,2.7-0.7,4.2-3.4,4.3v1.6h11.1v-1.6
	c-2.8-0.1-3.4-1.6-3.4-4.3v-11.5c1.6-1.4,3.3-2.6,5.4-2.6c3.3,0,4.4,2,4.4,5.2v8.9c0,2.7-0.7,4.2-3.4,4.3l0,1.6h11v-1.6
	c-2.7-0.1-3.4-1.6-3.4-4.3v-9.6c0-4.3-1.7-7.2-6.2-7.2c-3.1,0-5.6,1.4-7.9,3.5C311.2,376.4,311.1,375.4,310.6,374.3z"/>
<path class="st1" d="M310.6,374.3c-2.3,0.7-4.6,1.1-7,1.5v1.6c2.6,0.1,3.4,1.7,3.4,4.3v9.1c0,2.7-0.7,4.2-3.4,4.3v1.6h11.1v-1.6
	c-2.8-0.1-3.4-1.6-3.4-4.3v-11.5c1.6-1.4,3.3-2.6,5.4-2.6c3.3,0,4.4,2,4.4,5.2v8.9c0,2.7-0.7,4.2-3.4,4.3l0,1.6h11v-1.6
	c-2.7-0.1-3.4-1.6-3.4-4.3v-9.6c0-4.3-1.7-7.2-6.2-7.2c-3.1,0-5.6,1.4-7.9,3.5C311.2,376.4,311.1,375.4,310.6,374.3z"/>
<path class="st0" d="M336.3,370.6c1.4,0,2.6-1.2,2.6-2.7c0-1.4-1.2-2.7-2.6-2.7c-1.4,0-2.7,1.1-2.7,2.7
	C333.6,369.5,334.8,370.6,336.3,370.6z M338.3,374.3c-2.6,0.6-5.1,1.1-7.7,1.5v1.6c2.6,0.1,3.4,1.7,3.4,4.3v9.1
	c0,2.7-0.7,4.2-3.4,4.3v1.6h11.1v-1.6c-2.8-0.1-3.4-1.6-3.4-4.3V374.3z"/>
<path class="st1" d="M336.3,370.6c1.4,0,2.6-1.2,2.6-2.7c0-1.4-1.2-2.7-2.6-2.7c-1.4,0-2.7,1.1-2.7,2.7
	C333.6,369.5,334.8,370.6,336.3,370.6z M338.3,374.3c-2.6,0.6-5.1,1.1-7.7,1.5v1.6c2.6,0.1,3.4,1.7,3.4,4.3v9.1
	c0,2.7-0.7,4.2-3.4,4.3v1.6h11.1v-1.6c-2.8-0.1-3.4-1.6-3.4-4.3V374.3z"/>
<path class="st0" d="M365.7,374.7h-7.4v1.6l0.5,0.1c0.7,0.1,1.7,0.2,1.7,1.1c-0.1,0.3-0.2,0.6-0.3,1l-5.5,12.8l-5.2-12.4
	c-0.2-0.5-0.4-1-0.4-1.5c0.2-1.1,1.4-0.6,2-1l0-1.6h-9.6v1.6c1.1,0,2.2,0.3,2.8,1.4l8.5,19h1.3l8.4-19c0.5-1.1,2-1.4,3.1-1.4V374.7z
	"/>
<path class="st1" d="M365.7,374.7h-7.4v1.6l0.5,0.1c0.7,0.1,1.7,0.2,1.7,1.1c-0.1,0.3-0.2,0.6-0.3,1l-5.5,12.8l-5.2-12.4
	c-0.2-0.5-0.4-1-0.4-1.5c0.2-1.1,1.4-0.6,2-1l0-1.6h-9.6v1.6c1.1,0,2.2,0.3,2.8,1.4l8.5,19h1.3l8.4-19c0.5-1.1,2-1.4,3.1-1.4V374.7z
	"/>
<path class="st0" d="M382.2,383h-9.9c0.1-3.4,1.5-7,5.3-7c3.7,0,4.7,3.2,4.7,6.5C382.3,382.7,382.2,382.8,382.2,383z M386.8,384.9
	c0-5.5-3.2-10.8-8.9-10.8c-6.5,0-10.3,5.6-10.3,11.9c0,6.4,4,11.4,10.4,11.4c3.8,0,6.7-1.9,8.8-5.2l-1.5-0.9c-1.6,2.4-3.6,4-6.5,4
	c-5.5,0-6.5-5.8-6.5-10.4L386.8,384.9z"/>
<path class="st1" d="M382.2,383h-9.9c0.1-3.4,1.5-7,5.3-7c3.7,0,4.7,3.2,4.7,6.5C382.3,382.7,382.2,382.8,382.2,383z M386.8,384.9
	c0-5.5-3.2-10.8-8.9-10.8c-6.5,0-10.3,5.6-10.3,11.9c0,6.4,4,11.4,10.4,11.4c3.8,0,6.7-1.9,8.8-5.2l-1.5-0.9c-1.6,2.4-3.6,4-6.5,4
	c-5.5,0-6.5-5.8-6.5-10.4L386.8,384.9z"/>
<path class="st0" d="M382.2,383h-9.9c0.1-3.4,1.5-7,5.3-7c3.7,0,4.7,3.2,4.7,6.5C382.3,382.7,382.2,383,382.2,383z M386.8,384.9
	c0-5.5-3.2-10.8-8.9-10.8c-6.5,0-10.3,5.6-10.3,11.9c0,6.4,4,11.4,10.4,11.4c3.8,0,6.7-1.9,8.8-5.2l-1.5-0.9c-1.6,2.4-3.6,4-6.5,4
	c-5.5,0-6.5-5.8-6.5-10.4L386.8,384.9z"/>
<path class="st1" d="M382.2,383h-9.9c0.1-3.4,1.5-7,5.3-7c3.7,0,4.7,3.2,4.7,6.5C382.3,382.7,382.2,383,382.2,383z M386.8,384.9
	c0-5.5-3.2-10.8-8.9-10.8c-6.5,0-10.3,5.6-10.3,11.9c0,6.4,4,11.4,10.4,11.4c3.8,0,6.7-1.9,8.8-5.2l-1.5-0.9c-1.6,2.4-3.6,4-6.5,4
	c-5.5,0-6.5-5.8-6.5-10.4L386.8,384.9z"/>
<path class="st0" d="M397,380c0.8-1.4,2.3-2.7,4-2.7c1.5,0,1.8,2,3.3,2c1.1-0.1,1.8-1.2,1.8-2.2c0-1.7-1.5-2.8-3-2.8
	c-2.6,0-4.6,1.9-6.1,3.9c0-1.4,0-2.7-0.7-4c-2.3,0.7-4.6,1.1-7,1.5v1.6c2.6,0.1,3.4,1.7,3.4,4.3v9.1c0,2.7-0.7,4.2-3.4,4.3v1.6h11.4
	v-1.5c-2.9-0.5-3.7-0.9-3.7-4.3L397,380z"/>
<path class="st1" d="M397,380c0.8-1.4,2.3-2.7,4-2.7c1.5,0,1.8,2,3.3,2c1.1-0.1,1.8-1.2,1.8-2.2c0-1.7-1.5-2.8-3-2.8
	c-2.6,0-4.6,1.9-6.1,3.9c0-1.4,0-2.7-0.7-4c-2.3,0.7-4.6,1.1-7,1.5v1.6c2.6,0.1,3.4,1.7,3.4,4.3v9.1c0,2.7-0.7,4.2-3.4,4.3v1.6h11.4
	v-1.5c-2.9-0.5-3.7-0.9-3.7-4.3L397,380z"/>
<path class="st0" d="M397,380c0.8-1.4,2.3-2.7,4-2.7c1.5,0,1.8,2,3.3,2c1.1-0.1,1.8-1.2,1.8-2.2c0-1.7-1.5-2.8-3-2.8
	c-2.6,0-4.6,1.9-6.1,3.9c0-1.4,0-2.7-0.7-4c-2.3,0.7-4.6,1.1-7,1.5v1.6c2.6,0.1,3.4,1.7,3.4,4.3v9.1c0,2.7-0.7,4.2-3.4,4.3v1.6h11.4
	v-1.5c-2.9-0.5-3.7-0.9-3.7-4.3V380z"/>
<path class="st1" d="M397,380c0.8-1.4,2.3-2.7,4-2.7c1.5,0,1.8,2,3.3,2c1.1-0.1,1.8-1.2,1.8-2.2c0-1.7-1.5-2.8-3-2.8
	c-2.6,0-4.6,1.9-6.1,3.9c0-1.4,0-2.7-0.7-4c-2.3,0.7-4.6,1.1-7,1.5v1.6c2.6,0.1,3.4,1.7,3.4,4.3v9.1c0,2.7-0.7,4.2-3.4,4.3v1.6h11.4
	v-1.5c-2.9-0.5-3.7-0.9-3.7-4.3V380z"/>
<path class="st0" d="M421,374.7h-1.2l-1,1.9c-1.4-1.5-3-2.6-5.1-2.6c-3.6,0-5.8,2.6-5.8,6.2c0,7,10.8,6.5,10.8,11.7
	c0,2.1-1.7,3.3-3.6,3.3c-3.4,0-5.7-2.9-6.1-6.2l-1.2,0v7.6h1.2l0.9-1.8c1.5,1.4,3.7,2.4,5.8,2.4c3.8,0,6.3-2.8,6.3-6.7
	c0-7.5-10.9-6.8-10.9-11.6c0-1.8,1.3-3,3-3c3.2,0,5.1,3.1,5.7,6h1.2V374.7z"/>
<path class="st1" d="M421,374.7h-1.2l-1,1.9c-1.4-1.5-3-2.6-5.1-2.6c-3.6,0-5.8,2.6-5.8,6.2c0,7,10.8,6.5,10.8,11.7
	c0,2.1-1.7,3.3-3.6,3.3c-3.4,0-5.7-2.9-6.1-6.2l-1.2,0v7.6h1.2l0.9-1.8c1.5,1.4,3.7,2.4,5.8,2.4c3.8,0,6.3-2.8,6.3-6.7
	c0-7.5-10.9-6.8-10.9-11.6c0-1.8,1.3-3,3-3c3.2,0,5.1,3.1,5.7,6h1.2V374.7z"/>
<path class="st0" d="M430,370.6c1.4,0,2.6-1.2,2.6-2.7c0-1.4-1.2-2.7-2.6-2.7c-1.4,0-2.7,1.1-2.7,2.7
	C427.3,369.5,428.6,370.6,430,370.6z M432.1,374.3c-2.6,0.6-5.1,1.1-7.7,1.5v1.6c2.6,0.1,3.4,1.7,3.4,4.3v9.1c0,2.7-0.7,4.2-3.4,4.3
	v1.6h11.1v-1.6c-2.8-0.1-3.4-1.6-3.4-4.3V374.3z"/>
<path class="st1" d="M430,370.6c1.4,0,2.6-1.2,2.6-2.7c0-1.4-1.2-2.7-2.6-2.7c-1.4,0-2.7,1.1-2.7,2.7
	C427.3,369.5,428.6,370.6,430,370.6z M432.1,374.3c-2.6,0.6-5.1,1.1-7.7,1.5v1.6c2.6,0.1,3.4,1.7,3.4,4.3v9.1c0,2.7-0.7,4.2-3.4,4.3
	v1.6h11.1v-1.6c-2.8-0.1-3.4-1.6-3.4-4.3V374.3z"/>
<path class="st0" d="M449.2,374.5h-5.7v-7.9h-1.7c0,3.3-1.4,7.8-5,8.4v1.2h2.5v13.7c0,3.7,1,7,5.2,7c2.7,0,4.8-1.9,6.2-4.1l-1-0.9
	c-1,1.1-2,2.3-3.6,2.3c-2,0-2.5-2.6-2.5-4.3v-13.7h5.7V374.5z"/>
<path class="st1" d="M449.2,374.5h-5.7v-7.9h-1.7c0,3.3-1.4,7.8-5,8.4v1.2h2.5v13.7c0,3.7,1,7,5.2,7c2.7,0,4.8-1.9,6.2-4.1l-1-0.9
	c-1,1.1-2,2.3-3.6,2.3c-2,0-2.5-2.6-2.5-4.3v-13.7h5.7V374.5z"/>
<path class="st0" d="M473.3,374.7h-7.4v1.6h0.4c0.6,0.1,2-0.1,2,0.9v0.1c-0.1,0.4-0.2,0.8-0.4,1.2l-5.4,12.4l-5.5-12.4
	c-0.1-0.3-0.2-0.6-0.2-1c0-1.1,1.5-1.1,2.2-1.1v-1.6h-9.8v1.6c1.5,0.1,2.5,0.6,3.2,2.1l8,17.7c-1.8,3.8-4.4,12.1-9.4,12.1
	c-0.3,0-0.5-0.1-0.8-0.1c-0.3,0.4-0.4,0.7-0.4,1.2c0,1.4,1.3,2.1,2.5,2.1c3.6,0,5.5-5.3,6.7-8.2l10.9-24.8c0.7-1.4,1.5-1.9,3-2
	l0.5-0.1V374.7z"/>
<path class="st1" d="M473.3,374.7h-7.4v1.6h0.4c0.6,0.1,2-0.1,2,0.9v0.1c-0.1,0.4-0.2,0.8-0.4,1.2l-5.4,12.4l-5.5-12.4
	c-0.1-0.3-0.2-0.6-0.2-1c0-1.1,1.5-1.1,2.2-1.1v-1.6h-9.8v1.6c1.5,0.1,2.5,0.6,3.2,2.1l8,17.7c-1.8,3.8-4.4,12.1-9.4,12.1
	c-0.3,0-0.5-0.1-0.8-0.1c-0.3,0.4-0.4,0.7-0.4,1.2c0,1.4,1.3,2.1,2.5,2.1c3.6,0,5.5-5.3,6.7-8.2l10.9-24.8c0.7-1.4,1.5-1.9,3-2
	l0.5-0.1V374.7z"/>
<path class="st2" d="M-61.2,426.3h-4.5l5-7.2L-61.2,426.3z M-58,414.8h-1.3l-11.1,16.1c-1,1.4-1.7,2.4-3.5,2.4l-0.3,0.9h6.8l0.3-0.9
	h-0.7c-0.6,0-1.6,0-1.6-0.9c0-0.7,0.6-1.4,0.9-1.9l2.2-3.2h5.2l-0.3,4c-0.1,1.8-0.9,2-2.6,2l-0.3,0.9h7.1l0.2-0.9
	c-1.4,0-2-0.1-2-1.9L-58,414.8z"/>
<path class="st3" d="M-61.2,426.3h-4.5l5-7.2L-61.2,426.3z M-58,414.8h-1.3l-11.1,16.1c-1,1.4-1.7,2.4-3.5,2.4l-0.3,0.9h6.8l0.3-0.9
	h-0.7c-0.6,0-1.6,0-1.6-0.9c0-0.7,0.6-1.4,0.9-1.9l2.2-3.2h5.2l-0.3,4c-0.1,1.8-0.9,2-2.6,2l-0.3,0.9h7.1l0.2-0.9
	c-1.4,0-2-0.1-2-1.9L-58,414.8z"/>
<path class="st2" d="M-39.7,424.5l2.5-8.5h1c2.4,0,3.7,0.4,3.7,3.1c0,1.4-0.5,2.8-1.4,3.9c-1.1,1.4-2.6,1.4-4.2,1.4H-39.7z
	 M-39.9,425.5h1.7c2.2,0,4.4-0.1,6.3-1.3c1.5-1,2.4-2.7,2.4-4.5c0-3.3-2.4-4.5-5.4-4.5l-3.2,0h-4.4l-0.3,0.9h1.5c0.5,0,1,0.1,1,0.7
	c0,0.3-0.1,0.7-0.2,1.1l-3.8,13.1c-0.6,2-1.2,2.3-3.2,2.3l-0.3,0.9h8.1l0.3-0.9h-1c-0.7,0-1.5-0.3-1.5-1.1c0.1-0.4,0.2-0.8,0.3-1.2
	L-39.9,425.5z"/>
<path class="st3" d="M-39.7,424.5l2.5-8.5h1c2.4,0,3.7,0.4,3.7,3.1c0,1.4-0.5,2.8-1.4,3.9c-1.1,1.4-2.6,1.4-4.2,1.4H-39.7z
	 M-39.9,425.5h1.7c2.2,0,4.4-0.1,6.3-1.3c1.5-1,2.4-2.7,2.4-4.5c0-3.3-2.4-4.5-5.4-4.5l-3.2,0h-4.4l-0.3,0.9h1.5c0.5,0,1,0.1,1,0.7
	c0,0.3-0.1,0.7-0.2,1.1l-3.8,13.1c-0.6,2-1.2,2.3-3.2,2.3l-0.3,0.9h8.1l0.3-0.9h-1c-0.7,0-1.5-0.3-1.5-1.1c0.1-0.4,0.2-0.8,0.3-1.2
	L-39.9,425.5z"/>
<path class="st2" d="M-27.1,434.1l1.6-4.9c0.2-0.7,1.8-5.8,2.9-5.8c0.6,0,0.6,1,1.2,1h0c0.6,0,0.9-0.9,0.9-1.4
	c0-0.8-0.4-1.6-1.3-1.6c-1.6,0-3.1,3.2-3.5,4.4c0.1-0.7,0.2-1.5,0.2-2.2c-0.1-0.9-0.5-2-1.6-2c-1.7,0-2.6,2.8-3,4.1h1
	c0.2-0.6,0.9-2.7,1.8-2.8l0,0c0.2,0,0.3,0.3,0.3,0.5c0,1.5-0.5,3-0.9,4.5l-1.7,6.2H-27.1z"/>
<path class="st3" d="M-27.1,434.1l1.6-4.9c0.2-0.7,1.8-5.8,2.9-5.8c0.6,0,0.6,1,1.2,1h0c0.6,0,0.9-0.9,0.9-1.4
	c0-0.8-0.4-1.6-1.3-1.6c-1.6,0-3.1,3.2-3.5,4.4c0.1-0.7,0.2-1.5,0.2-2.2c-0.1-0.9-0.5-2-1.6-2c-1.7,0-2.6,2.8-3,4.1h1
	c0.2-0.6,0.9-2.7,1.8-2.8l0,0c0.2,0,0.3,0.3,0.3,0.5c0,1.5-0.5,3-0.9,4.5l-1.7,6.2H-27.1z"/>
<path class="st2" d="M-14.2,418.8c0.8,0,1.4-0.7,1.4-1.4c0-0.8-0.6-1.4-1.4-1.4c-0.8,0-1.4,0.7-1.4,1.4
	C-15.6,418.2-14.9,418.8-14.2,418.8L-14.2,418.8z M-14.9,430.7c-0.3,0.7-1.1,2.4-2,2.4c-0.3,0-0.4-0.2-0.4-0.5
	c0-0.2,0.1-0.5,0.2-0.7l2.4-7.5c0.1-0.5,0.3-0.9,0.3-1.4c0-0.9-0.8-1.4-1.7-1.4c-2,0-3.1,2.1-3.7,3.7l1,0.3c0.3-0.7,0.9-2.4,1.7-2.4
	c0.2,0,0.3,0.1,0.3,0.3c0,0.3-0.1,0.7-0.2,1l-2.3,7.1c-0.1,0.5-0.3,1-0.3,1.5c0,0.9,0.9,1.5,1.7,1.5c1.9,0,3.1-1.9,3.9-3.4
	L-14.9,430.7z"/>
<path class="st3" d="M-14.2,418.8c0.8,0,1.4-0.7,1.4-1.4c0-0.8-0.6-1.4-1.4-1.4c-0.8,0-1.4,0.7-1.4,1.4
	C-15.6,418.2-14.9,418.8-14.2,418.8L-14.2,418.8z M-14.9,430.7c-0.3,0.7-1.1,2.4-2,2.4c-0.3,0-0.4-0.2-0.4-0.5
	c0-0.2,0.1-0.5,0.2-0.7l2.4-7.5c0.1-0.5,0.3-0.9,0.3-1.4c0-0.9-0.8-1.4-1.7-1.4c-2,0-3.1,2.1-3.7,3.7l1,0.3c0.3-0.7,0.9-2.4,1.7-2.4
	c0.2,0,0.3,0.1,0.3,0.3c0,0.3-0.1,0.7-0.2,1l-2.3,7.1c-0.1,0.5-0.3,1-0.3,1.5c0,0.9,0.9,1.5,1.7,1.5c1.9,0,3.1-1.9,3.9-3.4
	L-14.9,430.7z"/>
<path class="st2" d="M-12.2,424.3l0.8,0.2c0-0.4,0.1-1,0.6-1c0.7,0,1.2,0.8,2,0.8c0.1,0,0.2,0,0.3,0c0.1,0,0.1,0,0.2,0
	c-0.2,0.2-0.3,0.5-0.5,0.7c-1.4,2.1-3.1,4.4-3.1,7c0,1.6,1.3,2.5,2.9,2.5c4.2,0,6.5-7,6.5-10.2c0-0.8-0.1-2.6-1.2-2.6
	c-0.7,0-1.1,0.6-1.1,1.2c0,1.2,0.8,2.1,0.8,3.3c0,2.1-1.8,7-4.3,7c-1,0-1.4-0.9-1.4-1.7c0-2.4,2-6.4,3.2-8.4
	c0.1-0.2,0.2-0.4,0.3-0.6c0-0.1,0-0.1,0-0.1c0-0.4-0.4-0.6-0.8-0.6c-0.3,0-0.3,0.4-0.4,0.6c-0.1,0.3-0.3,0.7-0.7,0.7h0
	c-1,0-1.2-1.5-2.2-1.5C-11.5,421.5-12,423.4-12.2,424.3z"/>
<path class="st3" d="M-12.2,424.3l0.8,0.2c0-0.4,0.1-1,0.6-1c0.7,0,1.2,0.8,2,0.8c0.1,0,0.2,0,0.3,0c0.1,0,0.1,0,0.2,0
	c-0.2,0.2-0.3,0.5-0.5,0.7c-1.4,2.1-3.1,4.4-3.1,7c0,1.6,1.3,2.5,2.9,2.5c4.2,0,6.5-7,6.5-10.2c0-0.8-0.1-2.6-1.2-2.6
	c-0.7,0-1.1,0.6-1.1,1.2c0,1.2,0.8,2.1,0.8,3.3c0,2.1-1.8,7-4.3,7c-1,0-1.4-0.9-1.4-1.7c0-2.4,2-6.4,3.2-8.4
	c0.1-0.2,0.2-0.4,0.3-0.6c0-0.1,0-0.1,0-0.1c0-0.4-0.4-0.6-0.8-0.6c-0.3,0-0.3,0.4-0.4,0.6c-0.1,0.3-0.3,0.7-0.7,0.7h0
	c-1,0-1.2-1.5-2.2-1.5C-11.5,421.5-12,423.4-12.2,424.3z"/>
<path class="st2" d="M1.2,431.7c0-2,1-4.2,2-5.9c0.7-1.1,1.9-3.3,3.5-3.3c0.5,0,1,0.4,1,0.9c0,1.4-1.3,4.3-1.9,5.7
	c-0.6,1.4-1.9,4.1-3.7,4.1C1.4,433.3,1.2,432.4,1.2,431.7z M10.9,431.1l-0.8-0.4c-0.5,0.9-1.4,2.5-2.6,2.5c-0.3,0-0.4-0.2-0.4-0.5
	c0-0.2,0.1-0.4,0.1-0.5l3.1-10.3H8.3l-0.2,0.5c-0.3-0.6-0.7-0.9-1.4-0.9c-4.2,0-7.7,6.1-7.7,9.8c0,1.5,0.9,3,2.6,3
	c1.6,0,2.8-1.1,3.8-2.2c0,1.2,0.6,2.2,1.8,2.2C8.9,434.4,10.2,432.5,10.9,431.1z"/>
<path class="st3" d="M1.2,431.7c0-2,1-4.2,2-5.9c0.7-1.1,1.9-3.3,3.5-3.3c0.5,0,1,0.4,1,0.9c0,1.4-1.3,4.3-1.9,5.7
	c-0.6,1.4-1.9,4.1-3.7,4.1C1.4,433.3,1.2,432.4,1.2,431.7z M10.9,431.1l-0.8-0.4c-0.5,0.9-1.4,2.5-2.6,2.5c-0.3,0-0.4-0.2-0.4-0.5
	c0-0.2,0.1-0.4,0.1-0.5l3.1-10.3H8.3l-0.2,0.5c-0.3-0.6-0.7-0.9-1.4-0.9c-4.2,0-7.7,6.1-7.7,9.8c0,1.5,0.9,3,2.6,3
	c1.6,0,2.8-1.1,3.8-2.2c0,1.2,0.6,2.2,1.8,2.2C8.9,434.4,10.2,432.5,10.9,431.1z"/>
<path class="st2" d="M19.5,422.2h-2l1.3-4.1h-2.3l-1.3,4.1h-1.9l-0.3,1H15l-2.4,7.7c-0.2,0.6-0.4,1.2-0.4,1.9c0,1.2,1,1.7,2,1.7
	c2.2,0,3.5-2.4,4.3-4.1l-0.9-0.4c-0.4,1-1.4,3.2-2.6,3.2c-0.4,0-0.5-0.3-0.5-0.7c0-0.3,0.1-0.5,0.2-0.8l2.7-8.5h1.9L19.5,422.2z"/>
<path class="st3" d="M19.5,422.2h-2l1.3-4.1h-2.3l-1.3,4.1h-1.9l-0.3,1H15l-2.4,7.7c-0.2,0.6-0.4,1.2-0.4,1.9c0,1.2,1,1.7,2,1.7
	c2.2,0,3.5-2.4,4.3-4.1l-0.9-0.4c-0.4,1-1.4,3.2-2.6,3.2c-0.4,0-0.5-0.3-0.5-0.7c0-0.3,0.1-0.5,0.2-0.8l2.7-8.5h1.9L19.5,422.2z"/>
<path class="st2" d="M23.5,428.2c0.4-1.4,1.8-5.5,3.7-5.5c0.4,0,0.7,0.4,0.7,0.8C27.9,425.6,25.1,427.3,23.5,428.2z M27.2,430
	c-0.5,1.2-1.6,3.3-3.2,3.3c-1.1,0-1.2-1.1-1.2-1.9c0-0.7,0.2-1.4,0.4-2.1c2.2-1,6.2-3.2,6.2-6c0-1-0.8-1.8-1.8-1.8
	c-3.9,0-6.9,6.1-6.9,9.5c0,1.7,0.9,3.4,2.8,3.4c2.2,0,3.7-2.2,4.6-4L27.2,430z"/>
<path class="st3" d="M23.5,428.2c0.4-1.4,1.8-5.5,3.7-5.5c0.4,0,0.7,0.4,0.7,0.8C27.9,425.6,25.1,427.3,23.5,428.2z M27.2,430
	c-0.5,1.2-1.6,3.3-3.2,3.3c-1.1,0-1.2-1.1-1.2-1.9c0-0.7,0.2-1.4,0.4-2.1c2.2-1,6.2-3.2,6.2-6c0-1-0.8-1.8-1.8-1.8
	c-3.9,0-6.9,6.1-6.9,9.5c0,1.7,0.9,3.4,2.8,3.4c2.2,0,3.7-2.2,4.6-4L27.2,430z"/>
<path class="st2" d="M61.9,415.2h-6.2l-0.3,0.9c0.3,0,0.7,0,1,0c0.5,0,1.3,0,1.3,0.7c0,0.4-0.1,0.7-0.2,1.1l-3.3,10.3
	c-0.9,3-2.4,5.4-5.9,5.4c-1.8,0-4.4-0.8-4.4-3c0-0.6,0.1-1.2,0.3-1.8l3.4-10.8c0.4-1.3,0.7-1.8,2.2-1.8h0.8l0.3-0.9h-7.8l-0.3,0.9h1
	c0.7,0,1.4,0.3,1.4,1.1c-0.1,0.4-0.1,0.8-0.3,1.1l-3,9.4c-0.3,0.8-0.5,1.6-0.5,2.5c0,3.6,4.1,4.5,7,4.5c4,0,6-2.6,7.2-6.1l3.3-10.6
	c0.4-1.2,0.6-1.8,2-1.8h0.7L61.9,415.2z"/>
<path class="st3" d="M61.9,415.2h-6.2l-0.3,0.9c0.3,0,0.7,0,1,0c0.5,0,1.3,0,1.3,0.7c0,0.4-0.1,0.7-0.2,1.1l-3.3,10.3
	c-0.9,3-2.4,5.4-5.9,5.4c-1.8,0-4.4-0.8-4.4-3c0-0.6,0.1-1.2,0.3-1.8l3.4-10.8c0.4-1.3,0.7-1.8,2.2-1.8h0.8l0.3-0.9h-7.8l-0.3,0.9h1
	c0.7,0,1.4,0.3,1.4,1.1c-0.1,0.4-0.1,0.8-0.3,1.1l-3,9.4c-0.3,0.8-0.5,1.6-0.5,2.5c0,3.6,4.1,4.5,7,4.5c4,0,6-2.6,7.2-6.1l3.3-10.6
	c0.4-1.2,0.6-1.8,2-1.8h0.7L61.9,415.2z"/>
<path class="st2" d="M63.2,434.1l1.6-5.1c0.6-1.7,2.2-6.2,4.3-6.2c0.4,0,0.7,0.2,0.7,0.7c0,0.7-0.3,1.4-0.5,2l-1.7,5
	c-0.3,0.7-0.5,1.5-0.5,2.3c0,1,0.7,1.6,1.8,1.6c1.9,0,3.4-2,4.1-3.5l-0.9-0.4c-0.3,0.8-1.2,2.4-2.2,2.4c-0.3,0-0.4-0.3-0.4-0.5
	c0-0.3,0.1-0.5,0.2-0.8l2-5.8c0.2-0.7,0.5-1.4,0.5-2.1c0-1.2-0.7-2.2-2.2-2.2c-1.9,0-3.4,2-4.3,3.4c0.2-0.6,0.3-1.2,0.3-1.9
	c0-0.9-0.4-1.5-1.4-1.5c-1.8,0-3,2.4-3.6,3.8l0.9,0.2c0.3-0.7,1.2-2.4,2-2.5h0c0.2,0,0.4,0.2,0.4,0.5c0,0.7-0.4,1.6-0.6,2.3
	l-2.6,8.2H63.2z"/>
<path class="st3" d="M63.2,434.1l1.6-5.1c0.6-1.7,2.2-6.2,4.3-6.2c0.4,0,0.7,0.2,0.7,0.7c0,0.7-0.3,1.4-0.5,2l-1.7,5
	c-0.3,0.7-0.5,1.5-0.5,2.3c0,1,0.7,1.6,1.8,1.6c1.9,0,3.4-2,4.1-3.5l-0.9-0.4c-0.3,0.8-1.2,2.4-2.2,2.4c-0.3,0-0.4-0.3-0.4-0.5
	c0-0.3,0.1-0.5,0.2-0.8l2-5.8c0.2-0.7,0.5-1.4,0.5-2.1c0-1.2-0.7-2.2-2.2-2.2c-1.9,0-3.4,2-4.3,3.4c0.2-0.6,0.3-1.2,0.3-1.9
	c0-0.9-0.4-1.5-1.4-1.5c-1.8,0-3,2.4-3.6,3.8l0.9,0.2c0.3-0.7,1.2-2.4,2-2.5h0c0.2,0,0.4,0.2,0.4,0.5c0,0.7-0.4,1.6-0.6,2.3
	l-2.6,8.2H63.2z"/>
<path class="st2" d="M80.4,418.8c0.8,0,1.4-0.7,1.4-1.4c0-0.8-0.6-1.4-1.4-1.4c-0.8,0-1.4,0.7-1.4,1.4
	C79,418.2,79.6,418.8,80.4,418.8L80.4,418.8z M79.7,430.7c-0.3,0.7-1.1,2.4-2,2.4c-0.3,0-0.4-0.2-0.4-0.5c0-0.2,0.1-0.5,0.2-0.7
	l2.4-7.5c0.1-0.5,0.3-0.9,0.3-1.4c0-0.9-0.8-1.4-1.7-1.4c-2,0-3.1,2.1-3.7,3.7l1,0.3c0.3-0.7,0.9-2.4,1.7-2.4c0.2,0,0.3,0.1,0.3,0.3
	c0,0.3-0.1,0.7-0.2,1l-2.3,7.1c-0.1,0.5-0.3,1-0.3,1.5c0,0.9,0.9,1.5,1.7,1.5c1.9,0,3.1-1.9,3.9-3.4L79.7,430.7z"/>
<path class="st3" d="M80.4,418.8c0.8,0,1.4-0.7,1.4-1.4c0-0.8-0.6-1.4-1.4-1.4c-0.8,0-1.4,0.7-1.4,1.4
	C79,418.2,79.6,418.8,80.4,418.8L80.4,418.8z M79.7,430.7c-0.3,0.7-1.1,2.4-2,2.4c-0.3,0-0.4-0.2-0.4-0.5c0-0.2,0.1-0.5,0.2-0.7
	l2.4-7.5c0.1-0.5,0.3-0.9,0.3-1.4c0-0.9-0.8-1.4-1.7-1.4c-2,0-3.1,2.1-3.7,3.7l1,0.3c0.3-0.7,0.9-2.4,1.7-2.4c0.2,0,0.3,0.1,0.3,0.3
	c0,0.3-0.1,0.7-0.2,1l-2.3,7.1c-0.1,0.5-0.3,1-0.3,1.5c0,0.9,0.9,1.5,1.7,1.5c1.9,0,3.1-1.9,3.9-3.4L79.7,430.7z"/>
<path class="st2" d="M82.3,424.3l0.8,0.2c0-0.4,0.1-1,0.6-1c0.7,0,1.2,0.8,2,0.8c0.1,0,0.2,0,0.3,0c0.1,0,0.1,0,0.2,0
	c-0.2,0.2-0.3,0.5-0.5,0.7c-1.4,2.1-3.1,4.4-3.1,7c0,1.6,1.3,2.5,2.9,2.5c4.2,0,6.5-7,6.5-10.2c0-0.8-0.1-2.6-1.2-2.6
	c-0.7,0-1,0.6-1,1.2c0,1.2,0.8,2.1,0.8,3.3c0,2.1-1.8,7-4.3,7c-1,0-1.4-0.9-1.4-1.7c0-2.4,2-6.4,3.2-8.4c0.1-0.2,0.2-0.4,0.3-0.6
	c0-0.1,0-0.1,0-0.1c0-0.4-0.4-0.6-0.8-0.6c-0.3,0-0.3,0.4-0.4,0.6c-0.1,0.3-0.3,0.7-0.7,0.7h0c-1,0-1.2-1.5-2.2-1.5
	C83,421.5,82.6,423.4,82.3,424.3z"/>
<path class="st3" d="M82.3,424.3l0.8,0.2c0-0.4,0.1-1,0.6-1c0.7,0,1.2,0.8,2,0.8c0.1,0,0.2,0,0.3,0c0.1,0,0.1,0,0.2,0
	c-0.2,0.2-0.3,0.5-0.5,0.7c-1.4,2.1-3.1,4.4-3.1,7c0,1.6,1.3,2.5,2.9,2.5c4.2,0,6.5-7,6.5-10.2c0-0.8-0.1-2.6-1.2-2.6
	c-0.7,0-1,0.6-1,1.2c0,1.2,0.8,2.1,0.8,3.3c0,2.1-1.8,7-4.3,7c-1,0-1.4-0.9-1.4-1.7c0-2.4,2-6.4,3.2-8.4c0.1-0.2,0.2-0.4,0.3-0.6
	c0-0.1,0-0.1,0-0.1c0-0.4-0.4-0.6-0.8-0.6c-0.3,0-0.3,0.4-0.4,0.6c-0.1,0.3-0.3,0.7-0.7,0.7h0c-1,0-1.2-1.5-2.2-1.5
	C83,421.5,82.6,423.4,82.3,424.3z"/>
<path class="st2" d="M96.2,428.2c0.4-1.4,1.8-5.5,3.7-5.5c0.4,0,0.7,0.4,0.7,0.8C100.6,425.6,97.8,427.3,96.2,428.2z M99.9,430
	c-0.5,1.2-1.6,3.3-3.2,3.3c-1.1,0-1.2-1.1-1.2-1.9c0-0.7,0.2-1.4,0.4-2.1c2.2-1,6.2-3.2,6.2-6c0-1-0.8-1.8-1.8-1.8
	c-3.9,0-6.9,6.1-6.9,9.5c0,1.7,0.9,3.4,2.8,3.4c2.2,0,3.7-2.2,4.6-4L99.9,430z"/>
<path class="st3" d="M96.2,428.2c0.4-1.4,1.8-5.5,3.7-5.5c0.4,0,0.7,0.4,0.7,0.8C100.6,425.6,97.8,427.3,96.2,428.2z M99.9,430
	c-0.5,1.2-1.6,3.3-3.2,3.3c-1.1,0-1.2-1.1-1.2-1.9c0-0.7,0.2-1.4,0.4-2.1c2.2-1,6.2-3.2,6.2-6c0-1-0.8-1.8-1.8-1.8
	c-3.9,0-6.9,6.1-6.9,9.5c0,1.7,0.9,3.4,2.8,3.4c2.2,0,3.7-2.2,4.6-4L99.9,430z"/>
<path class="st2" d="M106.6,434.1l1.6-4.9c0.2-0.7,1.8-5.8,2.9-5.8c0.6,0,0.6,1,1.2,1h0c0.6,0,0.9-0.9,0.9-1.4
	c0-0.8-0.4-1.6-1.3-1.6c-1.6,0-3.1,3.2-3.5,4.4c0.1-0.7,0.2-1.5,0.2-2.2c-0.1-0.9-0.5-2-1.6-2c-1.7,0-2.6,2.8-3,4.1h1
	c0.2-0.6,0.9-2.7,1.8-2.8l0,0c0.2,0,0.3,0.3,0.3,0.5c0,1.5-0.5,3-0.9,4.5l-1.7,6.2H106.6z"/>
<path class="st3" d="M106.6,434.1l1.6-4.9c0.2-0.7,1.8-5.8,2.9-5.8c0.6,0,0.6,1,1.2,1h0c0.6,0,0.9-0.9,0.9-1.4
	c0-0.8-0.4-1.6-1.3-1.6c-1.6,0-3.1,3.2-3.5,4.4c0.1-0.7,0.2-1.5,0.2-2.2c-0.1-0.9-0.5-2-1.6-2c-1.7,0-2.6,2.8-3,4.1h1
	c0.2-0.6,0.9-2.7,1.8-2.8l0,0c0.2,0,0.3,0.3,0.3,0.5c0,1.5-0.5,3-0.9,4.5l-1.7,6.2H106.6z"/>
<path class="st2" d="M119.2,421.6c-1.8,0-3.8,1.1-3.8,3.1c0,2.7,2.7,4.7,2.7,7.1c0,1.1-1.2,1.6-2.1,1.6c-2,0-0.5-2.7-2.4-2.7
	c-0.5,0.1-0.8,0.5-0.8,1c0,1.8,1.8,2.6,3.3,2.6c2,0,3.9-1.7,3.9-3.7c0-2.6-2.6-4.7-2.6-6.8c0-0.9,0.7-1.4,1.5-1.4
	c1.3,0,0.8,1.9,2,1.9c0.6,0,1-0.5,1-1.1C121.9,422,120.3,421.6,119.2,421.6z"/>
<path class="st3" d="M119.2,421.6c-1.8,0-3.8,1.1-3.8,3.1c0,2.7,2.7,4.7,2.7,7.1c0,1.1-1.2,1.6-2.1,1.6c-2,0-0.5-2.7-2.4-2.7
	c-0.5,0.1-0.8,0.5-0.8,1c0,1.8,1.8,2.6,3.3,2.6c2,0,3.9-1.7,3.9-3.7c0-2.6-2.6-4.7-2.6-6.8c0-0.9,0.7-1.4,1.5-1.4
	c1.3,0,0.8,1.9,2,1.9c0.6,0,1-0.5,1-1.1C121.9,422,120.3,421.6,119.2,421.6z"/>
<path class="st2" d="M129.2,418.8c0.8,0,1.4-0.7,1.4-1.4c0-0.8-0.6-1.4-1.4-1.4c-0.8,0-1.4,0.7-1.4,1.4
	C127.8,418.2,128.4,418.8,129.2,418.8L129.2,418.8z M128.5,430.7c-0.3,0.7-1.1,2.4-2,2.4c-0.3,0-0.4-0.2-0.4-0.5
	c0-0.2,0.1-0.5,0.2-0.7l2.4-7.5c0.1-0.5,0.3-0.9,0.3-1.4c0-0.9-0.8-1.4-1.7-1.4c-2,0-3.1,2.1-3.7,3.7l1,0.3c0.3-0.7,0.9-2.4,1.7-2.4
	c0.2,0,0.3,0.1,0.3,0.3c0,0.3-0.1,0.7-0.2,1l-2.3,7.1c-0.1,0.5-0.3,1-0.3,1.5c0,0.9,0.9,1.5,1.7,1.5c1.9,0,3.1-1.9,3.9-3.4
	L128.5,430.7z"/>
<path class="st3" d="M129.2,418.8c0.8,0,1.4-0.7,1.4-1.4c0-0.8-0.6-1.4-1.4-1.4c-0.8,0-1.4,0.7-1.4,1.4
	C127.8,418.2,128.4,418.8,129.2,418.8L129.2,418.8z M128.5,430.7c-0.3,0.7-1.1,2.4-2,2.4c-0.3,0-0.4-0.2-0.4-0.5
	c0-0.2,0.1-0.5,0.2-0.7l2.4-7.5c0.1-0.5,0.3-0.9,0.3-1.4c0-0.9-0.8-1.4-1.7-1.4c-2,0-3.1,2.1-3.7,3.7l1,0.3c0.3-0.7,0.9-2.4,1.7-2.4
	c0.2,0,0.3,0.1,0.3,0.3c0,0.3-0.1,0.7-0.2,1l-2.3,7.1c-0.1,0.5-0.3,1-0.3,1.5c0,0.9,0.9,1.5,1.7,1.5c1.9,0,3.1-1.9,3.9-3.4
	L128.5,430.7z"/>
<path class="st2" d="M138,422.2h-2l1.3-4.1H135l-1.3,4.1h-1.9l-0.3,1h1.9l-2.4,7.7c-0.2,0.6-0.4,1.2-0.4,1.9c0,1.2,1,1.7,2,1.7
	c2.2,0,3.5-2.4,4.3-4.1l-0.9-0.4c-0.4,1-1.4,3.2-2.6,3.2c-0.4,0-0.5-0.3-0.5-0.7c0-0.3,0.1-0.5,0.2-0.8l2.7-8.5h1.9L138,422.2z"/>
<path class="st3" d="M138,422.2h-2l1.3-4.1H135l-1.3,4.1h-1.9l-0.3,1h1.9l-2.4,7.7c-0.2,0.6-0.4,1.2-0.4,1.9c0,1.2,1,1.7,2,1.7
	c2.2,0,3.5-2.4,4.3-4.1l-0.9-0.4c-0.4,1-1.4,3.2-2.6,3.2c-0.4,0-0.5-0.3-0.5-0.7c0-0.3,0.1-0.5,0.2-0.8l2.7-8.5h1.9L138,422.2z"/>
<path class="st2" d="M139.1,425.6l0.8,0.5c0.1-0.5,0.5-2.9,1.1-3h0c0.4,0,0.5,0.7,0.5,0.9c0.1,0.7,0.2,1.3,0.3,1.9
	c0.3,1.7,0.3,3.5,0.3,5.2c0,2.6-0.3,5-2,7c-0.8,0.9-1.9,2-3.2,2c-0.6-0.2-1.1-0.5-1.7-0.5c-0.6,0-1.1,0.5-1.1,1c0,0.8,1,1.1,1.7,1.1
	c4.7,0,8.4-7.4,10.2-11c1.1-2.2,2.3-4.6,2.3-7.1c0-0.9-0.4-2.2-1.5-2.2c-0.5,0-0.9,0.5-0.9,1c0,0.9,1,1.3,1,2.2
	c0,1.9-1.8,5.6-2.9,7.3c0.1-0.9,0.1-1.8,0.1-2.7c0-1.6-0.1-7.8-2.4-7.8C140,421.6,139.4,424.4,139.1,425.6z"/>
<path class="st3" d="M139.1,425.6l0.8,0.5c0.1-0.5,0.5-2.9,1.1-3h0c0.4,0,0.5,0.7,0.5,0.9c0.1,0.7,0.2,1.3,0.3,1.9
	c0.3,1.7,0.3,3.5,0.3,5.2c0,2.6-0.3,5-2,7c-0.8,0.9-1.9,2-3.2,2c-0.6-0.2-1.1-0.5-1.7-0.5c-0.6,0-1.1,0.5-1.1,1c0,0.8,1,1.1,1.7,1.1
	c4.7,0,8.4-7.4,10.2-11c1.1-2.2,2.3-4.6,2.3-7.1c0-0.9-0.4-2.2-1.5-2.2c-0.5,0-0.9,0.5-0.9,1c0,0.9,1,1.3,1,2.2
	c0,1.9-1.8,5.6-2.9,7.3c0.1-0.9,0.1-1.8,0.1-2.7c0-1.6-0.1-7.8-2.4-7.8C140,421.6,139.4,424.4,139.1,425.6z"/>
<path class="st2" d="M164.2,424.5l2.5-8.5h1c2.4,0,3.7,0.4,3.7,3.1c0,1.4-0.5,2.8-1.4,3.9c-1.1,1.4-2.6,1.4-4.2,1.4H164.2z
	 M163.9,425.5h1.7c2.2,0,4.4-0.1,6.3-1.3c1.5-1,2.4-2.7,2.4-4.5c0-3.3-2.4-4.5-5.4-4.5l-3.2,0h-4.4l-0.3,0.9h1.5c0.5,0,1,0.1,1,0.7
	c0,0.3-0.1,0.7-0.2,1.1l-3.8,13.1c-0.6,2-1.2,2.3-3.2,2.3l-0.3,0.9h8.1l0.3-0.9h-1c-0.7,0-1.5-0.3-1.5-1.1c0.1-0.4,0.2-0.8,0.3-1.2
	L163.9,425.5z"/>
<path class="st3" d="M164.2,424.5l2.5-8.5h1c2.4,0,3.7,0.4,3.7,3.1c0,1.4-0.5,2.8-1.4,3.9c-1.1,1.4-2.6,1.4-4.2,1.4H164.2z
	 M163.9,425.5h1.7c2.2,0,4.4-0.1,6.3-1.3c1.5-1,2.4-2.7,2.4-4.5c0-3.3-2.4-4.5-5.4-4.5l-3.2,0h-4.4l-0.3,0.9h1.5c0.5,0,1,0.1,1,0.7
	c0,0.3-0.1,0.7-0.2,1.1l-3.8,13.1c-0.6,2-1.2,2.3-3.2,2.3l-0.3,0.9h8.1l0.3-0.9h-1c-0.7,0-1.5-0.3-1.5-1.1c0.1-0.4,0.2-0.8,0.3-1.2
	L163.9,425.5z"/>
<path class="st2" d="M176.8,434.1l1.6-4.9c0.2-0.7,1.8-5.8,2.9-5.8c0.6,0,0.6,1,1.2,1h0c0.6,0,0.9-0.9,0.9-1.4
	c0-0.8-0.4-1.6-1.3-1.6c-1.6,0-3.1,3.2-3.5,4.4c0.1-0.7,0.2-1.5,0.2-2.2c-0.1-0.9-0.5-2-1.6-2c-1.7,0-2.6,2.8-3,4.1h1
	c0.2-0.6,0.9-2.7,1.8-2.8l0,0c0.2,0,0.3,0.3,0.3,0.5c0,1.5-0.5,3-0.9,4.5l-1.7,6.2H176.8z"/>
<path class="st3" d="M176.8,434.1l1.6-4.9c0.2-0.7,1.8-5.8,2.9-5.8c0.6,0,0.6,1,1.2,1h0c0.6,0,0.9-0.9,0.9-1.4
	c0-0.8-0.4-1.6-1.3-1.6c-1.6,0-3.1,3.2-3.5,4.4c0.1-0.7,0.2-1.5,0.2-2.2c-0.1-0.9-0.5-2-1.6-2c-1.7,0-2.6,2.8-3,4.1h1
	c0.2-0.6,0.9-2.7,1.8-2.8l0,0c0.2,0,0.3,0.3,0.3,0.5c0,1.5-0.5,3-0.9,4.5l-1.7,6.2H176.8z"/>
<path class="st2" d="M191.4,424.2c-0.1,2.2-1.5,9.2-4.4,9.2c-1,0-1.2-1.2-1.2-1.9c0.2-2.3,1.5-8.8,4.4-8.8
	C191,422.7,191.4,423.5,191.4,424.2L191.4,424.2z M193.3,426c0-1.9-0.7-4.4-3-4.4c-4.1,0-6.4,5-6.4,8.5c0,1.9,0.7,4.4,3.1,4.4
	c1.2,0,2.4-0.6,3.3-1.4C192.2,431.3,193.1,428.6,193.3,426L193.3,426z"/>
<path class="st3" d="M191.4,424.2c-0.1,2.2-1.5,9.2-4.4,9.2c-1,0-1.2-1.2-1.2-1.9c0.2-2.3,1.5-8.8,4.4-8.8
	C191,422.7,191.4,423.5,191.4,424.2L191.4,424.2z M193.3,426c0-1.9-0.7-4.4-3-4.4c-4.1,0-6.4,5-6.4,8.5c0,1.9,0.7,4.4,3.1,4.4
	c1.2,0,2.4-0.6,3.3-1.4C192.2,431.3,193.1,428.6,193.3,426L193.3,426z"/>
<path class="st2" d="M195.8,425.6c0.3-0.7,1.2-2.4,2-2.5h0c0.2,0,0.4,0.2,0.4,0.5c0,0.7-0.4,1.6-0.6,2.2l-2.6,8.2h2.3l1.6-5.2
	c0.5-1.6,2.1-6.1,4.3-6.1c0.4,0,0.7,0.3,0.7,0.7c0,0.3-0.1,0.7-0.2,1l-3,9.6h2.2l1.6-5.1c0.6-1.8,2.2-6.1,4.6-6.1
	c0.4,0,0.7,0.3,0.7,0.7c0,0.3-0.1,0.7-0.2,1l-2,6.4c-0.2,0.5-0.3,1.1-0.3,1.6c0,1.1,0.8,1.8,1.8,1.8c1.9,0,3.1-1.8,3.9-3.3l-0.8-0.6
	c-0.3,0.8-1.3,2.7-2.4,2.7c-0.3,0-0.4-0.4-0.4-0.7c0-0.3,0.1-0.5,0.2-0.7l2.1-6.8c0.2-0.5,0.3-1.1,0.3-1.7c0-1.2-1.2-1.8-2.3-1.8
	c-1.8,0-3.1,1.5-4.1,2.9c0-0.1,0-0.1,0-0.2c0-0.1,0-0.3,0-0.4c0-1.3-0.6-2.3-2.1-2.3c-1.8,0-3,1.6-3.9,3c0.1-0.4,0.2-0.8,0.2-1.2
	c0-1-0.5-1.8-1.6-1.8c-1.8,0-3,2.4-3.6,3.8L195.8,425.6z"/>
<path class="st3" d="M195.8,425.6c0.3-0.7,1.2-2.4,2-2.5h0c0.2,0,0.4,0.2,0.4,0.5c0,0.7-0.4,1.6-0.6,2.2l-2.6,8.2h2.3l1.6-5.2
	c0.5-1.6,2.1-6.1,4.3-6.1c0.4,0,0.7,0.3,0.7,0.7c0,0.3-0.1,0.7-0.2,1l-3,9.6h2.2l1.6-5.1c0.6-1.8,2.2-6.1,4.6-6.1
	c0.4,0,0.7,0.3,0.7,0.7c0,0.3-0.1,0.7-0.2,1l-2,6.4c-0.2,0.5-0.3,1.1-0.3,1.6c0,1.1,0.8,1.8,1.8,1.8c1.9,0,3.1-1.8,3.9-3.3l-0.8-0.6
	c-0.3,0.8-1.3,2.7-2.4,2.7c-0.3,0-0.4-0.4-0.4-0.7c0-0.3,0.1-0.5,0.2-0.7l2.1-6.8c0.2-0.5,0.3-1.1,0.3-1.7c0-1.2-1.2-1.8-2.3-1.8
	c-1.8,0-3.1,1.5-4.1,2.9c0-0.1,0-0.1,0-0.2c0-0.1,0-0.3,0-0.4c0-1.3-0.6-2.3-2.1-2.3c-1.8,0-3,1.6-3.9,3c0.1-0.4,0.2-0.8,0.2-1.2
	c0-1-0.5-1.8-1.6-1.8c-1.8,0-3,2.4-3.6,3.8L195.8,425.6z"/>
<path class="st2" d="M222.3,424.2c-0.1,2.2-1.5,9.2-4.4,9.2c-1,0-1.2-1.2-1.2-1.9c0.2-2.3,1.5-8.8,4.4-8.8
	C221.9,422.7,222.3,423.5,222.3,424.2L222.3,424.2z M224.2,426c0-1.9-0.7-4.4-3-4.4c-4.1,0-6.4,5-6.4,8.5c0,1.9,0.7,4.4,3.1,4.4
	c1.2,0,2.4-0.6,3.3-1.4C223.1,431.3,224,428.6,224.2,426L224.2,426z"/>
<path class="st3" d="M222.3,424.2c-0.1,2.2-1.5,9.2-4.4,9.2c-1,0-1.2-1.2-1.2-1.9c0.2-2.3,1.5-8.8,4.4-8.8
	C221.9,422.7,222.3,423.5,222.3,424.2L222.3,424.2z M224.2,426c0-1.9-0.7-4.4-3-4.4c-4.1,0-6.4,5-6.4,8.5c0,1.9,0.7,4.4,3.1,4.4
	c1.2,0,2.4-0.6,3.3-1.4C223.1,431.3,224,428.6,224.2,426L224.2,426z"/>
<path class="st2" d="M232.6,422.2h-2l1.3-4.1h-2.3l-1.3,4.1h-1.9l-0.3,1h1.9l-2.4,7.7c-0.2,0.6-0.4,1.2-0.4,1.9c0,1.2,1,1.7,2,1.7
	c2.2,0,3.5-2.4,4.3-4.1l-0.9-0.4c-0.4,1-1.4,3.2-2.6,3.2c-0.4,0-0.5-0.3-0.5-0.7c0-0.3,0.1-0.5,0.2-0.8l2.7-8.5h1.9L232.6,422.2z"/>
<path class="st3" d="M232.6,422.2h-2l1.3-4.1h-2.3l-1.3,4.1h-1.9l-0.3,1h1.9l-2.4,7.7c-0.2,0.6-0.4,1.2-0.4,1.9c0,1.2,1,1.7,2,1.7
	c2.2,0,3.5-2.4,4.3-4.1l-0.9-0.4c-0.4,1-1.4,3.2-2.6,3.2c-0.4,0-0.5-0.3-0.5-0.7c0-0.3,0.1-0.5,0.2-0.8l2.7-8.5h1.9L232.6,422.2z"/>
<path class="st2" d="M239.6,418.8c0.8,0,1.4-0.7,1.4-1.4c0-0.8-0.6-1.4-1.4-1.4c-0.8,0-1.4,0.7-1.4,1.4
	C238.2,418.2,238.9,418.8,239.6,418.8L239.6,418.8z M238.9,430.7c-0.3,0.7-1.1,2.4-2,2.4c-0.3,0-0.4-0.2-0.4-0.5
	c0-0.2,0.1-0.5,0.2-0.7l2.4-7.5c0.1-0.5,0.3-0.9,0.3-1.4c0-0.9-0.8-1.4-1.7-1.4c-2,0-3.1,2.1-3.7,3.7l1,0.3c0.3-0.7,0.9-2.4,1.7-2.4
	c0.2,0,0.3,0.1,0.3,0.3c0,0.3-0.1,0.7-0.2,1l-2.3,7.1c-0.1,0.5-0.3,1-0.3,1.5c0,0.9,0.9,1.5,1.7,1.5c1.9,0,3.1-1.9,3.9-3.4
	L238.9,430.7z"/>
<path class="st3" d="M239.6,418.8c0.8,0,1.4-0.7,1.4-1.4c0-0.8-0.6-1.4-1.4-1.4c-0.8,0-1.4,0.7-1.4,1.4
	C238.2,418.2,238.9,418.8,239.6,418.8L239.6,418.8z M238.9,430.7c-0.3,0.7-1.1,2.4-2,2.4c-0.3,0-0.4-0.2-0.4-0.5
	c0-0.2,0.1-0.5,0.2-0.7l2.4-7.5c0.1-0.5,0.3-0.9,0.3-1.4c0-0.9-0.8-1.4-1.7-1.4c-2,0-3.1,2.1-3.7,3.7l1,0.3c0.3-0.7,0.9-2.4,1.7-2.4
	c0.2,0,0.3,0.1,0.3,0.3c0,0.3-0.1,0.7-0.2,1l-2.3,7.1c-0.1,0.5-0.3,1-0.3,1.5c0,0.9,0.9,1.5,1.7,1.5c1.9,0,3.1-1.9,3.9-3.4
	L238.9,430.7z"/>
<path class="st2" d="M244,434.1l1.6-5.1c0.6-1.7,2.2-6.2,4.3-6.2c0.4,0,0.7,0.2,0.7,0.7c0,0.7-0.3,1.4-0.5,2l-1.7,5
	c-0.3,0.7-0.5,1.5-0.5,2.3c0,1,0.7,1.6,1.8,1.6c1.9,0,3.4-2,4.1-3.5l-0.9-0.4c-0.3,0.8-1.2,2.4-2.2,2.4c-0.3,0-0.4-0.3-0.4-0.5
	c0-0.3,0.1-0.5,0.2-0.8l2-5.8c0.2-0.7,0.5-1.4,0.5-2.1c0-1.2-0.7-2.2-2.2-2.2c-1.9,0-3.4,2-4.3,3.4c0.2-0.6,0.3-1.2,0.3-1.9
	c0-0.9-0.4-1.5-1.4-1.5c-1.8,0-3,2.4-3.6,3.8l0.9,0.2c0.3-0.7,1.2-2.4,2-2.5h0c0.2,0,0.4,0.2,0.4,0.5c0,0.7-0.4,1.6-0.6,2.3
	l-2.6,8.2H244z"/>
<path class="st3" d="M244,434.1l1.6-5.1c0.6-1.7,2.2-6.2,4.3-6.2c0.4,0,0.7,0.2,0.7,0.7c0,0.7-0.3,1.4-0.5,2l-1.7,5
	c-0.3,0.7-0.5,1.5-0.5,2.3c0,1,0.7,1.6,1.8,1.6c1.9,0,3.4-2,4.1-3.5l-0.9-0.4c-0.3,0.8-1.2,2.4-2.2,2.4c-0.3,0-0.4-0.3-0.4-0.5
	c0-0.3,0.1-0.5,0.2-0.8l2-5.8c0.2-0.7,0.5-1.4,0.5-2.1c0-1.2-0.7-2.2-2.2-2.2c-1.9,0-3.4,2-4.3,3.4c0.2-0.6,0.3-1.2,0.3-1.9
	c0-0.9-0.4-1.5-1.4-1.5c-1.8,0-3,2.4-3.6,3.8l0.9,0.2c0.3-0.7,1.2-2.4,2-2.5h0c0.2,0,0.4,0.2,0.4,0.5c0,0.7-0.4,1.6-0.6,2.3
	l-2.6,8.2H244z"/>
<path class="st2" d="M262.5,423.9c0,1.6-0.9,6.2-3.1,6.2c-0.9,0-1.3-0.8-1.3-1.6c0-1.7,1.1-6,3.2-6
	C262.1,422.4,262.5,423.1,262.5,423.9L262.5,423.9z M263.2,422.5c-0.6-0.6-1.3-0.9-2.1-0.9c-2.8,0-4.9,2.9-4.9,5.5
	c0,1.2,0.5,2.2,1.6,3c-1.3,0.3-3.1,1.1-3.1,2.7c0,3.3,7.6,2.1,7.6,5.2c0,1.9-2.4,2.6-3.9,2.6c-1.4,0-3.9-0.6-3.9-2.5
	c0-1.3,1.5-1.8,1.6-2.2v0c0-0.3-0.8-0.3-1-0.3c-1.4,0-2.4,1.2-2.4,2.6c0,2.5,3.2,3.3,5.1,3.3c2.8,0,6.1-1.4,6.1-4.6
	c0-4.2-7.5-2.7-7.5-4.8c0-1.4,3.8-1,5.6-2.2c1.4-1,2.3-2.9,2.3-4.6c0-0.8-0.2-1.5-0.6-2.2c0.2-0.2,0.4-0.4,0.7-0.4
	c0.2,0,0.4,0.2,0.5,0.3c0.2,0.2,0.4,0.3,0.6,0.3c0.5,0,0.9-0.4,0.9-0.9c0-0.6-0.6-1-1.2-1C264.4,421.5,263.8,422,263.2,422.5
	L263.2,422.5z"/>
<path class="st3" d="M262.5,423.9c0,1.6-0.9,6.2-3.1,6.2c-0.9,0-1.3-0.8-1.3-1.6c0-1.7,1.1-6,3.2-6
	C262.1,422.4,262.5,423.1,262.5,423.9L262.5,423.9z M263.2,422.5c-0.6-0.6-1.3-0.9-2.1-0.9c-2.8,0-4.9,2.9-4.9,5.5
	c0,1.2,0.5,2.2,1.6,3c-1.3,0.3-3.1,1.1-3.1,2.7c0,3.3,7.6,2.1,7.6,5.2c0,1.9-2.4,2.6-3.9,2.6c-1.4,0-3.9-0.6-3.9-2.5
	c0-1.3,1.5-1.8,1.6-2.2v0c0-0.3-0.8-0.3-1-0.3c-1.4,0-2.4,1.2-2.4,2.6c0,2.5,3.2,3.3,5.1,3.3c2.8,0,6.1-1.4,6.1-4.6
	c0-4.2-7.5-2.7-7.5-4.8c0-1.4,3.8-1,5.6-2.2c1.4-1,2.3-2.9,2.3-4.6c0-0.8-0.2-1.5-0.6-2.2c0.2-0.2,0.4-0.4,0.7-0.4
	c0.2,0,0.4,0.2,0.5,0.3c0.2,0.2,0.4,0.3,0.6,0.3c0.5,0,0.9-0.4,0.9-0.9c0-0.6-0.6-1-1.2-1C264.4,421.5,263.8,422,263.2,422.5
	L263.2,422.5z"/>
<path class="st2" d="M281.8,424.5l2.5-8.5h1c2.4,0,3.7,0.4,3.7,3.1c0,1.4-0.5,2.8-1.4,3.9c-1.1,1.4-2.6,1.4-4.2,1.4H281.8z
	 M281.5,425.5h1.7c2.2,0,4.4-0.1,6.3-1.3c1.5-1,2.4-2.7,2.4-4.5c0-3.3-2.4-4.5-5.4-4.5l-3.2,0h-4.4l-0.3,0.9h1.5c0.5,0,1,0.1,1,0.7
	c0,0.3-0.1,0.7-0.2,1.1l-3.8,13.1c-0.6,2-1.2,2.3-3.2,2.3l-0.3,0.9h8.1l0.3-0.9h-1c-0.7,0-1.5-0.3-1.5-1.1c0.1-0.4,0.2-0.8,0.3-1.2
	L281.5,425.5z"/>
<path class="st3" d="M281.8,424.5l2.5-8.5h1c2.4,0,3.7,0.4,3.7,3.1c0,1.4-0.5,2.8-1.4,3.9c-1.1,1.4-2.6,1.4-4.2,1.4H281.8z
	 M281.5,425.5h1.7c2.2,0,4.4-0.1,6.3-1.3c1.5-1,2.4-2.7,2.4-4.5c0-3.3-2.4-4.5-5.4-4.5l-3.2,0h-4.4l-0.3,0.9h1.5c0.5,0,1,0.1,1,0.7
	c0,0.3-0.1,0.7-0.2,1.1l-3.8,13.1c-0.6,2-1.2,2.3-3.2,2.3l-0.3,0.9h8.1l0.3-0.9h-1c-0.7,0-1.5-0.3-1.5-1.1c0.1-0.4,0.2-0.8,0.3-1.2
	L281.5,425.5z"/>
<path class="st2" d="M303.2,422h-2.2l-1.2,3.9c-0.6,1.8-2.5,7.2-4.9,7.3h-0.1c-0.4,0-0.5-0.4-0.5-0.7c0-0.3,0.1-0.7,0.3-1l1.9-6.1
	c0.2-0.7,0.4-1.4,0.4-2.2c0-0.9-0.6-1.5-1.5-1.5c-1.9,0-3,2-3.7,3.5l0.9,0.2c0.3-0.7,0.9-2.3,1.8-2.3l0,0c0.2,0,0.3,0.2,0.3,0.3
	c0,0.2-0.1,0.5-0.1,0.7l-2.2,7c-0.1,0.5-0.3,1-0.3,1.4c0,1.2,0.8,2,2,2c1.8,0,3.3-1.9,4.2-3.2c-0.1,0.5-0.1,0.9-0.1,1.4
	c0,1,0.5,1.8,1.6,1.8c1.6,0,2.9-2.2,3.5-3.4l-0.8-0.4c-0.3,0.7-1.2,2.6-2.1,2.6l0,0c-0.3,0-0.4-0.3-0.4-0.6c0-0.3,0.1-0.6,0.2-0.8
	L303.2,422z"/>
<path class="st3" d="M303.2,422h-2.2l-1.2,3.9c-0.6,1.8-2.5,7.2-4.9,7.3h-0.1c-0.4,0-0.5-0.4-0.5-0.7c0-0.3,0.1-0.7,0.3-1l1.9-6.1
	c0.2-0.7,0.4-1.4,0.4-2.2c0-0.9-0.6-1.5-1.5-1.5c-1.9,0-3,2-3.7,3.5l0.9,0.2c0.3-0.7,0.9-2.3,1.8-2.3l0,0c0.2,0,0.3,0.2,0.3,0.3
	c0,0.2-0.1,0.5-0.1,0.7l-2.2,7c-0.1,0.5-0.3,1-0.3,1.4c0,1.2,0.8,2,2,2c1.8,0,3.3-1.9,4.2-3.2c-0.1,0.5-0.1,0.9-0.1,1.4
	c0,1,0.5,1.8,1.6,1.8c1.6,0,2.9-2.2,3.5-3.4l-0.8-0.4c-0.3,0.7-1.2,2.6-2.1,2.6l0,0c-0.3,0-0.4-0.3-0.4-0.6c0-0.3,0.1-0.6,0.2-0.8
	L303.2,422z"/>
<path class="st2" d="M314.1,423.9c-0.3,2.5-2.3,9.5-5.5,9.5c-0.6,0-0.9-0.4-0.9-1c0-1.4,1.2-4.5,1.8-5.9c0.7-1.4,1.8-3.9,3.7-3.9
	C313.9,422.6,314.1,423.3,314.1,423.9z M308.7,414.5l-0.3,0.9c0.4,0,0.8,0,1.2,0c0.4,0,0.7,0.1,0.7,0.5c-0.1,0.2-0.1,0.3-0.1,0.5
	l-4.2,13.5c-0.2,0.7-0.4,1.4-0.4,2.1c0,1.5,0.9,2.5,2.7,2.5c4.6,0,7.7-5.5,7.7-9.6c0-1.6-0.7-3.3-2.6-3.3c-1.3,0-2.3,0.7-3.1,1.6
	l2.8-9l-0.3-0.2c-1,0.3-2.2,0.5-3.3,0.5C309.3,414.5,309,414.5,308.7,414.5z"/>
<path class="st3" d="M314.1,423.9c-0.3,2.5-2.3,9.5-5.5,9.5c-0.6,0-0.9-0.4-0.9-1c0-1.4,1.2-4.5,1.8-5.9c0.7-1.4,1.8-3.9,3.7-3.9
	C313.9,422.6,314.1,423.3,314.1,423.9z M308.7,414.5l-0.3,0.9c0.4,0,0.8,0,1.2,0c0.4,0,0.7,0.1,0.7,0.5c-0.1,0.2-0.1,0.3-0.1,0.5
	l-4.2,13.5c-0.2,0.7-0.4,1.4-0.4,2.1c0,1.5,0.9,2.5,2.7,2.5c4.6,0,7.7-5.5,7.7-9.6c0-1.6-0.7-3.3-2.6-3.3c-1.3,0-2.3,0.7-3.1,1.6
	l2.8-9l-0.3-0.2c-1,0.3-2.2,0.5-3.3,0.5C309.3,414.5,309,414.5,308.7,414.5z"/>
<path class="st2" d="M320.9,414.5l-0.3,0.9h0.9c0.4,0,1,0,1,0.6c0,0.1,0,0.2-0.1,0.3l-0.1,0.3l-4.4,14c-0.2,0.7-0.4,1.4-0.4,2.1
	c0,1.2,0.9,1.9,2,1.9c2.1,0,3.4-2.2,4.2-3.8l-0.9-0.5c-0.4,0.9-1.4,2.9-2.6,2.9c-0.3,0-0.5-0.3-0.5-0.7c0.1-0.6,0.3-1.2,0.4-1.8
	l5.2-16.4l-0.3-0.2c-1.1,0.3-2.2,0.5-3.3,0.5C321.5,414.5,321.2,414.5,320.9,414.5z"/>
<path class="st3" d="M320.9,414.5l-0.3,0.9h0.9c0.4,0,1,0,1,0.6c0,0.1,0,0.2-0.1,0.3l-0.1,0.3l-4.4,14c-0.2,0.7-0.4,1.4-0.4,2.1
	c0,1.2,0.9,1.9,2,1.9c2.1,0,3.4-2.2,4.2-3.8l-0.9-0.5c-0.4,0.9-1.4,2.9-2.6,2.9c-0.3,0-0.5-0.3-0.5-0.7c0.1-0.6,0.3-1.2,0.4-1.8
	l5.2-16.4l-0.3-0.2c-1.1,0.3-2.2,0.5-3.3,0.5C321.5,414.5,321.2,414.5,320.9,414.5z"/>
<path class="st2" d="M331.7,418.8c0.8,0,1.4-0.7,1.4-1.4c0-0.8-0.6-1.4-1.4-1.4c-0.8,0-1.4,0.7-1.4,1.4
	C330.3,418.2,331,418.8,331.7,418.8L331.7,418.8z M331,430.7c-0.3,0.7-1.1,2.4-2,2.4c-0.3,0-0.4-0.2-0.4-0.5c0-0.2,0.1-0.5,0.2-0.7
	l2.4-7.5c0.1-0.5,0.3-0.9,0.3-1.4c0-0.9-0.8-1.4-1.7-1.4c-2,0-3.1,2.1-3.7,3.7l1,0.3c0.3-0.7,0.9-2.4,1.7-2.4c0.2,0,0.3,0.1,0.3,0.3
	c0,0.3-0.1,0.7-0.2,1l-2.3,7.1c-0.1,0.5-0.3,1-0.3,1.5c0,0.9,0.9,1.5,1.7,1.5c1.9,0,3.1-1.9,3.9-3.4L331,430.7z"/>
<path class="st3" d="M331.7,418.8c0.8,0,1.4-0.7,1.4-1.4c0-0.8-0.6-1.4-1.4-1.4c-0.8,0-1.4,0.7-1.4,1.4
	C330.3,418.2,331,418.8,331.7,418.8L331.7,418.8z M331,430.7c-0.3,0.7-1.1,2.4-2,2.4c-0.3,0-0.4-0.2-0.4-0.5c0-0.2,0.1-0.5,0.2-0.7
	l2.4-7.5c0.1-0.5,0.3-0.9,0.3-1.4c0-0.9-0.8-1.4-1.7-1.4c-2,0-3.1,2.1-3.7,3.7l1,0.3c0.3-0.7,0.9-2.4,1.7-2.4c0.2,0,0.3,0.1,0.3,0.3
	c0,0.3-0.1,0.7-0.2,1l-2.3,7.1c-0.1,0.5-0.3,1-0.3,1.5c0,0.9,0.9,1.5,1.7,1.5c1.9,0,3.1-1.9,3.9-3.4L331,430.7z"/>
<path class="st2" d="M340.1,429.9c-0.5,1.2-1.7,3.4-3.3,3.4c-0.9,0-1.2-0.8-1.2-1.6c0-2.1,0.9-4.3,1.8-6.2c0.5-1,1.2-3,2.6-3
	c0.2,0,0.5,0.1,0.5,0.3c0,0.1,0,0.2-0.1,0.3c-0.1,0.2-0.1,0.3-0.1,0.5c0,0.5,0.4,0.9,0.9,0.9c0.6,0,1-0.6,1-1.2c0-1.1-1-1.8-2-1.8
	c-3.8,0.1-6.8,6-6.8,9.3c0,1.9,1,3.5,3,3.5c2.1,0,3.7-2.4,4.4-4.1L340.1,429.9z"/>
<path class="st3" d="M340.1,429.9c-0.5,1.2-1.7,3.4-3.3,3.4c-0.9,0-1.2-0.8-1.2-1.6c0-2.1,0.9-4.3,1.8-6.2c0.5-1,1.2-3,2.6-3
	c0.2,0,0.5,0.1,0.5,0.3c0,0.1,0,0.2-0.1,0.3c-0.1,0.2-0.1,0.3-0.1,0.5c0,0.5,0.4,0.9,0.9,0.9c0.6,0,1-0.6,1-1.2c0-1.1-1-1.8-2-1.8
	c-3.8,0.1-6.8,6-6.8,9.3c0,1.9,1,3.5,3,3.5c2.1,0,3.7-2.4,4.4-4.1L340.1,429.9z"/>
<path class="st2" d="M366.2,415.1h-0.9l-0.8,1.5c-0.8-1.2-2.4-1.9-3.8-1.9c-3,0-5.4,2.5-5.4,5.5c0,4.6,5.6,6.4,5.6,10.1
	c0,1.9-1.5,3.3-3.3,3.3c-2.9,0-4.5-2.2-4.5-5c0-0.3,0-0.5,0-0.8l-0.8,0l-1.3,6.3h1.1l1-1.5c1.1,1.4,2.6,2.1,4.4,2.1
	c3.3,0,5.9-2.4,5.9-5.7c0-4.4-5.9-6.3-5.9-10.2c0-2,1.4-3.2,3.3-3.2c2.9,0,3.6,2.9,3.6,5.2l0.9,0L366.2,415.1z"/>
<path class="st3" d="M366.2,415.1h-0.9l-0.8,1.5c-0.8-1.2-2.4-1.9-3.8-1.9c-3,0-5.4,2.5-5.4,5.5c0,4.6,5.6,6.4,5.6,10.1
	c0,1.9-1.5,3.3-3.3,3.3c-2.9,0-4.5-2.2-4.5-5c0-0.3,0-0.5,0-0.8l-0.8,0l-1.3,6.3h1.1l1-1.5c1.1,1.4,2.6,2.1,4.4,2.1
	c3.3,0,5.9-2.4,5.9-5.7c0-4.4-5.9-6.3-5.9-10.2c0-2,1.4-3.2,3.3-3.2c2.9,0,3.6,2.9,3.6,5.2l0.9,0L366.2,415.1z"/>
<path class="st2" d="M369.5,428.2c0.4-1.4,1.8-5.5,3.7-5.5c0.4,0,0.7,0.4,0.7,0.8C373.9,425.6,371.1,427.3,369.5,428.2L369.5,428.2z
	 M373.2,430c-0.5,1.2-1.6,3.3-3.2,3.3c-1.1,0-1.2-1.1-1.2-1.9c0-0.7,0.2-1.4,0.4-2.1c2.2-1,6.2-3.2,6.2-6c0-1-0.8-1.8-1.8-1.8
	c-3.9,0-6.9,6.1-6.9,9.5c0,1.7,0.9,3.4,2.8,3.4c2.2,0,3.7-2.2,4.6-4L373.2,430z"/>
<path class="st3" d="M369.5,428.2c0.4-1.4,1.8-5.5,3.7-5.5c0.4,0,0.7,0.4,0.7,0.8C373.9,425.6,371.1,427.3,369.5,428.2L369.5,428.2z
	 M373.2,430c-0.5,1.2-1.6,3.3-3.2,3.3c-1.1,0-1.2-1.1-1.2-1.9c0-0.7,0.2-1.4,0.4-2.1c2.2-1,6.2-3.2,6.2-6c0-1-0.8-1.8-1.8-1.8
	c-3.9,0-6.9,6.1-6.9,9.5c0,1.7,0.9,3.4,2.8,3.4c2.2,0,3.7-2.2,4.6-4L373.2,430z"/>
<path class="st2" d="M379.9,434.1l1.6-4.9c0.2-0.7,1.8-5.8,2.9-5.8c0.6,0,0.6,1,1.2,1h0c0.6,0,0.9-0.9,0.9-1.4
	c0-0.8-0.4-1.6-1.3-1.6c-1.6,0-3.1,3.2-3.5,4.4c0.1-0.7,0.2-1.5,0.2-2.2c-0.1-0.9-0.5-2-1.6-2c-1.7,0-2.6,2.8-3,4.1h1
	c0.2-0.6,0.9-2.7,1.8-2.8l0,0c0.2,0,0.3,0.3,0.3,0.5c0,1.5-0.5,3-0.9,4.5l-1.7,6.2H379.9z"/>
<path class="st3" d="M379.9,434.1l1.6-4.9c0.2-0.7,1.8-5.8,2.9-5.8c0.6,0,0.6,1,1.2,1h0c0.6,0,0.9-0.9,0.9-1.4
	c0-0.8-0.4-1.6-1.3-1.6c-1.6,0-3.1,3.2-3.5,4.4c0.1-0.7,0.2-1.5,0.2-2.2c-0.1-0.9-0.5-2-1.6-2c-1.7,0-2.6,2.8-3,4.1h1
	c0.2-0.6,0.9-2.7,1.8-2.8l0,0c0.2,0,0.3,0.3,0.3,0.5c0,1.5-0.5,3-0.9,4.5l-1.7,6.2H379.9z"/>
<path class="st2" d="M387.2,424.3l0.8,0.2c0-0.4,0.1-1,0.6-1c0.7,0,1.2,0.8,2,0.8c0.1,0,0.2,0,0.3,0c0.1,0,0.1,0,0.2,0
	c-0.2,0.2-0.3,0.5-0.5,0.7c-1.4,2.1-3.1,4.4-3.1,7c0,1.6,1.3,2.5,2.9,2.5c4.2,0,6.5-7,6.5-10.2c0-0.8-0.1-2.6-1.2-2.6
	c-0.7,0-1,0.6-1,1.2c0,1.2,0.8,2.1,0.8,3.3c0,2.1-1.8,7-4.3,7c-1,0-1.4-0.9-1.4-1.7c0-2.4,2-6.4,3.2-8.4c0.1-0.2,0.2-0.4,0.3-0.6
	c0-0.1,0-0.1,0-0.1c0-0.4-0.4-0.6-0.8-0.6c-0.3,0-0.3,0.4-0.4,0.6c-0.1,0.3-0.3,0.7-0.7,0.7h0c-1,0-1.2-1.5-2.2-1.5
	C387.9,421.5,387.4,423.4,387.2,424.3z"/>
<path class="st3" d="M387.2,424.3l0.8,0.2c0-0.4,0.1-1,0.6-1c0.7,0,1.2,0.8,2,0.8c0.1,0,0.2,0,0.3,0c0.1,0,0.1,0,0.2,0
	c-0.2,0.2-0.3,0.5-0.5,0.7c-1.4,2.1-3.1,4.4-3.1,7c0,1.6,1.3,2.5,2.9,2.5c4.2,0,6.5-7,6.5-10.2c0-0.8-0.1-2.6-1.2-2.6
	c-0.7,0-1,0.6-1,1.2c0,1.2,0.8,2.1,0.8,3.3c0,2.1-1.8,7-4.3,7c-1,0-1.4-0.9-1.4-1.7c0-2.4,2-6.4,3.2-8.4c0.1-0.2,0.2-0.4,0.3-0.6
	c0-0.1,0-0.1,0-0.1c0-0.4-0.4-0.6-0.8-0.6c-0.3,0-0.3,0.4-0.4,0.6c-0.1,0.3-0.3,0.7-0.7,0.7h0c-1,0-1.2-1.5-2.2-1.5
	C387.9,421.5,387.4,423.4,387.2,424.3z"/>
<path class="st2" d="M404.1,418.8c0.8,0,1.4-0.7,1.4-1.4c0-0.8-0.6-1.4-1.4-1.4c-0.8,0-1.4,0.7-1.4,1.4
	C402.6,418.2,403.3,418.8,404.1,418.8L404.1,418.8z M403.4,430.7c-0.3,0.7-1.1,2.4-2,2.4c-0.3,0-0.4-0.2-0.4-0.5
	c0-0.2,0.1-0.5,0.2-0.7l2.4-7.5c0.1-0.5,0.3-0.9,0.3-1.4c0-0.9-0.8-1.4-1.7-1.4c-2,0-3.1,2.1-3.7,3.7l1,0.3c0.3-0.7,0.9-2.4,1.7-2.4
	c0.2,0,0.3,0.1,0.3,0.3c0,0.3-0.1,0.7-0.2,1l-2.3,7.1c-0.1,0.5-0.3,1-0.3,1.5c0,0.9,0.9,1.5,1.7,1.5c1.9,0,3.1-1.9,3.9-3.4
	L403.4,430.7z"/>
<path class="st3" d="M404.1,418.8c0.8,0,1.4-0.7,1.4-1.4c0-0.8-0.6-1.4-1.4-1.4c-0.8,0-1.4,0.7-1.4,1.4
	C402.6,418.2,403.3,418.8,404.1,418.8L404.1,418.8z M403.4,430.7c-0.3,0.7-1.1,2.4-2,2.4c-0.3,0-0.4-0.2-0.4-0.5
	c0-0.2,0.1-0.5,0.2-0.7l2.4-7.5c0.1-0.5,0.3-0.9,0.3-1.4c0-0.9-0.8-1.4-1.7-1.4c-2,0-3.1,2.1-3.7,3.7l1,0.3c0.3-0.7,0.9-2.4,1.7-2.4
	c0.2,0,0.3,0.1,0.3,0.3c0,0.3-0.1,0.7-0.2,1l-2.3,7.1c-0.1,0.5-0.3,1-0.3,1.5c0,0.9,0.9,1.5,1.7,1.5c1.9,0,3.1-1.9,3.9-3.4
	L403.4,430.7z"/>
<path class="st2" d="M412.5,429.9c-0.5,1.2-1.7,3.4-3.3,3.4c-0.9,0-1.2-0.8-1.2-1.6c0-2.1,0.9-4.3,1.8-6.2c0.5-1,1.2-3,2.6-3
	c0.2,0,0.5,0.1,0.5,0.3c0,0.1,0,0.2-0.1,0.3c-0.1,0.2-0.1,0.3-0.1,0.5c0,0.5,0.4,0.9,0.9,0.9c0.6,0,1.1-0.6,1.1-1.2
	c0-1.1-1-1.8-2-1.8c-3.8,0.1-6.8,6-6.8,9.3c0,1.9,1,3.5,3,3.5c2.1,0,3.7-2.4,4.4-4.1L412.5,429.9z"/>
<path class="st3" d="M412.5,429.9c-0.5,1.2-1.7,3.4-3.3,3.4c-0.9,0-1.2-0.8-1.2-1.6c0-2.1,0.9-4.3,1.8-6.2c0.5-1,1.2-3,2.6-3
	c0.2,0,0.5,0.1,0.5,0.3c0,0.1,0,0.2-0.1,0.3c-0.1,0.2-0.1,0.3-0.1,0.5c0,0.5,0.4,0.9,0.9,0.9c0.6,0,1.1-0.6,1.1-1.2
	c0-1.1-1-1.8-2-1.8c-3.8,0.1-6.8,6-6.8,9.3c0,1.9,1,3.5,3,3.5c2.1,0,3.7-2.4,4.4-4.1L412.5,429.9z"/>
<path class="st2" d="M419.2,428.2c0.4-1.4,1.8-5.5,3.7-5.5c0.4,0,0.7,0.4,0.7,0.8C423.6,425.6,420.8,427.3,419.2,428.2z M422.9,430
	c-0.5,1.2-1.6,3.3-3.2,3.3c-1,0-1.2-1.1-1.2-1.9c0-0.7,0.2-1.4,0.4-2.1c2.2-1,6.2-3.2,6.2-6c0-1-0.8-1.8-1.8-1.8
	c-3.9,0-6.9,6.1-6.9,9.5c0,1.7,0.9,3.4,2.8,3.4c2.2,0,3.7-2.2,4.6-4L422.9,430z"/>
<path class="st3" d="M419.2,428.2c0.4-1.4,1.8-5.5,3.7-5.5c0.4,0,0.7,0.4,0.7,0.8C423.6,425.6,420.8,427.3,419.2,428.2z M422.9,430
	c-0.5,1.2-1.6,3.3-3.2,3.3c-1,0-1.2-1.1-1.2-1.9c0-0.7,0.2-1.4,0.4-2.1c2.2-1,6.2-3.2,6.2-6c0-1-0.8-1.8-1.8-1.8
	c-3.9,0-6.9,6.1-6.9,9.5c0,1.7,0.9,3.4,2.8,3.4c2.2,0,3.7-2.2,4.6-4L422.9,430z"/>
<path class="st2" d="M259.3,261.3v-20.8h-10.7l-1.1,4.1l-1.4-3.8h-11.4l1.4,36.6l0.6-0.3c-6.3,23.5-28.3,41.5-55.4,44.5
	c18-8.5,28.4-16.8,41.1-27c5.6-4.5,12.4-12.5,12.8-20.2c0.3-5.8-1.8-12.4-3.8-18.7c-2.8-8.9-5.7-18.2-1.8-24.4l13.6-21.5l0.2-0.4
	c4.4-11.5,2.7-23.2-3.9-27.7c-2.9-2-5.9-3.5-9.2-4.5l6.8-1.1l-32.6-8.1l-0.1-1.3l35.7-9.9l-37.8-2.7l-0.2-0.8l17.3-23.4l-26.3,12.7
	l-0.7-0.3l4.7-24l-16.8,19l-0.7-0.2l-8.7-18.6l-5.9,18.8l-0.5,0.2L145.4,121l6.4,21.9l-2,1.9l-28.7-12l21.6,23l-0.1,0.2l-38.7-0.7
	l36.8,12.8l-40,6.7l12.8,1.3c-5.1,2-10.1,5.6-12.4,10.2c-6.2,12.5,1.7,22.5,8.7,31.4c3.9,4.9,7.6,9.6,9,14.5
	c2.3,7.5-0.2,14.6-3,22.8c-1.4,3.9-2.8,8-3.8,12.5c-1.9,8.2-1,10.1,4.2,16.2c15.7,18.2,32.2,30.4,51.6,38.1
	c-28.4-2.1-51.6-20.5-58.1-44.8l0.6,0.4l1.4-36.6h-11.4l-1.4,3.8l-1.1-4.1H87.3v20.8l-4.3,0v2c0,45,40.5,81.7,90.3,81.7
	c49.8,0,90.3-36.6,90.3-81.7v-2H259.3z"/>
<path class="st4" d="M202.6,169.4l-0.4-4.3l26.2-7.2l-27.6-2l-0.9-3l13-17.6l-19.7,9.6l-2.9-1.3l3.6-18.3l-12.6,14.3l-2.8-0.7
	l-6.9-14.8l-4.6,14.7l-2.4,1.1L149,127.5l5.1,16.2l-3.8,3.6l-21.3-8.9l16.1,17.2l-1,2.6l-27.5-0.5l26.8,9.3l-0.2,2.8l-27.3,4.6
	c0,0,11.2,1.7,14.6,2l2.8,6.1l38.3,9.9l28.4-3.2l13.5-4.5l-3.9-6.4l17.3-2.7L202.6,169.4z"/>
<path class="st5" d="M147.5,178.2c-9.4-0.5-19-3.2-28.3-1.6c-6.2,1.1-13.6,5.3-16.2,10.6c-8.8,17.7,13.4,29.8,17.8,44.4
	c3.6,11.8-3.5,22.3-6.7,36.2c-1.7,7.4-1.2,8.7,3.8,14.5c13.5,15.6,31.2,31.1,56.9,39.9c21.1-9.2,31.7-17.6,46.3-29.3
	c5.6-4.5,11.7-12,12-18.8c0.7-13.5-12.7-32.4-5.3-44l13.6-21.5c4-10.5,2.7-21.4-3.1-25.4c-7.9-5.5-19-7.4-27.4-5.7
	C169.7,185.8,175,190.2,147.5,178.2"/>
<path class="st6" d="M226.1,228.2c5.6-9.3,11.3-16.7,13.7-26.2l-3.1,0.7c-12.9,2.8-11.9-11.9-22.5-9.3l-31.5,7.7
	c-8.7,2.1-36.9-4.7-55.3-7.7c-6,12.6-13.4,8.8-20.9,4.6v0c-0.4,15.7,16.2,26.7,18.2,33.5c4.9,17.1-8.4,29.6-5.9,45.6
	c14.1,18.1,34,33.8,55.9,42.7l20.3-10.7c14-8.4,28.1-19.7,33.4-32.2c2.7-6.3,0-13.7-2.6-20C221.4,246.2,220.2,237.7,226.1,228.2"/>
<path class="st6" d="M172.9,187.4c14.7,0,26.7-10.4,26.7-23.2c0-12.8-12-23.2-26.7-23.2c-14.7,0-26.7,10.4-26.7,23.2
	C146.1,177,158.1,187.4,172.9,187.4"/>
<path class="st7" d="M148.9,291l0.1-1.3c1.3-0.4,2.8-0.2,4.4,0.1c1.1,0.2,2.4,0.4,3.8,0.5c0.9,0,1.9,0,2.9-0.1
	c2.8-0.2,6-0.3,9.3,0.9l0.2-0.4c-3.5-1.3-6.7-1.1-9.5-0.9c-1,0.1-2,0.1-2.9,0.1c-1.3,0-2.5-0.3-3.7-0.5c-1.6-0.3-3.1-0.5-4.5-0.1
	l0-0.6c1.2-0.3,2.5-0.1,4,0.1c1,0.2,2.2,0.4,3.5,0.4c0.8,0,1.7,0,2.7-0.1c2.6-0.1,5.5-0.3,8.6,0.8l0-0.1c2,0.6,4.2,1,6.3,1
	c1.3,0,2.6-0.1,3.8-0.4l0.2,0.4c1.2-0.7,2.4-0.4,4-0.1c0.9,0.2,1.9,0.3,3,0.4c0.7,0,1.4,0,2.3-0.1c2.1-0.1,4.5-0.2,7,0.6l0,0.5
	L148.9,291z M153,275.5c0.7,0.1,1.5,0.3,2.4,0.3c0.6,0,1.2,0,1.8-0.1c1.8-0.1,3.8-0.2,5.9,0.6l0-0.1l-0.2,1.2
	c-2.1-0.7-4.2-0.6-5.9-0.5c-0.6,0-1.2,0.1-1.8,0.1c-0.8,0-1.6-0.2-2.3-0.3c-1.2-0.2-2.2-0.4-3.2,0l0-0.4l0.1,0.2
	c0.9-0.5,1.9-0.3,3.1-0.1c0.7,0.1,1.5,0.3,2.3,0.3c0.5,0,1.1,0,1.8-0.1c1.7-0.1,3.7-0.2,5.7,0.5l0.2-0.4c-2.1-0.8-4.2-0.7-5.9-0.6
	c-0.6,0-1.2,0.1-1.7,0.1c-0.8,0-1.6-0.2-2.3-0.3c-1.2-0.2-2.3-0.4-3.3,0.1l0-0.4C150.9,275.1,151.8,275.3,153,275.5z M163.4,279.8
	c-2.2-0.7-4.3-0.6-6.1-0.5c-0.7,0-1.4,0.1-2,0.1c-0.9,0-1.8-0.2-2.6-0.3c-1.1-0.2-2.1-0.4-3-0.2l0-0.2c0.8-0.3,1.8-0.2,2.9,0.1
	c0.8,0.1,1.6,0.3,2.5,0.3c0.6,0,1.2,0,1.9-0.1c1.8-0.1,3.9-0.2,6.1,0.6l0-0.1C163.2,279.5,163.3,279.7,163.4,279.8z M163.8,280.4
	L163.8,280.4c0.1,0,0.1,0.1,0.2,0.2c-2.2-0.6-4.4-0.5-6.1-0.4c-0.7,0-1.4,0.1-2,0.1c-1,0-1.8-0.2-2.7-0.3c-1.3-0.2-2.4-0.4-3.5,0
	l0-0.5c0.9-0.2,1.8-0.1,3,0.1c0.8,0.1,1.7,0.3,2.6,0.3c0.6,0,1.3,0,2-0.1C159.3,279.7,161.5,279.5,163.8,280.4z M159.1,281
	c-0.9,0-1.7,0.1-2.4,0.1c-1.1,0-2.1-0.2-3.1-0.4c-1.5-0.3-2.8-0.5-4,0l0-0.3c1-0.5,2.1-0.3,3.5,0c0.8,0.1,1.7,0.3,2.7,0.3
	c0.6,0,1.3,0,2.1-0.1c1.9-0.1,4.1-0.2,6.4,0.5C162.5,280.8,160.7,280.9,159.1,281z M164.8,281.1l0.2,0.1
	C164.9,281.2,164.8,281.2,164.8,281.1L164.8,281.1z M167,282.1c0.3,0.1,0.6,0.1,0.7,0.2c0,0.1,0,0.2,0,0.3c-2.9-0.9-5.7-0.8-8.1-0.7
	c-0.9,0-1.8,0.1-2.6,0.1c-1.2,0-2.3-0.2-3.3-0.4c-1.5-0.3-2.9-0.5-4.1-0.1l0-0.2c1.2-0.5,2.4-0.3,3.9,0c0.9,0.2,2,0.4,3.2,0.4
	c0.7,0,1.6,0,2.4-0.1c2.4-0.1,5-0.3,7.8,0.7L167,282.1z M167.8,283.2c-2.9-1-5.7-0.8-8.1-0.7c-0.9,0.1-1.8,0.1-2.6,0.1
	c-1.2,0-2.3-0.2-3.3-0.4c-1.6-0.3-3-0.5-4.3,0l0-0.3c1.2-0.4,2.6-0.2,4.1,0c1,0.2,2.2,0.4,3.4,0.4c0.8,0,1.7,0,2.6-0.1
	c2.5-0.1,5.2-0.3,8.2,0.7C167.8,283.1,167.8,283.2,167.8,283.2z M167.1,284.3l0.1-0.3c-2.9-1.1-5.7-0.9-8.1-0.8
	c-0.9,0.1-1.7,0.1-2.4,0.1c-1.1,0-2.2-0.2-3.2-0.4c-1.5-0.3-2.8-0.5-4-0.1l0-0.2c1.2-0.5,2.6-0.3,4.2,0c1,0.2,2.1,0.4,3.4,0.4
	c0.8,0,1.7,0,2.6-0.1c2.4-0.1,5.1-0.3,8,0.7c0,0.2-0.1,0.4,0.1,0.4C167.5,284.2,167.3,284.3,167.1,284.3z M165.6,284.8
	c-2.7-0.9-5.2-0.8-7.4-0.7c-0.8,0-1.5,0.1-2.2,0.1c-1,0-2-0.2-2.9-0.4c-1.4-0.3-2.6-0.4-3.7,0l0-0.4c1.2-0.5,2.4-0.3,4,0
	c1,0.2,2,0.4,3.2,0.4c0.8,0,1.6,0,2.5-0.1c2.3-0.1,4.9-0.2,7.7,0.7C166.3,284.5,165.9,284.7,165.6,284.8z M164.2,285.5
	c-2.5-0.9-5-0.8-6.9-0.7c-0.7,0-1.4,0.1-2.1,0.1c-1,0-1.8-0.2-2.7-0.3c-1.2-0.2-2.2-0.4-3.2-0.1l0-0.2c1.1-0.4,2.2-0.3,3.7,0
	c0.9,0.2,1.9,0.3,2.9,0.4c0.7,0,1.4,0,2.2-0.1c2-0.1,4.3-0.2,6.6,0.5C164.6,285.2,164.4,285.4,164.2,285.5z M163.4,286.4
	c-2.4-0.9-4.8-0.7-6.7-0.6c-0.7,0-1.4,0.1-2,0.1c-0.9,0-1.8-0.2-2.6-0.3c-1-0.2-2-0.4-2.9-0.2l0-0.4c0.9-0.3,1.9-0.1,3.2,0.1
	c0.8,0.2,1.7,0.3,2.8,0.3c0.6,0,1.3,0,2.1-0.1c1.9-0.1,4.1-0.2,6.4,0.5C163.6,286,163.5,286.2,163.4,286.4z M163.4,287.8l0.1-0.2
	c0.3,0.2,0.7,0.4,1,0.6c-2.4-0.7-4.7-0.6-6.7-0.5c-0.8,0-1.6,0.1-2.3,0.1c-1.1,0-2-0.2-2.9-0.4c-1.3-0.2-2.4-0.4-3.5-0.1l0-0.5
	c0.9-0.2,1.8-0.1,2.9,0.1c0.8,0.1,1.7,0.3,2.7,0.3c0.6,0,1.3,0,2.1-0.1C158.8,287.1,161,287,163.4,287.8z M149.1,287.8
	c1-0.3,2.1-0.2,3.4,0.1c0.9,0.2,1.9,0.3,3,0.4c0.7,0,1.5,0,2.3-0.1c2-0.1,4.3-0.2,6.7,0.5c-1.9-0.2-3.7-0.1-5.3,0
	c-1,0.1-1.8,0.1-2.6,0.1c-1.2,0-2.4-0.2-3.4-0.4c-1.5-0.3-2.8-0.5-4-0.2L149.1,287.8z M149.3,285.8c0.8-0.2,1.7,0,2.8,0.2
	c0.8,0.1,1.7,0.3,2.7,0.3c0.6,0,1.3,0,2-0.1c1.9-0.1,4.1-0.2,6.4,0.6c-0.1,0.1-0.2,0.2-0.2,0.4l0,0c-2.2-0.7-4.4-0.6-6.1-0.5
	c-0.7,0-1.4,0.1-2,0.1c-0.9,0-1.8-0.2-2.6-0.3c-1.1-0.2-2-0.4-3-0.2L149.3,285.8z M149.8,277.9c0.9-0.4,1.8-0.2,3,0
	c0.7,0.1,1.5,0.3,2.4,0.3c0.6,0,1.2,0,1.8-0.1c1.8-0.1,3.8-0.2,5.9,0.6l0.1-0.3c0,0.2,0,0.4,0,0.6c-2.2-0.7-4.3-0.6-6-0.5
	c-0.7,0-1.3,0.1-1.9,0.1c-0.9,0-1.7-0.2-2.4-0.3c-1.1-0.2-2-0.4-2.9-0.1L149.8,277.9z M149.8,277.2c0.9-0.5,1.9-0.3,3.1-0.1
	c0.7,0.1,1.5,0.3,2.4,0.3c0.6,0,1.2,0,1.8-0.1c1.7-0.1,3.7-0.2,5.8,0.5l0,0.3l0,0.1c-2.2-0.8-4.3-0.7-6-0.6c-0.6,0-1.2,0.1-1.8,0.1
	c-0.8,0-1.6-0.2-2.3-0.3c-1.1-0.2-2.1-0.4-3,0L149.8,277.2z M165.3,288.8c0.1,0,0.2,0.1,0.3,0.1
	C165.5,288.9,165.3,288.8,165.3,288.8L165.3,288.8z M183,288.9L183,288.9L183,288.9c0.9-0.5,1.9-0.3,3-0.1c0.7,0.1,1.4,0.3,2.2,0.3
	c0.5,0,1.1,0,1.7-0.1c1.4-0.1,3.1-0.1,4.8,0.3l-0.1,1.8c-2.6-0.8-5-0.7-7-0.6c-0.8,0-1.5,0.1-2.2,0.1c-1,0-2-0.2-2.9-0.4
	c-0.8-0.1-1.5-0.3-2.2-0.3C181.2,289.6,182.1,289.3,183,288.9z M183.4,288.2c0.2-0.3,0.3-0.6,0.5-1l0.1,0.1c0.8-0.4,1.6-0.3,2.7-0.1
	c0.6,0.1,1.3,0.2,2,0.2c0.5,0,1,0,1.5,0c1.4-0.1,2.9-0.1,4.6,0.4l-0.1,1.1c-1.7-0.5-3.4-0.4-4.8-0.3c-0.6,0-1.1,0.1-1.6,0.1
	c-0.8,0-1.5-0.2-2.1-0.3c-1-0.2-1.9-0.3-2.8,0L183.4,288.2z M183.5,285.4c0.7-0.1,1.4,0,2.3,0.2c0.7,0.1,1.5,0.3,2.3,0.3
	c0.5,0,1.1,0,1.8-0.1c1.5-0.1,3.2-0.1,5,0.4l-0.1,1.2c-1.7-0.5-3.3-0.4-4.7-0.4c-0.5,0-1,0-1.5,0c-0.7,0-1.4-0.1-1.9-0.2
	c-1-0.2-1.9-0.3-2.7,0c0.1-0.4,0.1-0.9-0.2-1.3L183.5,285.4z M182.6,285.2l-2.6-0.6c1-0.4,2.1-0.2,3.5,0c0.8,0.2,1.8,0.3,2.8,0.4
	c0.7,0,1.4,0,2.1-0.1c1.9-0.1,4.1-0.2,6.4,0.5l0,0.2c-1.8-0.5-3.6-0.4-5-0.3c-0.6,0-1.2,0.1-1.7,0.1c-0.8,0-1.6-0.2-2.3-0.3
	C184.7,284.9,183.6,284.7,182.6,285.2z M178.8,284.4l-0.1-0.9l0.2,0.3c1.2-0.7,2.4-0.4,4-0.1c0.9,0.2,1.9,0.3,3,0.4
	c0.7,0,1.5,0,2.3-0.1c2.1-0.1,4.4-0.2,6.9,0.6l0,0.4c-2.4-0.7-4.6-0.6-6.5-0.5c-0.7,0-1.4,0.1-2.1,0.1c-1,0-1.9-0.2-2.7-0.3
	c-1.5-0.3-2.9-0.5-4.1,0.2l0.1,0.2L178.8,284.4z M178.5,282.7l0.4-0.1l0.1,0.2c1.1-0.6,2.4-0.4,3.9-0.1c0.9,0.2,1.9,0.3,2.9,0.4
	c0.7,0,1.4,0,2.2-0.1c2-0.1,4.4-0.2,6.8,0.6l0,0.5c-2.5-0.8-4.9-0.7-6.9-0.6c-0.8,0-1.5,0.1-2.2,0.1c-1,0-2-0.2-2.9-0.4
	c-1.6-0.3-3-0.5-4.3,0.2L178.5,282.7z M181.9,281.6l0.1,0.1c0.9-0.5,1.9-0.3,3.2-0.1c0.7,0.1,1.5,0.3,2.4,0.3c0.5,0,1.2,0,1.8-0.1
	c1.7-0.1,3.6-0.2,5.7,0.5l0,0.7c-2.5-0.8-4.8-0.7-6.9-0.6c-0.8,0-1.5,0.1-2.2,0.1c-1,0-2-0.2-2.9-0.4c-0.8-0.1-1.5-0.3-2.1-0.3
	L181.9,281.6z M183.1,280.6l0.1,0.1c0.8-0.5,1.8-0.3,2.9-0.1c0.7,0.1,1.4,0.3,2.2,0.3c0.5,0,1.1,0,1.7,0c1.6-0.1,3.3-0.2,5.2,0.5
	l0,0.6c-2.1-0.7-4.1-0.6-5.7-0.5c-0.6,0-1.2,0.1-1.8,0.1c-0.8,0-1.6-0.2-2.3-0.3c-0.9-0.2-1.7-0.3-2.4-0.2
	C183,280.9,183.1,280.8,183.1,280.6z M183.5,279.6L183.5,279.6c0.9-0.4,1.8-0.2,3,0c0.7,0.1,1.4,0.3,2.2,0.3c0.5,0,1.1,0,1.7,0
	c1.5-0.1,3.2-0.2,5,0.4l0,0.6c-1.9-0.6-3.7-0.5-5.2-0.5c-0.6,0-1.1,0.1-1.6,0.1c-0.8,0-1.5-0.2-2.1-0.3c-1.1-0.2-2-0.3-2.9,0
	C183.4,280,183.4,279.8,183.5,279.6z M195.3,279.8c-1.8-0.5-3.6-0.5-5-0.4c-0.6,0-1.1,0.1-1.6,0.1c-0.8,0-1.5-0.2-2.1-0.3
	c-1.1-0.2-2.1-0.4-3,0.1c0-0.2,0-0.3,0-0.5l0,0c0.9-0.5,1.8-0.3,2.9-0.1c0.7,0.1,1.4,0.3,2.2,0.3c0.5,0,1.1,0,1.7,0
	c1.5-0.1,3.2-0.2,5,0.4L195.3,279.8z M183.5,276.7c0.9-0.5,1.8-0.3,3-0.1c0.7,0.1,1.4,0.3,2.2,0.3c0.5,0,1.1,0,1.7,0
	c1.5-0.1,3.2-0.2,5,0.4l0,0.5c-1.8-0.6-3.6-0.5-5-0.4c-0.6,0-1.1,0.1-1.6,0c-0.8,0-1.4-0.1-2-0.3c-1.2-0.2-2.2-0.4-3.1,0.2l0.2,0.4
	c0.8-0.5,1.7-0.3,2.8-0.1c0.6,0.1,1.3,0.2,2.1,0.3c0.5,0,1,0,1.6,0c1.5-0.1,3.2-0.2,5,0.4l0,0.5c-1.8-0.5-3.6-0.5-5-0.4
	c-0.6,0-1.1,0.1-1.6,0.1c-0.8,0-1.5-0.2-2.1-0.3c-1.1-0.2-2.1-0.4-3,0.1c0-0.5-0.1-1.1-0.1-1.6L183.5,276.7z M195.9,271.2l-0.4,5.6
	c-1.8-0.5-3.6-0.5-5.1-0.4c-0.6,0-1.2,0.1-1.7,0.1c-0.8,0-1.5-0.2-2.2-0.3c-1.2-0.2-2.2-0.4-3.1,0.1c-0.1-0.5-0.1-1-0.1-1.4l-0.5,0
	c0,0.4,0.1,0.9,0.1,1.5c0.2,1.9,0.4,4.3-1.1,4.8l-3.6,1.4l0.2,2.1l4.2,1l0.1,0.1l0.2-0.1l0.6,0.2c0.3,0.7-0.1,1.4-0.5,2.2
	c-0.1,0.2-0.3,0.5-0.3,0.7c-6.2,2.9-14.8,2.1-19.4-1.5c0.8-1.6,2.3-2,4.8-2.8c0-0.2,0.1-0.4,0.1-0.6c0.1-0.3,0.1-0.7,0.1-1.1l0,0
	l0,0c0-0.2-0.1-0.4-0.2-0.7c-0.8-0.2-4.9-1.3-4.6-3.7l0.5-4l-0.5-0.1l-0.2,1.7c-2.2-0.8-4.3-0.7-6-0.6c-0.6,0-1.2,0.1-1.8,0.1
	c-0.9,0-1.6-0.2-2.3-0.3c-1.2-0.2-2.2-0.4-3.1,0l0.3-4.7c-2.8-3.3-5.7-3.8-8.5,0.7l-0.8,17.7c0.8,3.9,3.1,6.9,7.1,8.7l43.6,1.3
	c4.8-0.7,8.6-2.9,10.9-7.1l0.4-20.9C200.6,267,198.2,267.2,195.9,271.2z"/>
<path class="st7" d="M113.2,190.8c-1.9,0-3.5,1.5-3.5,3.4c0,1.9,1.6,3.4,3.5,3.4c1.9,0,3.5-1.5,3.5-3.4
	C116.7,192.3,115.1,190.8,113.2,190.8"/>
<path class="st7" d="M232.7,190.8c-1.9,0-3.5,1.5-3.5,3.4c0,1.9,1.6,3.4,3.5,3.4c1.9,0,3.5-1.5,3.5-3.4
	C236.1,192.3,234.6,190.8,232.7,190.8"/>
<path class="st7" d="M155.4,200.2c0.4-0.4-0.1-1.4-1.1-2.1c-1-0.7-2.1-1-2.5-0.5c-0.4,0.4,0.1,1.4,1.1,2.1
	C153.9,200.4,155,200.6,155.4,200.2"/>
<path class="st7" d="M155.6,200.7c-0.9-0.4-1.9-0.5-2.2-0.1c-0.3,0.4,0.3,1,1.2,1.5c0.9,0.4,1.9,0.5,2.2,0.1
	C157,201.8,156.5,201.1,155.6,200.7"/>
<path class="st7" d="M155.9,198.6c-0.5,0.2-0.5,1,0,1.9c0.5,0.9,1.2,1.4,1.7,1.3c0.5-0.2,0.5-1,0-1.9
	C157.2,199,156.4,198.4,155.9,198.6"/>
<path class="st7" d="M164.1,201.1L164.1,201.1c0-0.1-0.1-0.1-0.1-0.2c0.2,0.2,0.4,0.3,0.6,0.3c0.5-0.1,0.7-0.9,0.5-1.8
	c-0.2-0.9-0.8-1.7-1.3-1.6c-0.5,0.1-0.7,0.9-0.5,1.8c0.1,0.3,0.2,0.5,0.3,0.7c-0.4-0.4-0.8-0.6-1.1-0.5c-0.5,0.2-0.5,1,0,1.9
	c0.1,0.1,0.1,0.2,0.2,0.3c-0.3-0.2-0.5-0.3-0.7-0.2c-0.4,0.2-0.4,0.9,0,1.8c0.4,0.8,1.1,1.4,1.6,1.2c0.4-0.1,0.4-0.9,0-1.8
	c0-0.1-0.1-0.1-0.1-0.2c0.3,0.2,0.6,0.3,0.8,0.2C164.6,202.8,164.6,201.9,164.1,201.1"/>
<path class="st7" d="M166,201c-0.5-0.2-1.1,0.4-1.4,1.3c-0.3,0.9-0.2,1.8,0.2,2c0.5,0.2,1.1-0.4,1.4-1.3v0
	C166.5,202.1,166.4,201.2,166,201"/>
<path class="st7" d="M168.6,198.6c-0.2-0.9-0.8-1.7-1.3-1.6c-0.5,0.1-0.7,0.9-0.5,1.8c0.2,0.9,0.8,1.7,1.3,1.6
	C168.7,200.4,168.9,199.6,168.6,198.6"/>
<path class="st7" d="M170,200.6c0.4,0,0.5-0.7,0.4-1.4c-0.2-0.7-0.7-1.3-1-1.3c-0.4,0.1-0.5,0.7-0.4,1.4
	C169.2,200.1,169.6,200.6,170,200.6"/>
<path class="st7" d="M172.1,198.3c-0.2-0.9-0.8-1.7-1.3-1.6c-0.5,0.1-0.7,0.9-0.5,1.8c0.2,0.9,0.8,1.7,1.3,1.6
	C172.1,200.1,172.3,199.3,172.1,198.3L172.1,198.3z"/>
<path class="st7" d="M174.1,197.7c0.1-1-0.1-1.8-0.6-1.9c-0.5-0.1-1,0.6-1.1,1.6c-0.1,1,0.1,1.8,0.6,1.9
	C173.4,199.4,173.9,198.7,174.1,197.7L174.1,197.7z"/>
<path class="st7" d="M175.7,198.8c0.6-0.8,0.7-1.7,0.3-2c-0.4-0.3-1.2,0.1-1.7,1c-0.6,0.8-0.7,1.7-0.3,2
	C174.4,200.1,175.2,199.7,175.7,198.8"/>
<path class="st7" d="M169.7,200.6c-1-0.3-2-0.3-2.2,0.1c-0.2,0.4,0.4,1,1.4,1.4c1,0.3,2,0.3,2.2-0.1
	C171.3,201.6,170.7,201,169.7,200.6"/>
<path class="st7" d="M179.5,199.8c-0.3-0.1,0.7-0.2,0.8-0.5c0.2-0.5,0.6-1.2,0.2-1.6c-0.4-0.4-1.5-0.4-1.9,0c-0.5,0.4-0.1,1-0.6,1.3
	c-0.6,0.4-1.1-0.5-1.5,0c-0.7,0.7,0.2,1.9-0.1,2.8c-0.2,0.5-0.9,0.7-1.4,1.1l-0.3,0.7l0.8,1.2l2.5-3.1c0.2-0.3,0.7,0.2,1.1,0
	c0.7-0.3,1.1-0.5,1.4-1.1C180.7,200.1,179.9,200,179.5,199.8"/>
<path class="st7" d="M192.7,197.7c-0.5-0.2-1.1,0.4-1.4,1.3c-0.3,0.9-0.2,1.8,0.2,2c0.5,0.2,1.1-0.4,1.4-1.3
	C193.3,198.8,193.2,197.9,192.7,197.7"/>
<path class="st7" d="M195.3,199.4L195.3,199.4c0.9-0.9,1.3-1.8,0.9-2.2c-0.4-0.4-1.3-0.1-2.1,0.7c-0.8,0.8-1.2,1.7-0.8,2.1
	c0.2,0.2,0.4,0.2,0.8,0.1c-0.5,0.5-0.8,1-0.6,1.3c0.2,0.4,1.1,0.3,2-0.2c0.9-0.5,1.4-1.3,1.2-1.7
	C196.4,199.3,195.9,199.2,195.3,199.4"/>
<path class="st7" d="M187.5,199.4c-0.4-0.1-0.8,0.3-1.1,1c-0.3,0.7-0.2,1.4,0.2,1.5c0.4,0.1,0.8-0.3,1.1-1
	C188,200.2,187.9,199.5,187.5,199.4"/>
<path class="st7" d="M188.5,201c-0.3-0.1-0.8,0.3-1.1,1c-0.3,0.7-0.2,1.4,0.2,1.5c0.3,0.1,0.8-0.3,1.1-1
	C188.9,201.8,188.8,201.1,188.5,201"/>
<path class="st7" d="M186.2,201.8c-0.4-0.2-0.9,0.3-1.2,1.1c-0.3,0.8-0.2,1.5,0.2,1.7c0.4,0.2,0.9-0.3,1.2-1.1
	C186.7,202.7,186.6,201.9,186.2,201.8"/>
<path class="st7" d="M181.5,200.9c-0.6,0-1.2,0.6-1.4,1.4c-0.2,0.8,0.1,1.5,0.6,1.6c0.6,0,1.2-0.6,1.4-1.4h0
	C182.4,201.7,182.1,201,181.5,200.9"/>
<path class="st4" d="M150.3,270.4c-2.8-3.3-5.7-3.8-8.5,0.7l-0.8,17.7c0.8,3.9,1.9,6.9,7.1,8.7l26.1,0.7l0.3-6.5l-25.7-0.7
	L150.3,270.4z"/>
<path class="st4" d="M179.7,270.4c-3.7,0.7-6.5,2.4-6.2,3.7c0.3,1.4,3.6,1.9,7.3,1.2c3.7-0.7,6.5-2.4,6.2-3.7
	C186.7,270.2,183.5,269.7,179.7,270.4"/>
<path class="st4" d="M166.1,274.9c3.7,0.9,7,0.5,7.3-0.8c0.4-1.3-2.3-3.2-5.9-4.1v0c-3.7-0.9-7-0.5-7.3,0.8
	C159.8,272.2,162.5,274,166.1,274.9"/>
<path class="st4" d="M177.8,285.1c-0.2-1.1,0-2.5-0.2-3.6c1.4-1,2.8-1.7,3.8-3.2c0.5-0.7,0.1-2.3-0.8-2.3l-4.3,0
	c-1.7,0.1-2.4,1-2.8,2c-0.6-1.2-1.6-1.9-3-2.4l-5.7,0.2c0,2.4,1.7,4.2,6.2,6.7c-1,2.1-2.7,3.5-5.9,4.1l0,1.2
	c6.2,0.2,9.2,2.5,16.7-0.5C181.2,286.3,179.8,285.4,177.8,285.1"/>
<polygon class="st4" points="174.1,251.5 174.1,251.5 174.1,251.5 "/>
<path class="st4" d="M173.4,271.3c0.9,1.4,4.9-10.9,4-14.1c-1-3.6-2-5.7-3.3-5.6c-0.5,1.8-1,3.6-1.8,5.2c-1.4,2.7-1.6,2.8-1.4,6
	C171,266,171.8,268.8,173.4,271.3"/>
<path class="st7" d="M183.9,183L183.9,183c-0.9-0.5-1.9-0.9-2.9-1.3c1.8-3,3.2-5.9,4.2-8.7c2.8,0.7,5.5,1.7,8.1,2.9
	C191,178.9,187.7,181.3,183.9,183 M179.2,184.5c0.1-0.1,0.2-0.2,0.2-0.4c0.2,0.1,0.3,0.1,0.5,0.2
	C179.7,184.4,179.5,184.5,179.2,184.5z M172.7,185.3c-0.6-0.7-1.1-1.5-1.6-2.2c2-0.1,4,0,5.8,0.4c-0.4,0.5-0.7,1.1-1.1,1.6
	c-1,0.1-2,0.2-3,0.2C172.8,185.3,172.7,185.3,172.7,185.3z M168,183.5c0.3,0.5,0.7,1,1.1,1.5c-1.4-0.2-2.7-0.5-4.1-0.8
	C166,183.9,167,183.6,168,183.5z M152,175.3c3.6-1.1,7-2,10.4-2.6c0.9,2.7,2.2,5.4,3.9,8.2c-1.9,0.3-3.8,0.8-5.8,1.5
	C157.1,180.7,154.1,178.2,152,175.3z M160.2,146.1c2.2,0.7,4.4,1.2,6.5,1.5c-1.8,2.2-3.2,4.5-4.1,6.9c-3.2-0.6-6.4-1.4-9.8-2.5
	C154.7,149.7,157.3,147.7,160.2,146.1z M170.9,143.2c-0.7,0.7-1.4,1.4-2.1,2.1c-1.3-0.2-2.7-0.5-4.1-0.9
	C166.6,143.7,168.7,143.3,170.9,143.2z M173.3,143.1c-0.9,0.8-1.7,1.6-2.4,2.4c-0.3,0-0.7-0.1-1-0.1c0.7-0.8,1.5-1.5,2.4-2.3
	c0.2,0,0.4,0,0.6,0C173,143.1,173.2,143.1,173.3,143.1z M192.3,151.4c-2.4,1.1-4.8,2-7.3,2.7c-1-2.5-2.4-4.9-4.3-7.2
	c1.2-0.4,2.4-0.8,3.6-1.3C187.4,146.9,190.2,148.9,192.3,151.4z M185.7,171.4c3,0.8,5.8,1.8,8.6,3.1c-0.1,0.2-0.3,0.4-0.4,0.6
	c-2.7-1.3-5.5-2.3-8.4-3C185.5,171.9,185.6,171.7,185.7,171.4z M183.5,171.7c0.1-0.2,0.2-0.5,0.2-0.7c0.3,0.1,0.7,0.1,1,0.2
	c-0.1,0.2-0.2,0.5-0.2,0.7C184.2,171.8,183.8,171.8,183.5,171.7z M179.4,181.2c1.7-3,3-5.8,3.9-8.6c0.3,0.1,0.7,0.1,1,0.2
	c-1,2.8-2.3,5.7-4.1,8.7C179.8,181.4,179.6,181.3,179.4,181.2z M170,181.3c2.8-0.2,5.4,0,8,0.5c-0.2,0.3-0.3,0.5-0.5,0.8
	c-2.2-0.5-4.5-0.7-7-0.4C170.3,181.9,170.2,181.6,170,181.3z M164.6,172.4c0.9,2.7,2.2,5.4,3.9,8.2c-0.4,0-0.7,0.1-1.1,0.1
	c-1.7-2.8-3.1-5.6-4-8.2C163.8,172.4,164.2,172.4,164.6,172.4z M162.8,170.7c0.4-0.1,0.8-0.1,1.3-0.2c0.1,0.3,0.2,0.6,0.3,0.9
	c-0.4,0.1-0.8,0.1-1.2,0.2C163,171.3,162.8,171,162.8,170.7z M161.8,170.9c0.1,0.3,0.2,0.6,0.3,1c-3.5,0.6-7,1.5-10.7,2.7
	c-0.2-0.3-0.4-0.6-0.6-0.9C154.7,172.4,158.3,171.5,161.8,170.9z M161,166.3c0.1,1.2,0.3,2.4,0.6,3.6c-3.6,0.6-7.3,1.6-11.2,2.8
	c-1-2-1.8-4.2-2-6.4H161z M160.8,163.4c0,0.7,0,1.3,0,2h-12.5c0-0.4-0.1-0.8-0.1-1.2c0-0.3,0-0.5,0-0.8H160.8z M161.7,157.2
	c-0.5,1.7-0.8,3.5-0.9,5.3h-12.4c0.3-2.9,1.2-5.6,2.7-8C154.8,155.6,158.3,156.6,161.7,157.2z M162,156.3c-3.3-0.6-6.8-1.5-10.4-2.6
	c0.2-0.3,0.4-0.5,0.6-0.8c3.5,1.1,6.9,2,10.1,2.6C162.2,155.7,162.1,156,162,156.3z M164.4,155.8c-0.1,0.3-0.2,0.6-0.3,0.8
	c-0.4-0.1-0.8-0.1-1.2-0.1c0.1-0.3,0.2-0.6,0.3-0.8C163.7,155.7,164,155.7,164.4,155.8z M168.8,147.9c-1.8,2.3-3.1,4.6-4.1,7
	c-0.4-0.1-0.8-0.1-1.2-0.1c1-2.4,2.4-4.7,4.2-7C168.1,147.9,168.5,147.9,168.8,147.9z M172.8,146.5c1.4,0,2.7-0.1,3.9-0.4
	c0.2,0.2,0.3,0.4,0.5,0.6c-2.1,0.4-4.3,0.5-6.6,0.4c0.2-0.2,0.4-0.5,0.6-0.7C171.8,146.5,172.3,146.5,172.8,146.5z M174.3,143.5
	c0.6,0.6,1.2,1.2,1.8,1.8c-1.3,0.2-2.6,0.3-3.9,0.2C172.8,144.9,173.5,144.2,174.3,143.5z M177.8,145c-0.2,0.1-0.5,0.1-0.7,0.2
	c-0.6-0.7-1.2-1.3-1.8-1.9c0.3,0,0.6,0.1,0.9,0.1C176.8,143.9,177.3,144.4,177.8,145z M178.8,144.7c-0.4-0.4-0.7-0.8-1.1-1.2
	c0.9,0.2,1.8,0.4,2.6,0.6C179.9,144.3,179.4,144.5,178.8,144.7z M179.5,145.4c0.8-0.3,1.5-0.6,2.2-0.9c0.5,0.1,0.9,0.3,1.3,0.5
	c-1,0.4-2,0.8-3,1.1C179.9,145.9,179.7,145.6,179.5,145.4z M178.3,146.5c-0.2-0.2-0.3-0.4-0.5-0.6c0.3-0.1,0.5-0.1,0.7-0.2
	c0.2,0.2,0.4,0.4,0.5,0.7C178.8,146.4,178.6,146.5,178.3,146.5z M183,154.5c-1-2.5-2.3-4.9-4.1-7.2c0.3-0.1,0.5-0.2,0.8-0.2
	c1.9,2.3,3.3,4.7,4.4,7.2C183.7,154.4,183.4,154.5,183,154.5z M184.6,155.8c-0.4,0.1-0.7,0.2-1.1,0.3c-0.1-0.2-0.1-0.4-0.2-0.6
	c0.4-0.1,0.7-0.2,1.1-0.3C184.5,155.4,184.6,155.6,184.6,155.8z M185.6,155.5c-0.1-0.2-0.1-0.4-0.2-0.6c2.6-0.7,5.2-1.6,7.6-2.8
	c0.1,0.2,0.3,0.3,0.4,0.5C190.8,153.8,188.2,154.8,185.6,155.5z M186.9,162.5c-0.1-2.1-0.4-4.1-1-6.1c2.8-0.8,5.5-1.8,8.1-3
	c1.9,2.7,3.1,5.8,3.4,9.1H186.9z M186.7,166.3h10.6c-0.3,2.7-1.2,5.2-2.6,7.4c-2.8-1.4-5.8-2.4-8.8-3.2
	C186.3,169.1,186.5,167.7,186.7,166.3z M184.5,166.3h1.2c-0.1,1.3-0.4,2.6-0.7,3.9c-0.4-0.1-0.7-0.1-1.1-0.2
	C184.2,168.8,184.4,167.6,184.5,166.3z M163.2,166.3c0.1,1.1,0.3,2.2,0.6,3.3c-0.4,0.1-0.8,0.1-1.3,0.2c-0.3-1.2-0.5-2.3-0.6-3.4
	H163.2z M163.1,163.4c0,0.7,0,1.3,0,2h-1.3c0-0.7,0-1.4,0-2H163.1z M163.1,162.5h-1.3c0.1-1.7,0.4-3.4,0.9-5.1
	c0.4,0.1,0.8,0.1,1.2,0.2C163.4,159.1,163.2,160.8,163.1,162.5z M183.8,165.4H164c-0.1-0.7-0.1-1.4,0-2h19.9
	C183.8,164.1,183.8,164.7,183.8,165.4z M184.7,163.4h1.2c0,0.7,0,1.3-0.1,2h-1.2C184.7,164.7,184.7,164.1,184.7,163.4z M185.9,162.5
	h-1.2c-0.1-1.9-0.4-3.7-0.9-5.5c0.4-0.1,0.7-0.2,1.1-0.3C185.5,158.6,185.8,160.5,185.9,162.5z M172.7,158.3c3.5,0,7-0.4,10.3-1.1
	c0.5,1.7,0.8,3.5,0.9,5.3h-19.9c0.1-1.6,0.3-3.3,0.8-4.8C167.4,158,170.1,158.3,172.7,158.3z M165.6,155c1-2.4,2.4-4.7,4.3-7
	c0.7,0,1.5,0.1,2.2,0.1c2,0,4-0.2,5.8-0.6c1.8,2.3,3.2,4.7,4.2,7.2C177,155.7,171.5,155.8,165.6,155z M173.2,156.5
	c3.2,0,6.3-0.4,9.3-0.9c0.1,0.2,0.1,0.4,0.2,0.7c-5.6,1.2-11.4,1.3-17.6,0.5c0.1-0.3,0.2-0.5,0.3-0.8
	C168,156.3,170.6,156.5,173.2,156.5z M164.7,169.5c-0.3-1.1-0.5-2.1-0.6-3.2h19.6c-0.1,1.2-0.3,2.4-0.6,3.6
	C177.3,168.8,171.2,168.6,164.7,169.5z M182.3,172.5c-0.9,2.8-2.2,5.6-3.9,8.5c-2.8-0.6-5.8-0.8-9-0.5c-1.7-2.8-3.1-5.6-4-8.2
	C171.5,171.4,177.1,171.5,182.3,172.5z M165.2,171.4c-0.1-0.3-0.2-0.6-0.3-0.9c6.4-0.8,12.3-0.7,18,0.4c-0.1,0.2-0.2,0.5-0.2,0.7
	C177.2,170.6,171.4,170.5,165.2,171.4z M197.4,164.2c0,0.4,0,0.8-0.1,1.2h-10.6c0.1-0.7,0.1-1.4,0.1-2h10.5
	C197.4,163.7,197.4,163.9,197.4,164.2z M167.4,146.8c-2-0.3-4-0.7-6-1.3c0.6-0.3,1.1-0.5,1.7-0.7c1.7,0.5,3.4,1,5,1.2
	C167.8,146.3,167.6,146.6,167.4,146.8z M169.2,146.2c0.3,0,0.6,0.1,1,0.1c-0.2,0.2-0.4,0.5-0.6,0.7c-0.3,0-0.7-0.1-1-0.1
	C168.7,146.7,169,146.5,169.2,146.2z M167.4,182.6c-1.3,0.3-2.6,0.6-4,1c-0.6-0.2-1.1-0.4-1.6-0.7c1.7-0.5,3.4-1,5.1-1.2
	C167,182,167.2,182.3,167.4,182.6z M170.1,183.2c0.5,0.7,0.9,1.4,1.4,2.1c-0.4,0-0.8,0-1.2-0.1c-0.5-0.6-0.9-1.2-1.3-1.9
	C169.3,183.2,169.7,183.2,170.1,183.2z M168.4,182.4c-0.2-0.3-0.3-0.5-0.5-0.8c0.4-0.1,0.7-0.1,1.1-0.1c0.2,0.3,0.3,0.5,0.5,0.8
	C169.1,182.3,168.8,182.4,168.4,182.4z M178.5,183.9c-0.2,0.3-0.4,0.6-0.6,0.9c-0.3,0.1-0.6,0.1-0.9,0.1c0.3-0.4,0.6-0.8,0.8-1.3
	C178.1,183.8,178.3,183.8,178.5,183.9z M180.5,182.6c0.8,0.3,1.5,0.6,2.3,0.9c-0.5,0.2-1,0.3-1.5,0.5c-0.4-0.2-0.9-0.4-1.3-0.6
	C180.2,183.1,180.4,182.8,180.5,182.6z M179.1,183.1c-0.2-0.1-0.4-0.1-0.7-0.2c0.2-0.3,0.3-0.5,0.5-0.8c0.2,0.1,0.5,0.1,0.7,0.2
	C179.4,182.5,179.2,182.8,179.1,183.1z M198.4,164.2c0-12.1-11.4-22-25.5-22c-0.3,0-0.6,0-1,0l0,0l0,0c-3.1,0.1-6.1,0.7-8.8,1.6
	l-0.1,0l0,0c-9.2,3.3-15.7,11.2-15.7,20.3c0,9.2,6.6,17.1,15.9,20.4l0,0.1l0.1,0c2.9,1,6.1,1.6,9.5,1.6c3,0,5.8-0.5,8.4-1.3l0.1,0
	l0.1-0.1C191.3,181.8,198.4,173.7,198.4,164.2z"/>
<path class="st7" d="M107.5,261.9v1.5c0,3.5,0.4,6.9,1.1,10.2l1.2-30.9h-7.9l-3,8.3l-2.4-8.6h-7.2v19.3l16.7,0.2L107.5,261.9z"/>
<path class="st7" d="M239,263.2v-1.5h1.6h16.7v-19.3h-7.2l-2.4,8.6l-3-8.3h-7.9l1.2,30.9C238.6,270.2,239,266.8,239,263.2"/>
<path class="st7" d="M240.6,263.2c0,33.5-30.1,60.7-67.3,60.7c-37.2,0-67.3-27-67.3-60.5l-21.1-0.2c0,44,39.6,79.7,88.4,79.7
	c48.8,0,88.4-35.7,88.4-79.7H240.6z"/>
<path class="st4" d="M150.5,211.1c-0.1-0.8,1-1,1.3-1.8c0.2-0.4,0.1-1.4-0.4-1.3c-0.9,0.2-1,1.3-1.5,1.4c-0.9,0.2,0.4-1-0.2-1.6
	c-0.3-0.3-1.9-0.5-2.1,0c-0.2,0.5,0.9,1.8,0.5,1.5c-0.5-0.4-1-1.6-2.4-1.2c-0.3,0.1-0.5,0.7-0.3,0.9c0.6,0.7,1.6,0.5,2.3,1.2
	c0.3,0.3-1.4,0.2-1.9,0.6c-0.3,0.2,0,1.1,0.3,1.1c1.1,0.2,2.6-0.8,3.2-0.1l1.8,2l1.5-0.5C151.9,212.6,150.7,212.2,150.5,211.1"/>
<path class="st4" d="M207.8,213.5c0.5,0,1.7-0.8,1.3-1.3c-0.7-1-2-0.4-2.3-1c-0.7-1,1.3-0.1,1.7-1.4c0.2-0.6-0.4-2.7-1-2.7
	c-0.6,0.1-1.6,2.3-1.4,1.6c0.3-0.9,1.3-2.3,0.2-3.9c-0.2-0.3-1.1-0.1-1.2,0.2c-0.5,1.3,0.3,2.4-0.3,3.7c-0.2,0.6-0.9-1.6-1.7-2
	c-0.4-0.2-1.2,0.6-1.1,1.2c0.3,1.5,2.2,2.7,1.7,4.1l-1.9,5.4l1.9-0.2c0.5-1.5,0.4-3.4,1.4-4.3C205.9,212.3,206.8,213.6,207.8,213.5"
	/>
<path class="st4" d="M135.9,226.8c0.2-0.6-0.5-1.2-0.4-1.8c0.1-0.4,0.8-1.2,1.1-0.9c0.6,0.5,0.2,1.4,0.3,2.1c0,0.3-0.2,0.8,0.1,0.9
	c0.4,0.2,1.2,0.1,1.4-0.3c0.4-0.8,0-1.8-0.2-2.7c0-0.3-0.4-0.4-0.3-0.7c0.2-0.5,0.9-0.5,1.4-0.9l0.8-0.6l4.2,2.2l-0.2-2.1
	c-1.9-0.8-4.2-1.3-5.8-2.6c-0.5-0.4,0.6-1,0.6-1.7c0-0.6-0.8-1-0.8-1.5c0.1-0.4,0.9-0.5,1.1-0.9c0.2-0.7,0.1-1.6-0.3-2.2
	c-0.3-0.4-1.1-0.8-1.5-0.5c-0.6,0.4-0.6,2.6-0.9,2.4c-1-0.7,0.2-2.4-0.2-3.5c0-0.1-0.6-0.4-0.7-0.3c-0.5,0.1-1.2,0-1.4,0.5
	c-0.2,0.6,0.5,1.3,0.4,1.9c-0.1,0.4-1.1,0.2-1.2,0.6c-0.1,0.6,0.8,1.1,0.8,1.7c0,0.5-0.5,0.6-0.5,1c0.1,0.5,1.6,0.7,1.2,1.1
	c-0.5,0.6-1.9,0.3-2.8,0.3c-0.6-0.1-1.6-0.1-1.7-0.7c-0.1-0.5,0.9-0.3,0.9-0.8c0-0.7-0.5-1.1-1.2-1.4c-0.7-0.3-1.4-0.7-2-0.3
	c-0.4,0.2,0.3,1.3-0.1,1.3c-0.8-0.1-0.9-1.3-1.7-1.4c-0.5-0.1-0.8,0.7-0.7,1.1c0.1,0.7,0.5,1.4,1.1,1.7c0.4,0.3,1.2-0.3,1.6,0
	c0.3,0.2-0.2,1,0.1,1.3c0.5,0.6,1.1,0.3,1.9,0.5c0.5,0.1,0.6,0,1.1-0.1c0.7-0.1,1.7,0.3,2.4,0.1c0.5-0.1,1.2-1,1.7-0.9
	c0.6,0.1,0.8,0.8,1.2,1.2c0.6,0.6,1.7,0.9,1.9,1.7c0.1,0.4-0.7,0.9-1.1,0.8c-0.9-0.2-1.2-1.5-2-1.6c-0.6-0.1-1.2,0.7-1.2,1.2
	c0,0.5,0.9,0.7,1.1,1.2c0.1,0.2,0.1,0.8-0.1,0.8c-1-0.1-1.8-1.2-2.8-1.2c-0.5,0-1.1,0.8-0.8,1.2c0.3,0.6,1.4,0.6,1.9,1.1
	c0.5,0.6,0.2,1.7,0.9,2.2C134.9,227.7,135.7,227.3,135.9,226.8"/>
<path class="st4" d="M223.2,214.7c-0.8,0.1-0.9,1.4-1.7,1.5c-0.5,0,0.3-1-0.1-1.3c-0.6-0.4-1.4,0-2,0.3c-0.7,0.3-1.2,0.7-1.2,1.4
	c0,0.5,1,0.3,0.9,0.8c-0.1,0.6-1.1,0.6-1.7,0.7c-0.9,0.1-2.2,0.4-2.8-0.3c-0.4-0.4,1.1-0.6,1.2-1.1c0.1-0.5-0.5-0.6-0.5-1
	c0-0.6,0.9-1.1,0.8-1.7c-0.1-0.4-1.1-0.2-1.2-0.6c-0.2-0.7,0.6-1.3,0.4-1.9c-0.1-0.4-0.9-0.3-1.4-0.5c-0.1,0-0.7,0.2-0.7,0.3
	c-0.4,1.1,0.8,2.8-0.2,3.5c-0.3,0.2-0.3-2-0.9-2.4c-0.4-0.3-1.2,0.1-1.5,0.5c-0.4,0.6-0.5,1.5-0.3,2.2c0.1,0.4,1,0.5,1.1,0.9
	c0.1,0.6-0.7,1-0.8,1.5c0,0.6,1.1,1.2,0.6,1.7c-1.6,1.3-3.9,1.8-5.8,2.6l-0.2,2.1l4.2-2.2l0.8,0.6c0.4,0.3,1.1,0.4,1.4,0.9
	c0.1,0.2-0.3,0.4-0.3,0.7c-0.1,0.9-0.6,1.8-0.2,2.7c0.2,0.4,1,0.5,1.4,0.3c0.3-0.1,0-0.6,0.1-0.9c0.1-0.7-0.2-1.6,0.3-2.1
	c0.3-0.3,1,0.4,1.1,0.8c0.2,0.6-0.6,1.3-0.4,1.8c0.2,0.4,1,0.9,1.4,0.6c0.7-0.5,0.4-1.6,0.9-2.2c0.5-0.5,1.6-0.5,1.9-1.1
	c0.2-0.5-0.3-1.2-0.9-1.2c-1,0-1.8,1-2.8,1.2c-0.3,0-0.3-0.5-0.1-0.8c0.2-0.5,1.1-0.7,1.1-1.2c0-0.6-0.6-1.3-1.2-1.2
	c-0.9,0.1-1.2,1.3-2,1.6c-0.4,0.1-1.2-0.4-1.1-0.8c0.3-0.8,1.3-1.1,1.9-1.7c0.4-0.4,0.6-1.1,1.2-1.2c0.6-0.1,1.2,0.8,1.7,0.9
	c0.7,0.2,1.6-0.2,2.4-0.1c0.6,0.1,0.6,0.2,1.1,0.1c0.9-0.2,1.4,0.1,1.9-0.5c0.2-0.3-0.2-1.1,0.1-1.3c0.4-0.3,1.2,0.3,1.6,0
	c0.6-0.4,1-1.1,1.1-1.7C223.9,215.3,223.6,214.6,223.2,214.7"/>
<path class="st4" d="M214.7,228.2c-1.1,0.3-1.6,1.3-2.7,1.6c-0.5,0.1,0.7-1.3,0.6-2c-0.1-0.4-1-0.4-1.4-0.1c-0.9,0.9-0.8,2.6-2,3
	l-4.8,1.5l1.1,1c1.3-0.4,2.6-1.4,3.7-1.2c0.9,0.2,0.4,1.3,0.9,1.9c0.3,0.3,1.4,0.6,1.6,0.2c0.4-0.9-0.6-1.4-0.4-1.9
	c0.4-0.9,0.7,0.8,1.8,0.4c0.6-0.2,1.7-1.6,1.4-1.9c-0.4-0.4-2.4,0.1-1.8-0.1c0.8-0.3,2.3-0.3,2.8-1.8
	C215.5,228.6,215,228.1,214.7,228.2"/>
<path class="st4" d="M138.7,236c-0.3-0.4-1.2-0.4-1.4-0.1c-0.2,0.6,0.8,2.3,0.3,2.1c-1.1-0.5-1.3-1.5-2.4-2
	c-0.3-0.1-0.9,0.2-0.9,0.5c0.3,1.5,1.8,1.8,2.5,2.2c0.6,0.3-1.4-0.5-1.8-0.2c-0.4,0.3,0.5,1.8,1.1,2.1c1,0.5,1.6-1.1,1.8-0.1
	c0.1,0.5-1,0.8-0.8,1.8c0.1,0.5,1.3,0.3,1.6,0.1c0.6-0.5,0.4-1.7,1.2-1.7c1.2,0,3.2,1.6,4.4,2.2l0.3-1.3l-4.4-2.2
	C139.1,238.7,139.4,237,138.7,236"/>
<path class="st4" d="M173.9,210.1l-2.5-1l-0.8-1.6l0.3-1.1l1.2-0.5l-0.1-1.1l0.8-0.4l1.1,1.2L173.9,210.1z M191.9,204.2l-1.9,0.3
	l0.7-1.2l-1.2-0.4c-1.4,0.6-2.6,1.4-4,1.8c-0.8,0.2-1.9,0.3-2.6,0l-1.8-0.9c-0.7,0.4-1,2-1.3,1.5l-0.7-1.2c-0.3,0.2-0.6,0.7-1,0.6
	l-0.1,0l0.3,3.5l-1.6,0.9l-1.1-0.1l-0.1-4.5l-0.8-1.1l-1.4,0.2c-0.6,0.2-1.3,0.1-1.8,0.4c-0.4,0.3-0.7,0.7-1.2,0.6l-2.3-0.4
	c0.2,0.5,0.5,0.9,0.1,1.4c-0.4,0.5-1.3-0.3-1.5,0.2c-0.3,0.8,2.1,2.6,1.1,2.4c-2.2-0.3-4-1.8-5.6-3.1l-4.5-3.7l-0.7,0.8
	c1.6,1.3,3.3,2.5,5,3.7c0.4,0.3-1.1,0.7-1.5,0.4c-0.4-0.3,0-0.9-0.5-1.2c-0.6-0.4-1.2-0.6-1.6,0c-0.4,0.5,0.6,1.2,0.5,1.6
	c-0.1,0.5-0.8-1-1.3-1.2c-0.6-0.1-1.2,0.3-1.3,0.9c-0.1,0.6,1.5,1,1,1.3c-0.7,0.4-1.1-0.6-2-0.6c-0.3,0-0.6,0.5-0.4,0.7
	c0.6,0.5,1.2,0.7,2,0.8c0.5,0,0.6-0.9,1.1-0.7c0.4,0.2-0.6,0.6-0.5,1c0.2,0.6,1,0.5,1.6,0.3c0.7-0.2,0.4-1.4,1.1-1.4
	c0.8,0,3.2-1.1,3.8-0.5c0.8,0.7,1.2,0.8,1.9,1.2c0.4,0.2-0.3,0.9-0.7,0.9c-0.7,0.1-1.4-0.9-2.1-0.7c-0.7,0.2-1.4,1-1.3,1.7
	c0.1,0.6,0.9,1.2,1.6,1.2c0.5,0-0.1-1.4,0.3-1.2c0.5,0.2,0,1.2,0.4,1.5c0.4,0.3,1.1,0.2,1.5,0c0.3-0.2,0.1-1.3,0.4-1.1
	c0.4,0.2-0.5,1-0.1,1.2c0.4,0.3,1.2,0.2,1.7-0.1c0.7-0.4,1.3-1.8,2.1-1.5c1.2,0.5,3.6,0.3,3.6,1l-0.2,3.7l1.4,1.6l1.9-2.3
	c-0.2-1.2-0.8-2.8-0.2-3.9c0.5-0.9,1.8-1,2.7-1.5c0.2-0.1,0.5,0.3,0.7,0.4c0.5,0.2,1.6,0.1,1.7,0.7c0.1,0.9-1.6,1.2-1.2,2
	c0.3,0.6,1.5,0.3,2.1-0.2c0.5-0.4-0.2-1.5,0.4-1.5c0.6,0,0.2,1.2,0.7,1.5c0.4,0.2,1.1,0,1.5-0.3c0.2-0.1-0.5-0.4-0.4-0.6
	c0.1-0.3,0.9-0.5,0.7-0.8c-0.3-0.4-1.5,0-1.6-0.5c-0.1-0.7,1.4-1.1,1.3-1.9c-0.1-0.6-2.3-0.1-1.8-0.5c0.9-0.7,2.3-1.3,2.7-1.8
	c0.5-0.5,2,0.2,3.4,0.6c0.5,0.1-0.5,1-0.3,1.4c0.3,0.5,1.4,0.9,2,0.6c0.6-0.3-0.6-1,0.1-1.3c0.9-0.3,1.2,0.3,2.1,0.3
	c0.5,0,1.1-0.7,0.9-1.2C193.4,205.5,192.7,204.1,191.9,204.2z"/>
<path class="st7" d="M179.4,271.7c-2.4,0.4-4.2,1.3-4,1.9c0.2,0.7,2.4,0.9,4.8,0.5c2.4-0.4,4.2-1.2,4-1.9
	C184,271.5,181.8,271.3,179.4,271.7"/>
<path class="st7" d="M167.8,271.4c-2.4-0.5-4.6-0.4-4.8,0.3c-0.3,0.7,1.5,1.6,3.9,2.1c2.4,0.5,4.6,0.4,4.8-0.3
	C171.9,272.8,170.2,271.9,167.8,271.4"/>
<polygon class="st7" points="183.3,227.7 176.1,227.7 174.7,229.3 174.7,230.1 "/>
<polygon class="st7" points="174.7,230.7 174.7,231.5 180.4,238.2 177.8,231.5 "/>
<polygon class="st7" points="173.8,234 173.8,230.4 167.5,238.2 "/>
<polygon class="st7" points="171.4,227.7 173.8,230.4 173.8,221.1 "/>
<path class="st7" d="M203.8,250.7l-24.2-1.6c-0.9,0.5-1.7,0.8-2.5,1c-0.8,0.2-1.6,0.3-2.4,0.3c-0.8,0-1.7-0.1-2.6-0.3
	c-0.9-0.2-1.8-0.6-2.8-1l-24.4,1.6v-32.2l3.2-0.2l-1.1,1.8v28.6l23.1-1.2c1.1,0.8,2.5,1.2,4.2,1.2c1.7,0,3.1-0.4,4.3-1.2l23,1.2
	v-28.6l-1.4-2l3.5,0.2V250.7z M148.5,220.4l2.8-4.5v25.7l-2.8,4.8V220.4z M158.2,241.9c1.8-0.2,3.5-0.3,5.1-0.3
	c3.4,0,5.9,0.5,7.5,1.4c1.6,0.9,2.5,2.4,2.8,4.5c-1.4-0.3-2.5-0.8-3.1-1.4l-21,1.4l2.8-4.7C154.4,242.4,156.3,242.1,158.2,241.9z
	 M171,227.2l2.9-7.4l0,0v-2.2h0.9v4.6l1.9,5h8.3l-6.5,4.5l3,7.7l-6.7-4.2v10.5h-0.9v-11.1l0,0l-7.4,4.8l2.9-7.7l-6.9-4.5H171z
	 M190.4,241.9c1.9,0.2,4,0.5,6.2,0.9l2.8,4.6l-21.1-1.5c-0.7,0.8-1.8,1.3-3.2,1.5c0-3.9,3.4-5.8,10.1-5.8
	C186.8,241.6,188.5,241.7,190.4,241.9z M197.4,216l2.8,4.7v25.6l-2.8-4.6V216z M199.6,216.9l-2-3.2c-2.3-0.5-4.4-0.9-6.3-1.2
	c-1.9-0.3-3.7-0.4-5.4-0.4c-3.2,0-5.7,0.3-7.5,1.1c-1.8,0.7-3.2,1.9-4.1,3.4c-1-1.6-2.4-2.8-4.1-3.5c-1.7-0.7-4.1-1-7.2-1
	c-1.8,0-3.7,0.1-5.7,0.4c-2,0.3-4.2,0.6-6.4,1.2l-2.1,3.5l-5.4,0.3v34.6l25.4-1.6c1.1,0.4,2.1,0.8,3.1,1c1,0.2,1.9,0.3,2.7,0.3
	c0.8,0,1.7-0.1,2.6-0.3c0.9-0.2,1.8-0.6,2.7-1l25.2,1.6v-34.9L199.6,216.9z"/>
<polygon class="st7" points="173.8,230.4 164,227.7 170,231.5 "/>
<polygon class="st7" points="173.8,230.4 173.8,230.4 173.8,230.4 "/>
<polygon class="st7" points="173.8,230.4 173.8,230.4 173.8,230.4 "/>
<path class="st2" d="M123.6,311.3c0.6,0.5,1,0.9,1.2,1.1c0.2,0.3,0.4,0.6,0.4,0.9c0.1,0.3,0,0.7-0.1,1.1c-0.1,0.4-0.4,1-0.8,1.6
	c-0.4,0.6-0.8,1.1-1.2,1.4c-0.3,0.3-0.6,0.4-1,0.5c-0.2,0-0.4,0-0.6-0.1c-0.2-0.1-0.5-0.3-1-0.7l-1-0.8l3.5-5.4L123.6,311.3z
	 M126.3,317.8c0.5-0.8,0.9-1.6,1.1-2.3c0.2-0.7,0.3-1.4,0.2-2.1c-0.1-0.7-0.3-1.3-0.7-1.9c-0.3-0.4-0.7-0.9-1.4-1.4l-3.1-2.5
	l-5.9,9.1l3.1,2.5c0.6,0.5,1.1,0.8,1.6,1c0.4,0.2,0.9,0.2,1.2,0.2c0.1,0,0.3,0,0.4,0c0.6-0.1,1.3-0.4,1.9-0.9
	C125.3,319.1,125.8,318.5,126.3,317.8z"/>
<polygon class="st2" points="139.6,319.2 137.4,318.1 133.2,328.2 139.7,331.6 140.6,329.6 136.2,327.3 "/>
<polygon class="st2" points="158.5,325.6 156.1,325.1 154.4,336.2 161.5,337.6 161.9,335.3 157.1,334.4 "/>
<path class="st2" d="M169.8,332.6c-0.1,1.2-0.4,2.1-0.9,2.6c-0.5,0.5-1.1,0.7-1.8,0.7c-0.7-0.1-1.3-0.4-1.7-1
	c-0.4-0.6-0.6-1.5-0.5-2.7c0.1-1.2,0.4-2.1,0.9-2.6c0.4-0.5,0.9-0.7,1.6-0.7c0.1,0,0.2,0,0.3,0c0.7,0.1,1.3,0.4,1.7,1
	C169.8,330.5,169.9,331.5,169.8,332.6 M167.8,326.6c-0.8-0.1-1.6,0-2.2,0.2c-0.5,0.2-1,0.5-1.4,0.9c-0.4,0.4-0.8,0.9-1.1,1.5
	c-0.4,0.7-0.6,1.7-0.7,2.8c-0.1,1.8,0.2,3.2,1,4.3c0.8,1.1,2,1.7,3.5,1.9c0.2,0,0.4,0,0.6,0c1.2,0,2.3-0.4,3.1-1.2
	c1-0.9,1.5-2.3,1.7-4.1c0.1-1.8-0.2-3.3-1-4.4C170.5,327.4,169.3,326.8,167.8,326.6z"/>
<polygon class="st2" points="120.1,305.4 116.3,310.4 117.4,302.7 115.7,301.1 109.1,309.6 110.8,311.2 114.6,306.4 113.5,313.9 
	115.2,315.5 121.8,307 "/>
<path class="st2" d="M149.3,330.8l2.2,0.7l-0.3,1c-0.3,0.1-0.6,0.2-1,0.2c-0.4,0-0.8,0-1.2-0.1c-0.7-0.2-1.3-0.7-1.6-1.4
	c-0.3-0.7-0.3-1.7,0-2.9c0.3-1.1,0.7-1.8,1.3-2.2c0.6-0.4,1.2-0.5,2-0.2c0.5,0.2,0.9,0.4,1.1,0.8c0.3,0.4,0.4,0.8,0.4,1.3v0.2
	l2.4,0.2l0-0.2c0.1-1.1-0.2-2-0.7-2.8c-0.5-0.8-1.4-1.4-2.6-1.8c-0.9-0.3-1.7-0.4-2.5-0.2c-0.9,0.2-1.7,0.7-2.4,1.4
	c-0.6,0.7-1.1,1.7-1.4,2.8c-0.3,1-0.3,2-0.2,3c0.2,1,0.5,1.9,1.2,2.6c0.6,0.7,1.5,1.2,2.5,1.6c0.6,0.2,1.2,0.3,1.8,0.3
	c0.2,0,0.4,0,0.7,0c0.9-0.1,1.6-0.3,2.2-0.7l1.1-4.3l-4.5-1.4L149.3,330.8z"/>
<path class="st2" d="M131.5,318.4l-0.5,3.3l-1.8-1.1L131.5,318.4z M132.1,314.8l-8.4,7.6l2.2,1.4l1.8-1.7l3.1,2l-0.4,2.6l2.2,1.5
	l1.5-12L132.1,314.8z"/>
<polygon class="st2" points="93.4,281.6 91.4,282.8 92.4,285 94.5,283.8 "/>
<path class="st2" d="M92,277.4c-0.6-0.3-1.1-0.8-1.3-1.5c-0.3-0.8-0.2-1.5,0.1-2.2c0.3-0.7,1-1.3,1.9-1.7c0.6-0.3,1.1-0.4,1.6-0.4
	c0.3,0,0.6,0.1,0.8,0.2c0.6,0.3,1.1,0.8,1.3,1.6c0.3,0.8,0.2,1.5-0.1,2.2c-0.3,0.7-1,1.2-1.9,1.6C93.4,277.6,92.6,277.6,92,277.4
	 M95.3,279.7c1.5-0.7,2.6-1.6,3.1-2.9c0.5-1.3,0.6-2.7,0-4.3c-0.3-0.9-0.7-1.6-1.1-2.1c-0.4-0.4-0.8-0.8-1.3-1
	c-0.5-0.3-1.1-0.4-1.6-0.4l-0.2,0c-0.7,0-1.5,0.2-2.4,0.6c-1.5,0.6-2.5,1.6-3,2.9c-0.5,1.3-0.5,2.7,0,4.3c0.5,1.5,1.4,2.6,2.6,3.1
	c0.5,0.3,1.1,0.4,1.8,0.4C93.7,280.2,94.4,280,95.3,279.7z"/>
<polygon class="st2" points="97,293.3 98.3,295.4 100.2,293.9 98.9,291.9 "/>
<path class="st2" d="M108.2,302.4l4.8-4.6l-1.5-2l-4.9,4.8c-0.7,0.7-1.1,0.8-1.3,0.8c-0.2,0-0.4-0.1-0.6-0.4c-0.2-0.3-0.3-0.6-0.2-1
	c0.1-0.3,0.3-0.6,0.7-1l0.1-0.1l-1.7-1.7l-0.2,0.2c-0.8,0.8-1.3,1.6-1.3,2.5c-0.1,0.9,0.2,1.7,0.9,2.6c0.6,0.7,1.2,1.2,1.8,1.4
	c0.3,0.1,0.5,0.1,0.8,0.1c0.4,0,0.7-0.1,1.1-0.3C107,303.4,107.6,303,108.2,302.4"/>
<path class="st2" d="M101.4,290.4L101.4,290.4L101.4,290.4L101.4,290.4z M99.8,286.3l-0.4-0.9l2-1.3l0.4,0.7
	c0.4,0.7,0.6,1.1,0.6,1.4c0.1,0.3,0.1,0.6,0,0.9c-0.1,0.3-0.2,0.5-0.5,0.7c-0.2,0.1-0.4,0.2-0.6,0.2c-0.2,0-0.4-0.1-0.6-0.3
	C100.5,287.6,100.2,287.2,99.8,286.3z M104.5,288.4c0.2-0.7,0.3-1.3,0.1-2c-0.1-0.4-0.4-1.2-1.1-2.4l-1.7-3.3l-8.7,5.7l1.2,2.3
	l3.2-2l0.5,1c0.4,0.9,0.8,1.5,1.2,1.9c0.3,0.3,0.6,0.6,1,0.8c0.4,0.2,0.8,0.3,1.2,0.3l0.1,0c0.5,0,1-0.2,1.6-0.6
	C103.8,289.6,104.3,289.1,104.5,288.4z"/>
<path class="st2" d="M176.6,333.5c1,0,1.5,0,1.7,0.1c0.2,0.1,0.4,0.2,0.5,0.4c0.1,0.2,0.2,0.4,0.2,0.7c0,0.3-0.1,0.6-0.2,0.8
	c-0.2,0.2-0.3,0.3-0.6,0.4c-0.2,0.1-0.8,0.1-1.3,0.1l-1.6,0.1l-0.1-2.5L176.6,333.5z M178.3,330.9c-0.1,0.2-0.4,0.3-0.6,0.3
	c-0.2,0-0.6,0.1-1.4,0.1l-1.1,0l-0.1-2.1l0.9,0c0.9,0,1.4-0.1,1.6,0c0.3,0,0.5,0.1,0.6,0.3c0.1,0.2,0.2,0.4,0.2,0.7
	C178.5,330.5,178.4,330.7,178.3,330.9z M179.8,332.1c0.3-0.2,0.5-0.5,0.7-0.8c0.2-0.5,0.4-1,0.3-1.5c0-0.5-0.1-1-0.4-1.3
	c-0.2-0.4-0.5-0.7-0.8-1c-0.3-0.2-0.7-0.4-1.1-0.4c-0.4-0.1-1-0.1-1.8,0l-4.1,0.2l0.4,11.3l3.5-0.1c1.4-0.1,2.1-0.1,2.4-0.2
	c0.5-0.1,1-0.3,1.4-0.6c0.4-0.3,0.7-0.7,0.9-1.2c0.2-0.5,0.3-1,0.3-1.5c0-0.7-0.2-1.3-0.6-1.7C180.6,332.6,180.2,332.3,179.8,332.1z
	"/>
<polygon class="st2" points="113.8,298.7 106.4,306.4 108.1,308.3 115.4,300.6 "/>
<polygon class="st2" points="232.6,310.8 231.1,309 234.6,305.2 233.2,303.6 229.7,307.4 228.5,306 232.2,301.9 230.8,300.3 
	225.3,306.2 225.4,306.2 223.5,307.7 225.7,315.2 219.9,310.7 217.9,312.3 217.8,312.2 215.8,313.7 221.3,323.1 223.3,321.7 
	218,312.5 226.6,319.1 228.6,317.5 225.7,306.6 232.3,314.3 237.9,308.3 236.5,306.6 "/>
<path class="st2" d="M236.1,301l-1.5-1.5l0.9-1.1c0.5-0.7,0.8-1,0.9-1.2c0.4-0.4,0.8-0.4,1.2,0c0.2,0.2,0.3,0.4,0.4,0.6
	c0,0.2,0,0.4-0.1,0.6c-0.1,0.2-0.3,0.5-1,1.5L236.1,301z M240.6,298.9c-0.3,0-0.6,0.1-0.9,0.1c0.3-0.7,0.4-1.3,0.4-1.9
	c-0.1-0.8-0.4-1.4-1-2c-0.5-0.4-1-0.7-1.5-0.8c-0.6-0.1-1.1,0-1.6,0.3c-0.5,0.3-1,0.9-1.7,1.8l-2.8,3.6l7.6,7.4l1.5-2l-3-3l0.1-0.2
	c0.3-0.4,0.5-0.6,0.7-0.7c0.2-0.1,0.4-0.2,0.6-0.2c0.3,0,0.8,0.1,1.6,0.2l2.6,0.4l1.8-2.4l-2.6-0.4
	C241.7,299,241.1,298.9,240.6,298.9z"/>
<polygon class="st2" points="257.6,275.6 258.4,273.2 254.5,271.5 250.3,265.2 249.3,268.1 252,271.8 247.8,272.6 247,274.8 
	247,274.8 246.9,275 246.6,275 246.8,275.1 243.5,282.6 243.4,282.5 242.1,284.7 250.5,290.9 251.8,288.7 245.2,283.8 246.5,281 
	253.6,285.1 254.7,282.7 247.5,278.7 248.8,275.8 247.8,275.2 253.6,273.9 "/>
<path class="st2" d="M247.5,290.1c-0.5-0.4-1.1-0.7-1.8-0.7c-0.5,0-0.9,0.1-1.4,0.4c-0.5,0.3-1.1,0.8-1.8,1.5
	c-0.9,0.9-1.3,1.1-1.5,1.2c-0.2,0.1-0.3,0-0.5-0.1c-0.2-0.1-0.2-0.3-0.2-0.5c0-0.4,0.1-0.9,0.4-1.3c0.3-0.5,0.6-0.7,0.9-0.8
	c0.3-0.1,0.6,0,1,0.2l0.2,0.1l1.2-2.2l-0.2-0.1c-0.8-0.6-1.6-0.8-2.5-0.5c-0.8,0.2-1.6,0.9-2.4,2.1c-0.4,0.7-0.7,1.4-0.8,2
	c-0.1,0.7-0.1,1.3,0.1,1.9c0.2,0.6,0.5,1,1,1.4c0.7,0.5,1.5,0.7,2.3,0.5c0.6-0.2,1.3-0.6,2.1-1.5c0.6-0.6,1-1,1.2-1.2
	c0.3-0.2,0.5-0.3,0.7-0.3c0.1,0,0.3,0,0.4,0.1c0.2,0.2,0.4,0.5,0.4,0.9c0,0.4-0.1,0.9-0.5,1.4c-0.3,0.5-0.7,0.8-1,0.9
	c-0.4,0.1-0.9,0-1.4-0.2l-0.2-0.1l-1.1,2.2l0.2,0.1c0.7,0.4,1.4,0.6,2.1,0.6c0.3,0,0.6,0,0.8-0.1c0.9-0.2,1.7-1,2.4-2.1
	c0.5-0.8,0.8-1.5,0.9-2.2c0.1-0.7,0.1-1.4-0.1-2C248.3,291,248,290.5,247.5,290.1"/>
<polygon class="st2" points="213.4,315.3 216.1,321.2 210.1,317.1 208.2,318.3 212.7,328.3 214.7,327.2 212.1,321.4 217.9,325.4 
	220,324.2 215.4,314.1 "/>
<path class="st2" d="M205.7,331.2L205.7,331.2L205.7,331.2L205.7,331.2z M209.5,324.1l-2-5.5l-2.2,1l2.1,5.7
	c0.3,0.7,0.5,1.3,0.5,1.7c0.1,0.3,0,0.6-0.1,1c-0.1,0.3-0.5,0.6-0.9,0.8c-0.5,0.2-0.8,0.3-1.2,0.2c-0.3-0.1-0.6-0.3-0.8-0.6
	c-0.1-0.3-0.4-0.9-0.7-1.6l-2-5.7l-2.2,1l2,5.6c0.4,1.2,0.8,2,1.1,2.5c0.2,0.4,0.6,0.7,1,1c0.4,0.3,0.9,0.4,1.5,0.4l0.1,0
	c0.5,0,1.2-0.2,2.1-0.6c0.7-0.3,1.3-0.7,1.7-1.1c0.4-0.4,0.7-0.9,0.8-1.4c0.2-0.5,0.2-1,0.1-1.6C210.2,326.2,210,325.4,209.5,324.1z
	"/>
<path class="st2" d="M187.1,332.3l-2,0.3l0.7-3.2L187.1,332.3z M184.2,326.1l-2.7,11.7l2.5-0.3l0.5-2.6l3.5-0.5l1.1,2.3l2.6-0.4
	l-5.2-10.6L184.2,326.1z"/>
<polygon class="st2" points="194.3,333.1 192.5,324.5 190.2,325.1 192.5,335.9 199.5,334.1 199.1,331.9 "/>
</svg>
